G04 EAGLE Gerber RS-274X export*
G75*
%MOMM*%
%FSLAX34Y34*%
%LPD*%
%IN*%
%IPPOS*%
%AMOC8*
5,1,8,0,0,1.08239X$1,22.5*%
G01*
%ADD10C,0.254000*%


D10*
X0Y50000D02*
X190Y45642D01*
X760Y41318D01*
X1704Y37059D01*
X3015Y32899D01*
X4685Y28869D01*
X6699Y25000D01*
X9042Y21321D01*
X11698Y17861D01*
X14645Y14645D01*
X17861Y11698D01*
X21321Y9042D01*
X25000Y6699D01*
X28869Y4685D01*
X32899Y3015D01*
X37059Y1704D01*
X41318Y760D01*
X45642Y190D01*
X50000Y0D01*
X1377600Y0D01*
X1381958Y190D01*
X1386282Y760D01*
X1390541Y1704D01*
X1394701Y3015D01*
X1398731Y4685D01*
X1402600Y6699D01*
X1406279Y9042D01*
X1409739Y11698D01*
X1412955Y14645D01*
X1415902Y17861D01*
X1418558Y21321D01*
X1420901Y25000D01*
X1422915Y28869D01*
X1424585Y32899D01*
X1425896Y37059D01*
X1426840Y41318D01*
X1427410Y45642D01*
X1427600Y50000D01*
X1427600Y924800D01*
X1427410Y929158D01*
X1426840Y933482D01*
X1425896Y937741D01*
X1424585Y941901D01*
X1422915Y945931D01*
X1420901Y949800D01*
X1418558Y953479D01*
X1415902Y956939D01*
X1412955Y960155D01*
X1409739Y963102D01*
X1406279Y965758D01*
X1402600Y968101D01*
X1398731Y970115D01*
X1394701Y971785D01*
X1390541Y973096D01*
X1386282Y974040D01*
X1381958Y974610D01*
X1377600Y974800D01*
X50000Y974800D01*
X45642Y974610D01*
X41318Y974040D01*
X37059Y973096D01*
X32899Y971785D01*
X28869Y970115D01*
X25000Y968101D01*
X21321Y965758D01*
X17861Y963102D01*
X14645Y960155D01*
X11698Y956939D01*
X9042Y953479D01*
X6699Y949800D01*
X4685Y945931D01*
X3015Y941901D01*
X1704Y937741D01*
X760Y933482D01*
X190Y929158D01*
X0Y924800D01*
X0Y50000D01*
X46000Y944276D02*
X45932Y943231D01*
X45795Y942192D01*
X45590Y941165D01*
X45319Y940153D01*
X44983Y939161D01*
X44582Y938193D01*
X44118Y937254D01*
X43595Y936346D01*
X43013Y935475D01*
X42375Y934644D01*
X41684Y933857D01*
X40943Y933116D01*
X40156Y932425D01*
X39325Y931788D01*
X38454Y931206D01*
X37546Y930682D01*
X36607Y930218D01*
X35639Y929817D01*
X34647Y929481D01*
X33635Y929210D01*
X32608Y929005D01*
X31569Y928869D01*
X30524Y928800D01*
X29476Y928800D01*
X28431Y928869D01*
X27392Y929005D01*
X26365Y929210D01*
X25353Y929481D01*
X24361Y929817D01*
X23393Y930218D01*
X22454Y930682D01*
X21546Y931206D01*
X20675Y931788D01*
X19844Y932425D01*
X19057Y933116D01*
X18316Y933857D01*
X17625Y934644D01*
X16988Y935475D01*
X16406Y936346D01*
X15882Y937254D01*
X15418Y938193D01*
X15017Y939161D01*
X14681Y940153D01*
X14410Y941165D01*
X14205Y942192D01*
X14069Y943231D01*
X14000Y944276D01*
X14000Y945324D01*
X14069Y946369D01*
X14205Y947408D01*
X14410Y948435D01*
X14681Y949447D01*
X15017Y950439D01*
X15418Y951407D01*
X15882Y952346D01*
X16406Y953254D01*
X16988Y954125D01*
X17625Y954956D01*
X18316Y955743D01*
X19057Y956484D01*
X19844Y957175D01*
X20675Y957813D01*
X21546Y958395D01*
X22454Y958918D01*
X23393Y959382D01*
X24361Y959783D01*
X25353Y960119D01*
X26365Y960390D01*
X27392Y960595D01*
X28431Y960732D01*
X29476Y960800D01*
X30524Y960800D01*
X31569Y960732D01*
X32608Y960595D01*
X33635Y960390D01*
X34647Y960119D01*
X35639Y959783D01*
X36607Y959382D01*
X37546Y958918D01*
X38454Y958395D01*
X39325Y957813D01*
X40156Y957175D01*
X40943Y956484D01*
X41684Y955743D01*
X42375Y954956D01*
X43013Y954125D01*
X43595Y953254D01*
X44118Y952346D01*
X44582Y951407D01*
X44983Y950439D01*
X45319Y949447D01*
X45590Y948435D01*
X45795Y947408D01*
X45932Y946369D01*
X46000Y945324D01*
X46000Y944276D01*
X1413600Y944276D02*
X1413532Y943231D01*
X1413395Y942192D01*
X1413190Y941165D01*
X1412919Y940153D01*
X1412583Y939161D01*
X1412182Y938193D01*
X1411718Y937254D01*
X1411195Y936346D01*
X1410613Y935475D01*
X1409975Y934644D01*
X1409284Y933857D01*
X1408543Y933116D01*
X1407756Y932425D01*
X1406925Y931788D01*
X1406054Y931206D01*
X1405146Y930682D01*
X1404207Y930218D01*
X1403239Y929817D01*
X1402247Y929481D01*
X1401235Y929210D01*
X1400208Y929005D01*
X1399169Y928869D01*
X1398124Y928800D01*
X1397076Y928800D01*
X1396031Y928869D01*
X1394992Y929005D01*
X1393965Y929210D01*
X1392953Y929481D01*
X1391961Y929817D01*
X1390993Y930218D01*
X1390054Y930682D01*
X1389146Y931206D01*
X1388275Y931788D01*
X1387444Y932425D01*
X1386657Y933116D01*
X1385916Y933857D01*
X1385225Y934644D01*
X1384588Y935475D01*
X1384006Y936346D01*
X1383482Y937254D01*
X1383018Y938193D01*
X1382617Y939161D01*
X1382281Y940153D01*
X1382010Y941165D01*
X1381805Y942192D01*
X1381669Y943231D01*
X1381600Y944276D01*
X1381600Y945324D01*
X1381669Y946369D01*
X1381805Y947408D01*
X1382010Y948435D01*
X1382281Y949447D01*
X1382617Y950439D01*
X1383018Y951407D01*
X1383482Y952346D01*
X1384006Y953254D01*
X1384588Y954125D01*
X1385225Y954956D01*
X1385916Y955743D01*
X1386657Y956484D01*
X1387444Y957175D01*
X1388275Y957813D01*
X1389146Y958395D01*
X1390054Y958918D01*
X1390993Y959382D01*
X1391961Y959783D01*
X1392953Y960119D01*
X1393965Y960390D01*
X1394992Y960595D01*
X1396031Y960732D01*
X1397076Y960800D01*
X1398124Y960800D01*
X1399169Y960732D01*
X1400208Y960595D01*
X1401235Y960390D01*
X1402247Y960119D01*
X1403239Y959783D01*
X1404207Y959382D01*
X1405146Y958918D01*
X1406054Y958395D01*
X1406925Y957813D01*
X1407756Y957175D01*
X1408543Y956484D01*
X1409284Y955743D01*
X1409975Y954956D01*
X1410613Y954125D01*
X1411195Y953254D01*
X1411718Y952346D01*
X1412182Y951407D01*
X1412583Y950439D01*
X1412919Y949447D01*
X1413190Y948435D01*
X1413395Y947408D01*
X1413532Y946369D01*
X1413600Y945324D01*
X1413600Y944276D01*
X1413600Y29476D02*
X1413532Y28431D01*
X1413395Y27392D01*
X1413190Y26365D01*
X1412919Y25353D01*
X1412583Y24361D01*
X1412182Y23393D01*
X1411718Y22454D01*
X1411195Y21546D01*
X1410613Y20675D01*
X1409975Y19844D01*
X1409284Y19057D01*
X1408543Y18316D01*
X1407756Y17625D01*
X1406925Y16988D01*
X1406054Y16406D01*
X1405146Y15882D01*
X1404207Y15418D01*
X1403239Y15017D01*
X1402247Y14681D01*
X1401235Y14410D01*
X1400208Y14205D01*
X1399169Y14069D01*
X1398124Y14000D01*
X1397076Y14000D01*
X1396031Y14069D01*
X1394992Y14205D01*
X1393965Y14410D01*
X1392953Y14681D01*
X1391961Y15017D01*
X1390993Y15418D01*
X1390054Y15882D01*
X1389146Y16406D01*
X1388275Y16988D01*
X1387444Y17625D01*
X1386657Y18316D01*
X1385916Y19057D01*
X1385225Y19844D01*
X1384588Y20675D01*
X1384006Y21546D01*
X1383482Y22454D01*
X1383018Y23393D01*
X1382617Y24361D01*
X1382281Y25353D01*
X1382010Y26365D01*
X1381805Y27392D01*
X1381669Y28431D01*
X1381600Y29476D01*
X1381600Y30524D01*
X1381669Y31569D01*
X1381805Y32608D01*
X1382010Y33635D01*
X1382281Y34647D01*
X1382617Y35639D01*
X1383018Y36607D01*
X1383482Y37546D01*
X1384006Y38454D01*
X1384588Y39325D01*
X1385225Y40156D01*
X1385916Y40943D01*
X1386657Y41684D01*
X1387444Y42375D01*
X1388275Y43013D01*
X1389146Y43595D01*
X1390054Y44118D01*
X1390993Y44582D01*
X1391961Y44983D01*
X1392953Y45319D01*
X1393965Y45590D01*
X1394992Y45795D01*
X1396031Y45932D01*
X1397076Y46000D01*
X1398124Y46000D01*
X1399169Y45932D01*
X1400208Y45795D01*
X1401235Y45590D01*
X1402247Y45319D01*
X1403239Y44983D01*
X1404207Y44582D01*
X1405146Y44118D01*
X1406054Y43595D01*
X1406925Y43013D01*
X1407756Y42375D01*
X1408543Y41684D01*
X1409284Y40943D01*
X1409975Y40156D01*
X1410613Y39325D01*
X1411195Y38454D01*
X1411718Y37546D01*
X1412182Y36607D01*
X1412583Y35639D01*
X1412919Y34647D01*
X1413190Y33635D01*
X1413395Y32608D01*
X1413532Y31569D01*
X1413600Y30524D01*
X1413600Y29476D01*
X46000Y29476D02*
X45932Y28431D01*
X45795Y27392D01*
X45590Y26365D01*
X45319Y25353D01*
X44983Y24361D01*
X44582Y23393D01*
X44118Y22454D01*
X43595Y21546D01*
X43013Y20675D01*
X42375Y19844D01*
X41684Y19057D01*
X40943Y18316D01*
X40156Y17625D01*
X39325Y16988D01*
X38454Y16406D01*
X37546Y15882D01*
X36607Y15418D01*
X35639Y15017D01*
X34647Y14681D01*
X33635Y14410D01*
X32608Y14205D01*
X31569Y14069D01*
X30524Y14000D01*
X29476Y14000D01*
X28431Y14069D01*
X27392Y14205D01*
X26365Y14410D01*
X25353Y14681D01*
X24361Y15017D01*
X23393Y15418D01*
X22454Y15882D01*
X21546Y16406D01*
X20675Y16988D01*
X19844Y17625D01*
X19057Y18316D01*
X18316Y19057D01*
X17625Y19844D01*
X16988Y20675D01*
X16406Y21546D01*
X15882Y22454D01*
X15418Y23393D01*
X15017Y24361D01*
X14681Y25353D01*
X14410Y26365D01*
X14205Y27392D01*
X14069Y28431D01*
X14000Y29476D01*
X14000Y30524D01*
X14069Y31569D01*
X14205Y32608D01*
X14410Y33635D01*
X14681Y34647D01*
X15017Y35639D01*
X15418Y36607D01*
X15882Y37546D01*
X16406Y38454D01*
X16988Y39325D01*
X17625Y40156D01*
X18316Y40943D01*
X19057Y41684D01*
X19844Y42375D01*
X20675Y43013D01*
X21546Y43595D01*
X22454Y44118D01*
X23393Y44582D01*
X24361Y44983D01*
X25353Y45319D01*
X26365Y45590D01*
X27392Y45795D01*
X28431Y45932D01*
X29476Y46000D01*
X30524Y46000D01*
X31569Y45932D01*
X32608Y45795D01*
X33635Y45590D01*
X34647Y45319D01*
X35639Y44983D01*
X36607Y44582D01*
X37546Y44118D01*
X38454Y43595D01*
X39325Y43013D01*
X40156Y42375D01*
X40943Y41684D01*
X41684Y40943D01*
X42375Y40156D01*
X43013Y39325D01*
X43595Y38454D01*
X44118Y37546D01*
X44582Y36607D01*
X44983Y35639D01*
X45319Y34647D01*
X45590Y33635D01*
X45795Y32608D01*
X45932Y31569D01*
X46000Y30524D01*
X46000Y29476D01*
M02*
