G04 EAGLE Gerber RS-274X export*
G75*
%MOMM*%
%FSLAX34Y34*%
%LPD*%
%INSilkscreen Top*%
%IPPOS*%
%AMOC8*
5,1,8,0,0,1.08239X$1,22.5*%
G01*
%ADD10C,0.279400*%
%ADD11C,0.152400*%
%ADD12C,0.101600*%
%ADD13C,0.127000*%


D10*
X17600Y346808D02*
X15100Y344308D01*
X15100Y339309D01*
X17600Y336809D01*
X20100Y336809D01*
X22600Y339309D01*
X22600Y344308D01*
X25099Y346808D01*
X27599Y346808D01*
X30099Y344308D01*
X30099Y339309D01*
X27599Y336809D01*
X30099Y355680D02*
X30099Y360680D01*
X30099Y355680D02*
X27599Y353181D01*
X22600Y353181D01*
X20100Y355680D01*
X20100Y360680D01*
X22600Y363180D01*
X25099Y363180D01*
X25099Y353181D01*
X30099Y369552D02*
X20100Y369552D01*
X20100Y377052D01*
X22600Y379551D01*
X30099Y379551D01*
X30099Y385924D02*
X30099Y393423D01*
X27599Y395923D01*
X25099Y393423D01*
X25099Y388423D01*
X22600Y385924D01*
X20100Y388423D01*
X20100Y395923D01*
X30099Y404795D02*
X30099Y409795D01*
X27599Y412294D01*
X22600Y412294D01*
X20100Y409795D01*
X20100Y404795D01*
X22600Y402295D01*
X27599Y402295D01*
X30099Y404795D01*
X30099Y418667D02*
X20100Y418667D01*
X25099Y418667D02*
X20100Y423666D01*
X20100Y426166D01*
X15100Y448681D02*
X30099Y448681D01*
X30099Y456181D01*
X27599Y458681D01*
X22600Y458681D01*
X20100Y456181D01*
X20100Y448681D01*
X30099Y467553D02*
X30099Y472552D01*
X27599Y475052D01*
X22600Y475052D01*
X20100Y472552D01*
X20100Y467553D01*
X22600Y465053D01*
X27599Y465053D01*
X30099Y467553D01*
X20100Y483924D02*
X20100Y488924D01*
X22600Y491424D01*
X30099Y491424D01*
X30099Y483924D01*
X27599Y481424D01*
X25099Y483924D01*
X25099Y491424D01*
X20100Y497796D02*
X30099Y497796D01*
X25099Y497796D02*
X20100Y502796D01*
X20100Y505295D01*
X15100Y521438D02*
X30099Y521438D01*
X30099Y513939D01*
X27599Y511439D01*
X22600Y511439D01*
X20100Y513939D01*
X20100Y521438D01*
X17600Y544182D02*
X27599Y544182D01*
X17600Y544182D02*
X15100Y546682D01*
X15100Y551682D01*
X17600Y554181D01*
X27599Y554181D01*
X30099Y551682D01*
X30099Y546682D01*
X27599Y544182D01*
X17600Y554181D01*
X17600Y560554D02*
X27599Y560554D01*
X17600Y560554D02*
X15100Y563053D01*
X15100Y568053D01*
X17600Y570553D01*
X27599Y570553D01*
X30099Y568053D01*
X30099Y563053D01*
X27599Y560554D01*
X17600Y570553D01*
X15100Y584425D02*
X30099Y584425D01*
X22600Y576925D02*
X15100Y584425D01*
X22600Y586924D02*
X22600Y576925D01*
X469598Y945613D02*
X469598Y960612D01*
X474597Y955612D01*
X479597Y960612D01*
X479597Y945613D01*
X485969Y955612D02*
X488469Y955612D01*
X488469Y945613D01*
X485969Y945613D02*
X490969Y945613D01*
X488469Y960612D02*
X488469Y963112D01*
X496884Y955612D02*
X496884Y945613D01*
X496884Y950613D02*
X501883Y955612D01*
X504383Y955612D01*
X510527Y955612D02*
X513026Y955612D01*
X513026Y945613D01*
X510527Y945613D02*
X515526Y945613D01*
X513026Y960612D02*
X513026Y963112D01*
X523941Y955612D02*
X528940Y955612D01*
X531440Y953112D01*
X531440Y945613D01*
X523941Y945613D01*
X521441Y948113D01*
X523941Y950613D01*
X531440Y950613D01*
X537813Y955612D02*
X537813Y945613D01*
X537813Y955612D02*
X540312Y955612D01*
X542812Y953112D01*
X542812Y945613D01*
X542812Y953112D02*
X545312Y955612D01*
X547812Y953112D01*
X547812Y945613D01*
X570556Y940613D02*
X570556Y955612D01*
X578055Y955612D01*
X580555Y953112D01*
X580555Y948113D01*
X578055Y945613D01*
X570556Y945613D01*
X586927Y960612D02*
X589427Y960612D01*
X589427Y945613D01*
X586927Y945613D02*
X591927Y945613D01*
X597842Y948113D02*
X597842Y955612D01*
X597842Y948113D02*
X600341Y945613D01*
X607841Y945613D01*
X607841Y955612D01*
X614213Y945613D02*
X621713Y945613D01*
X624212Y948113D01*
X621713Y950613D01*
X616713Y950613D01*
X614213Y953112D01*
X616713Y955612D01*
X624212Y955612D01*
X323421Y14313D02*
X313422Y14313D01*
X323421Y24312D01*
X323421Y26812D01*
X320921Y29312D01*
X315922Y29312D01*
X313422Y26812D01*
X329793Y26812D02*
X329793Y16813D01*
X329793Y26812D02*
X332293Y29312D01*
X337293Y29312D01*
X339793Y26812D01*
X339793Y16813D01*
X337293Y14313D01*
X332293Y14313D01*
X329793Y16813D01*
X339793Y26812D01*
X346165Y24312D02*
X351165Y29312D01*
X351165Y14313D01*
X356164Y14313D02*
X346165Y14313D01*
X362537Y29312D02*
X372536Y29312D01*
X362537Y29312D02*
X362537Y21812D01*
X367536Y24312D01*
X370036Y24312D01*
X372536Y21812D01*
X372536Y16813D01*
X370036Y14313D01*
X365036Y14313D01*
X362537Y16813D01*
X378908Y16813D02*
X378908Y26812D01*
X381408Y29312D01*
X386408Y29312D01*
X388907Y26812D01*
X388907Y16813D01*
X386408Y14313D01*
X381408Y14313D01*
X378908Y16813D01*
X388907Y26812D01*
X395280Y29312D02*
X405279Y29312D01*
X405279Y26812D01*
X395280Y16813D01*
X395280Y14313D01*
X411651Y14313D02*
X421650Y14313D01*
X411651Y14313D02*
X421650Y24312D01*
X421650Y26812D01*
X419151Y29312D01*
X414151Y29312D01*
X411651Y26812D01*
X428023Y26812D02*
X428023Y16813D01*
X428023Y26812D02*
X430523Y29312D01*
X435522Y29312D01*
X438022Y26812D01*
X438022Y16813D01*
X435522Y14313D01*
X430523Y14313D01*
X428023Y16813D01*
X438022Y26812D01*
X460766Y29312D02*
X460766Y14313D01*
X470765Y14313D01*
X477138Y24312D02*
X479637Y24312D01*
X479637Y14313D01*
X477138Y14313D02*
X482137Y14313D01*
X479637Y29312D02*
X479637Y31812D01*
X490552Y24312D02*
X498051Y24312D01*
X490552Y24312D02*
X488052Y21812D01*
X488052Y16813D01*
X490552Y14313D01*
X498051Y14313D01*
X506923Y14313D02*
X511923Y14313D01*
X506923Y14313D02*
X504423Y16813D01*
X504423Y21812D01*
X506923Y24312D01*
X511923Y24312D01*
X514423Y21812D01*
X514423Y19313D01*
X504423Y19313D01*
X520795Y14313D02*
X520795Y24312D01*
X528294Y24312D01*
X530794Y21812D01*
X530794Y14313D01*
X537167Y14313D02*
X544666Y14313D01*
X547166Y16813D01*
X544666Y19313D01*
X539666Y19313D01*
X537167Y21812D01*
X539666Y24312D01*
X547166Y24312D01*
X556038Y14313D02*
X561038Y14313D01*
X556038Y14313D02*
X553538Y16813D01*
X553538Y21812D01*
X556038Y24312D01*
X561038Y24312D01*
X563537Y21812D01*
X563537Y19313D01*
X553538Y19313D01*
X579909Y14313D02*
X579909Y29312D01*
X579909Y14313D02*
X572409Y14313D01*
X569910Y16813D01*
X569910Y21812D01*
X572409Y24312D01*
X579909Y24312D01*
X602653Y24312D02*
X602653Y16813D01*
X605153Y14313D01*
X612652Y14313D01*
X612652Y24312D01*
X619024Y24312D02*
X619024Y14313D01*
X619024Y24312D02*
X626524Y24312D01*
X629024Y21812D01*
X629024Y14313D01*
X645395Y14313D02*
X645395Y29312D01*
X645395Y14313D02*
X637896Y14313D01*
X635396Y16813D01*
X635396Y21812D01*
X637896Y24312D01*
X645395Y24312D01*
X654267Y14313D02*
X659267Y14313D01*
X654267Y14313D02*
X651768Y16813D01*
X651768Y21812D01*
X654267Y24312D01*
X659267Y24312D01*
X661767Y21812D01*
X661767Y19313D01*
X651768Y19313D01*
X668139Y14313D02*
X668139Y24312D01*
X668139Y19313D02*
X673139Y24312D01*
X675638Y24312D01*
X705653Y29312D02*
X708153Y26812D01*
X705653Y29312D02*
X700653Y29312D01*
X698154Y26812D01*
X698154Y16813D01*
X700653Y14313D01*
X705653Y14313D01*
X708153Y16813D01*
X714525Y29312D02*
X724524Y29312D01*
X714525Y29312D02*
X714525Y14313D01*
X724524Y14313D01*
X719525Y21812D02*
X714525Y21812D01*
X730897Y14313D02*
X730897Y29312D01*
X738396Y29312D01*
X740896Y26812D01*
X740896Y21812D01*
X738396Y19313D01*
X730897Y19313D01*
X735896Y19313D02*
X740896Y14313D01*
X747268Y14313D02*
X747268Y29312D01*
X757267Y14313D01*
X757267Y29312D01*
X782511Y29312D02*
X787511Y29312D01*
X782511Y29312D02*
X780011Y26812D01*
X780011Y16813D01*
X782511Y14313D01*
X787511Y14313D01*
X790011Y16813D01*
X790011Y26812D01*
X787511Y29312D01*
X796383Y29312D02*
X796383Y14313D01*
X796383Y21812D02*
X806382Y21812D01*
X806382Y14313D02*
X806382Y29312D01*
X812755Y29312D02*
X812755Y14313D01*
X822754Y14313D01*
X845498Y24312D02*
X850497Y14313D01*
X855497Y24312D01*
X861869Y16813D02*
X861869Y14313D01*
X861869Y16813D02*
X864369Y16813D01*
X864369Y14313D01*
X861869Y14313D01*
X870055Y24312D02*
X875055Y29312D01*
X875055Y14313D01*
X880054Y14313D02*
X870055Y14313D01*
X886427Y14313D02*
X886427Y16813D01*
X888926Y16813D01*
X888926Y14313D01*
X886427Y14313D01*
X894612Y14313D02*
X904612Y14313D01*
X904612Y24312D02*
X894612Y14313D01*
X904612Y24312D02*
X904612Y26812D01*
X902112Y29312D01*
X897112Y29312D01*
X894612Y26812D01*
D11*
X204800Y823400D02*
X182800Y823400D01*
X204800Y823400D02*
X204800Y784400D01*
X200800Y779400D01*
X186800Y779400D01*
X182800Y785400D01*
X182800Y823400D01*
X183800Y801400D02*
X204800Y801400D01*
D12*
X217398Y780532D02*
X229092Y780532D01*
X217398Y780532D02*
X217398Y786379D01*
X219347Y788328D01*
X223245Y788328D01*
X225194Y786379D01*
X225194Y780532D01*
X229092Y792226D02*
X217398Y792226D01*
X223245Y792226D02*
X223245Y800022D01*
X217398Y800022D02*
X229092Y800022D01*
X229092Y803920D02*
X217398Y803920D01*
X229092Y803920D02*
X229092Y809767D01*
X227143Y811716D01*
X219347Y811716D01*
X217398Y809767D01*
X217398Y803920D01*
X221296Y815614D02*
X217398Y819512D01*
X229092Y819512D01*
X229092Y815614D02*
X229092Y823410D01*
D11*
X272800Y823400D02*
X294800Y823400D01*
X294800Y784400D01*
X290800Y779400D01*
X276800Y779400D01*
X272800Y785400D01*
X272800Y823400D01*
X273800Y801400D02*
X294800Y801400D01*
D12*
X307398Y780532D02*
X319092Y780532D01*
X307398Y780532D02*
X307398Y786379D01*
X309347Y788328D01*
X313245Y788328D01*
X315194Y786379D01*
X315194Y780532D01*
X319092Y792226D02*
X307398Y792226D01*
X313245Y792226D02*
X313245Y800022D01*
X307398Y800022D02*
X319092Y800022D01*
X319092Y803920D02*
X307398Y803920D01*
X319092Y803920D02*
X319092Y809767D01*
X317143Y811716D01*
X309347Y811716D01*
X307398Y809767D01*
X307398Y803920D01*
X317143Y815614D02*
X319092Y817563D01*
X319092Y821461D01*
X317143Y823410D01*
X309347Y823410D01*
X307398Y821461D01*
X307398Y817563D01*
X309347Y815614D01*
X311296Y815614D01*
X313245Y817563D01*
X313245Y823410D01*
D11*
X362800Y823400D02*
X384800Y823400D01*
X384800Y784400D01*
X380800Y779400D01*
X366800Y779400D01*
X362800Y785400D01*
X362800Y823400D01*
X363800Y801400D02*
X384800Y801400D01*
D12*
X397398Y768838D02*
X409092Y768838D01*
X397398Y768838D02*
X397398Y774685D01*
X399347Y776634D01*
X403245Y776634D01*
X405194Y774685D01*
X405194Y768838D01*
X409092Y780532D02*
X397398Y780532D01*
X403245Y780532D02*
X403245Y788328D01*
X397398Y788328D02*
X409092Y788328D01*
X409092Y792226D02*
X397398Y792226D01*
X409092Y792226D02*
X409092Y798073D01*
X407143Y800022D01*
X399347Y800022D01*
X397398Y798073D01*
X397398Y792226D01*
X401296Y803920D02*
X397398Y807818D01*
X409092Y807818D01*
X409092Y803920D02*
X409092Y811716D01*
X397398Y815614D02*
X397398Y823410D01*
X399347Y823410D01*
X407143Y815614D01*
X409092Y815614D01*
D11*
X452800Y823400D02*
X474800Y823400D01*
X474800Y784400D01*
X470800Y779400D01*
X456800Y779400D01*
X452800Y785400D01*
X452800Y823400D01*
X453800Y801400D02*
X474800Y801400D01*
D12*
X487398Y768838D02*
X499092Y768838D01*
X487398Y768838D02*
X487398Y774685D01*
X489347Y776634D01*
X493245Y776634D01*
X495194Y774685D01*
X495194Y768838D01*
X499092Y780532D02*
X487398Y780532D01*
X493245Y780532D02*
X493245Y788328D01*
X487398Y788328D02*
X499092Y788328D01*
X499092Y792226D02*
X487398Y792226D01*
X499092Y792226D02*
X499092Y798073D01*
X497143Y800022D01*
X489347Y800022D01*
X487398Y798073D01*
X487398Y792226D01*
X499092Y803920D02*
X499092Y811716D01*
X499092Y803920D02*
X491296Y811716D01*
X489347Y811716D01*
X487398Y809767D01*
X487398Y805869D01*
X489347Y803920D01*
X487398Y815614D02*
X487398Y823410D01*
X487398Y815614D02*
X493245Y815614D01*
X491296Y819512D01*
X491296Y821461D01*
X493245Y823410D01*
X497143Y823410D01*
X499092Y821461D01*
X499092Y817563D01*
X497143Y815614D01*
D11*
X542800Y823400D02*
X564800Y823400D01*
X564800Y784400D01*
X560800Y779400D01*
X546800Y779400D01*
X542800Y785400D01*
X542800Y823400D01*
X543800Y801400D02*
X564800Y801400D01*
D12*
X577398Y768838D02*
X589092Y768838D01*
X577398Y768838D02*
X577398Y774685D01*
X579347Y776634D01*
X583245Y776634D01*
X585194Y774685D01*
X585194Y768838D01*
X589092Y780532D02*
X577398Y780532D01*
X583245Y780532D02*
X583245Y788328D01*
X577398Y788328D02*
X589092Y788328D01*
X589092Y792226D02*
X577398Y792226D01*
X589092Y792226D02*
X589092Y798073D01*
X587143Y800022D01*
X579347Y800022D01*
X577398Y798073D01*
X577398Y792226D01*
X579347Y803920D02*
X577398Y805869D01*
X577398Y809767D01*
X579347Y811716D01*
X581296Y811716D01*
X583245Y809767D01*
X583245Y807818D01*
X583245Y809767D02*
X585194Y811716D01*
X587143Y811716D01*
X589092Y809767D01*
X589092Y805869D01*
X587143Y803920D01*
X579347Y815614D02*
X577398Y817563D01*
X577398Y821461D01*
X579347Y823410D01*
X581296Y823410D01*
X583245Y821461D01*
X583245Y819512D01*
X583245Y821461D02*
X585194Y823410D01*
X587143Y823410D01*
X589092Y821461D01*
X589092Y817563D01*
X587143Y815614D01*
D11*
X632800Y823400D02*
X654800Y823400D01*
X654800Y784400D01*
X650800Y779400D01*
X636800Y779400D01*
X632800Y785400D01*
X632800Y823400D01*
X633800Y801400D02*
X654800Y801400D01*
D12*
X667398Y768838D02*
X679092Y768838D01*
X667398Y768838D02*
X667398Y774685D01*
X669347Y776634D01*
X673245Y776634D01*
X675194Y774685D01*
X675194Y768838D01*
X679092Y780532D02*
X667398Y780532D01*
X673245Y780532D02*
X673245Y788328D01*
X667398Y788328D02*
X679092Y788328D01*
X679092Y792226D02*
X667398Y792226D01*
X679092Y792226D02*
X679092Y798073D01*
X677143Y800022D01*
X669347Y800022D01*
X667398Y798073D01*
X667398Y792226D01*
X667398Y809767D02*
X679092Y809767D01*
X673245Y803920D02*
X667398Y809767D01*
X673245Y811716D02*
X673245Y803920D01*
X671296Y815614D02*
X667398Y819512D01*
X679092Y819512D01*
X679092Y815614D02*
X679092Y823410D01*
D11*
X722800Y823400D02*
X744800Y823400D01*
X744800Y784400D01*
X740800Y779400D01*
X726800Y779400D01*
X722800Y785400D01*
X722800Y823400D01*
X723800Y801400D02*
X744800Y801400D01*
D12*
X757398Y768838D02*
X769092Y768838D01*
X757398Y768838D02*
X757398Y774685D01*
X759347Y776634D01*
X763245Y776634D01*
X765194Y774685D01*
X765194Y768838D01*
X769092Y780532D02*
X757398Y780532D01*
X763245Y780532D02*
X763245Y788328D01*
X757398Y788328D02*
X769092Y788328D01*
X769092Y792226D02*
X757398Y792226D01*
X769092Y792226D02*
X769092Y798073D01*
X767143Y800022D01*
X759347Y800022D01*
X757398Y798073D01*
X757398Y792226D01*
X757398Y809767D02*
X769092Y809767D01*
X763245Y803920D02*
X757398Y809767D01*
X763245Y811716D02*
X763245Y803920D01*
X767143Y815614D02*
X769092Y817563D01*
X769092Y821461D01*
X767143Y823410D01*
X759347Y823410D01*
X757398Y821461D01*
X757398Y817563D01*
X759347Y815614D01*
X761296Y815614D01*
X763245Y817563D01*
X763245Y823410D01*
D11*
X812800Y823400D02*
X834800Y823400D01*
X834800Y784400D01*
X830800Y779400D01*
X816800Y779400D01*
X812800Y785400D01*
X812800Y823400D01*
X813800Y801400D02*
X834800Y801400D01*
D12*
X847398Y768838D02*
X859092Y768838D01*
X847398Y768838D02*
X847398Y774685D01*
X849347Y776634D01*
X853245Y776634D01*
X855194Y774685D01*
X855194Y768838D01*
X859092Y780532D02*
X847398Y780532D01*
X853245Y780532D02*
X853245Y788328D01*
X847398Y788328D02*
X859092Y788328D01*
X859092Y792226D02*
X847398Y792226D01*
X859092Y792226D02*
X859092Y798073D01*
X857143Y800022D01*
X849347Y800022D01*
X847398Y798073D01*
X847398Y792226D01*
X847398Y803920D02*
X847398Y811716D01*
X847398Y803920D02*
X853245Y803920D01*
X851296Y807818D01*
X851296Y809767D01*
X853245Y811716D01*
X857143Y811716D01*
X859092Y809767D01*
X859092Y805869D01*
X857143Y803920D01*
X847398Y815614D02*
X847398Y823410D01*
X849347Y823410D01*
X857143Y815614D01*
X859092Y815614D01*
D11*
X902800Y823400D02*
X924800Y823400D01*
X924800Y784400D01*
X920800Y779400D01*
X906800Y779400D01*
X902800Y785400D01*
X902800Y823400D01*
X903800Y801400D02*
X924800Y801400D01*
D12*
X937398Y768838D02*
X949092Y768838D01*
X937398Y768838D02*
X937398Y774685D01*
X939347Y776634D01*
X943245Y776634D01*
X945194Y774685D01*
X945194Y768838D01*
X949092Y780532D02*
X937398Y780532D01*
X943245Y780532D02*
X943245Y788328D01*
X937398Y788328D02*
X949092Y788328D01*
X949092Y792226D02*
X937398Y792226D01*
X949092Y792226D02*
X949092Y798073D01*
X947143Y800022D01*
X939347Y800022D01*
X937398Y798073D01*
X937398Y792226D01*
X939347Y807818D02*
X937398Y811716D01*
X939347Y807818D02*
X943245Y803920D01*
X947143Y803920D01*
X949092Y805869D01*
X949092Y809767D01*
X947143Y811716D01*
X945194Y811716D01*
X943245Y809767D01*
X943245Y803920D01*
X937398Y815614D02*
X937398Y823410D01*
X937398Y815614D02*
X943245Y815614D01*
X941296Y819512D01*
X941296Y821461D01*
X943245Y823410D01*
X947143Y823410D01*
X949092Y821461D01*
X949092Y817563D01*
X947143Y815614D01*
D11*
X992800Y823400D02*
X1014800Y823400D01*
X1014800Y784400D01*
X1010800Y779400D01*
X996800Y779400D01*
X992800Y785400D01*
X992800Y823400D01*
X993800Y801400D02*
X1014800Y801400D01*
D12*
X1027398Y768838D02*
X1039092Y768838D01*
X1027398Y768838D02*
X1027398Y774685D01*
X1029347Y776634D01*
X1033245Y776634D01*
X1035194Y774685D01*
X1035194Y768838D01*
X1039092Y780532D02*
X1027398Y780532D01*
X1033245Y780532D02*
X1033245Y788328D01*
X1027398Y788328D02*
X1039092Y788328D01*
X1039092Y792226D02*
X1027398Y792226D01*
X1039092Y792226D02*
X1039092Y798073D01*
X1037143Y800022D01*
X1029347Y800022D01*
X1027398Y798073D01*
X1027398Y792226D01*
X1027398Y803920D02*
X1027398Y811716D01*
X1029347Y811716D01*
X1037143Y803920D01*
X1039092Y803920D01*
X1029347Y815614D02*
X1027398Y817563D01*
X1027398Y821461D01*
X1029347Y823410D01*
X1031296Y823410D01*
X1033245Y821461D01*
X1033245Y819512D01*
X1033245Y821461D02*
X1035194Y823410D01*
X1037143Y823410D01*
X1039092Y821461D01*
X1039092Y817563D01*
X1037143Y815614D01*
D11*
X1082800Y823400D02*
X1104800Y823400D01*
X1104800Y784400D01*
X1100800Y779400D01*
X1086800Y779400D01*
X1082800Y785400D01*
X1082800Y823400D01*
X1083800Y801400D02*
X1104800Y801400D01*
D12*
X1117398Y768838D02*
X1129092Y768838D01*
X1117398Y768838D02*
X1117398Y774685D01*
X1119347Y776634D01*
X1123245Y776634D01*
X1125194Y774685D01*
X1125194Y768838D01*
X1129092Y780532D02*
X1117398Y780532D01*
X1123245Y780532D02*
X1123245Y788328D01*
X1117398Y788328D02*
X1129092Y788328D01*
X1129092Y792226D02*
X1117398Y792226D01*
X1129092Y792226D02*
X1129092Y798073D01*
X1127143Y800022D01*
X1119347Y800022D01*
X1117398Y798073D01*
X1117398Y792226D01*
X1119347Y803920D02*
X1117398Y805869D01*
X1117398Y809767D01*
X1119347Y811716D01*
X1121296Y811716D01*
X1123245Y809767D01*
X1125194Y811716D01*
X1127143Y811716D01*
X1129092Y809767D01*
X1129092Y805869D01*
X1127143Y803920D01*
X1125194Y803920D01*
X1123245Y805869D01*
X1121296Y803920D01*
X1119347Y803920D01*
X1123245Y805869D02*
X1123245Y809767D01*
X1121296Y815614D02*
X1117398Y819512D01*
X1129092Y819512D01*
X1129092Y815614D02*
X1129092Y823410D01*
D11*
X1172800Y823400D02*
X1194800Y823400D01*
X1194800Y784400D01*
X1190800Y779400D01*
X1176800Y779400D01*
X1172800Y785400D01*
X1172800Y823400D01*
X1173800Y801400D02*
X1194800Y801400D01*
D12*
X1207398Y768838D02*
X1219092Y768838D01*
X1207398Y768838D02*
X1207398Y774685D01*
X1209347Y776634D01*
X1213245Y776634D01*
X1215194Y774685D01*
X1215194Y768838D01*
X1219092Y780532D02*
X1207398Y780532D01*
X1213245Y780532D02*
X1213245Y788328D01*
X1207398Y788328D02*
X1219092Y788328D01*
X1219092Y792226D02*
X1207398Y792226D01*
X1219092Y792226D02*
X1219092Y798073D01*
X1217143Y800022D01*
X1209347Y800022D01*
X1207398Y798073D01*
X1207398Y792226D01*
X1209347Y803920D02*
X1207398Y805869D01*
X1207398Y809767D01*
X1209347Y811716D01*
X1211296Y811716D01*
X1213245Y809767D01*
X1215194Y811716D01*
X1217143Y811716D01*
X1219092Y809767D01*
X1219092Y805869D01*
X1217143Y803920D01*
X1215194Y803920D01*
X1213245Y805869D01*
X1211296Y803920D01*
X1209347Y803920D01*
X1213245Y805869D02*
X1213245Y809767D01*
X1217143Y815614D02*
X1219092Y817563D01*
X1219092Y821461D01*
X1217143Y823410D01*
X1209347Y823410D01*
X1207398Y821461D01*
X1207398Y817563D01*
X1209347Y815614D01*
X1211296Y815614D01*
X1213245Y817563D01*
X1213245Y823410D01*
D11*
X204800Y733400D02*
X182800Y733400D01*
X204800Y733400D02*
X204800Y694400D01*
X200800Y689400D01*
X186800Y689400D01*
X182800Y695400D01*
X182800Y733400D01*
X183800Y711400D02*
X204800Y711400D01*
D12*
X217398Y690532D02*
X229092Y690532D01*
X217398Y690532D02*
X217398Y696379D01*
X219347Y698328D01*
X223245Y698328D01*
X225194Y696379D01*
X225194Y690532D01*
X229092Y702226D02*
X217398Y702226D01*
X223245Y702226D02*
X223245Y710022D01*
X217398Y710022D02*
X229092Y710022D01*
X229092Y713920D02*
X217398Y713920D01*
X229092Y713920D02*
X229092Y719767D01*
X227143Y721716D01*
X219347Y721716D01*
X217398Y719767D01*
X217398Y713920D01*
X229092Y725614D02*
X229092Y733410D01*
X229092Y725614D02*
X221296Y733410D01*
X219347Y733410D01*
X217398Y731461D01*
X217398Y727563D01*
X219347Y725614D01*
D11*
X272800Y733400D02*
X294800Y733400D01*
X294800Y694400D01*
X290800Y689400D01*
X276800Y689400D01*
X272800Y695400D01*
X272800Y733400D01*
X273800Y711400D02*
X294800Y711400D01*
D12*
X307398Y678838D02*
X319092Y678838D01*
X307398Y678838D02*
X307398Y684685D01*
X309347Y686634D01*
X313245Y686634D01*
X315194Y684685D01*
X315194Y678838D01*
X319092Y690532D02*
X307398Y690532D01*
X313245Y690532D02*
X313245Y698328D01*
X307398Y698328D02*
X319092Y698328D01*
X319092Y702226D02*
X307398Y702226D01*
X319092Y702226D02*
X319092Y708073D01*
X317143Y710022D01*
X309347Y710022D01*
X307398Y708073D01*
X307398Y702226D01*
X311296Y713920D02*
X307398Y717818D01*
X319092Y717818D01*
X319092Y713920D02*
X319092Y721716D01*
X317143Y725614D02*
X309347Y725614D01*
X307398Y727563D01*
X307398Y731461D01*
X309347Y733410D01*
X317143Y733410D01*
X319092Y731461D01*
X319092Y727563D01*
X317143Y725614D01*
X309347Y733410D01*
D11*
X362800Y733400D02*
X384800Y733400D01*
X384800Y694400D01*
X380800Y689400D01*
X366800Y689400D01*
X362800Y695400D01*
X362800Y733400D01*
X363800Y711400D02*
X384800Y711400D01*
D12*
X397398Y678838D02*
X409092Y678838D01*
X397398Y678838D02*
X397398Y684685D01*
X399347Y686634D01*
X403245Y686634D01*
X405194Y684685D01*
X405194Y678838D01*
X409092Y690532D02*
X397398Y690532D01*
X403245Y690532D02*
X403245Y698328D01*
X397398Y698328D02*
X409092Y698328D01*
X409092Y702226D02*
X397398Y702226D01*
X409092Y702226D02*
X409092Y708073D01*
X407143Y710022D01*
X399347Y710022D01*
X397398Y708073D01*
X397398Y702226D01*
X401296Y713920D02*
X397398Y717818D01*
X409092Y717818D01*
X409092Y713920D02*
X409092Y721716D01*
X399347Y725614D02*
X397398Y727563D01*
X397398Y731461D01*
X399347Y733410D01*
X401296Y733410D01*
X403245Y731461D01*
X405194Y733410D01*
X407143Y733410D01*
X409092Y731461D01*
X409092Y727563D01*
X407143Y725614D01*
X405194Y725614D01*
X403245Y727563D01*
X401296Y725614D01*
X399347Y725614D01*
X403245Y727563D02*
X403245Y731461D01*
D11*
X452800Y733400D02*
X474800Y733400D01*
X474800Y694400D01*
X470800Y689400D01*
X456800Y689400D01*
X452800Y695400D01*
X452800Y733400D01*
X453800Y711400D02*
X474800Y711400D01*
D12*
X487398Y678838D02*
X499092Y678838D01*
X487398Y678838D02*
X487398Y684685D01*
X489347Y686634D01*
X493245Y686634D01*
X495194Y684685D01*
X495194Y678838D01*
X499092Y690532D02*
X487398Y690532D01*
X493245Y690532D02*
X493245Y698328D01*
X487398Y698328D02*
X499092Y698328D01*
X499092Y702226D02*
X487398Y702226D01*
X499092Y702226D02*
X499092Y708073D01*
X497143Y710022D01*
X489347Y710022D01*
X487398Y708073D01*
X487398Y702226D01*
X499092Y713920D02*
X499092Y721716D01*
X499092Y713920D02*
X491296Y721716D01*
X489347Y721716D01*
X487398Y719767D01*
X487398Y715869D01*
X489347Y713920D01*
X489347Y729512D02*
X487398Y733410D01*
X489347Y729512D02*
X493245Y725614D01*
X497143Y725614D01*
X499092Y727563D01*
X499092Y731461D01*
X497143Y733410D01*
X495194Y733410D01*
X493245Y731461D01*
X493245Y725614D01*
D11*
X542800Y733400D02*
X564800Y733400D01*
X564800Y694400D01*
X560800Y689400D01*
X546800Y689400D01*
X542800Y695400D01*
X542800Y733400D01*
X543800Y711400D02*
X564800Y711400D01*
D12*
X577398Y678838D02*
X589092Y678838D01*
X577398Y678838D02*
X577398Y684685D01*
X579347Y686634D01*
X583245Y686634D01*
X585194Y684685D01*
X585194Y678838D01*
X589092Y690532D02*
X577398Y690532D01*
X583245Y690532D02*
X583245Y698328D01*
X577398Y698328D02*
X589092Y698328D01*
X589092Y702226D02*
X577398Y702226D01*
X589092Y702226D02*
X589092Y708073D01*
X587143Y710022D01*
X579347Y710022D01*
X577398Y708073D01*
X577398Y702226D01*
X579347Y713920D02*
X577398Y715869D01*
X577398Y719767D01*
X579347Y721716D01*
X581296Y721716D01*
X583245Y719767D01*
X583245Y717818D01*
X583245Y719767D02*
X585194Y721716D01*
X587143Y721716D01*
X589092Y719767D01*
X589092Y715869D01*
X587143Y713920D01*
X589092Y731461D02*
X577398Y731461D01*
X583245Y725614D01*
X583245Y733410D01*
D11*
X632800Y733400D02*
X654800Y733400D01*
X654800Y694400D01*
X650800Y689400D01*
X636800Y689400D01*
X632800Y695400D01*
X632800Y733400D01*
X633800Y711400D02*
X654800Y711400D01*
D12*
X667398Y678838D02*
X679092Y678838D01*
X667398Y678838D02*
X667398Y684685D01*
X669347Y686634D01*
X673245Y686634D01*
X675194Y684685D01*
X675194Y678838D01*
X679092Y690532D02*
X667398Y690532D01*
X673245Y690532D02*
X673245Y698328D01*
X667398Y698328D02*
X679092Y698328D01*
X679092Y702226D02*
X667398Y702226D01*
X679092Y702226D02*
X679092Y708073D01*
X677143Y710022D01*
X669347Y710022D01*
X667398Y708073D01*
X667398Y702226D01*
X667398Y719767D02*
X679092Y719767D01*
X673245Y713920D02*
X667398Y719767D01*
X673245Y721716D02*
X673245Y713920D01*
X679092Y725614D02*
X679092Y733410D01*
X679092Y725614D02*
X671296Y733410D01*
X669347Y733410D01*
X667398Y731461D01*
X667398Y727563D01*
X669347Y725614D01*
D11*
X722800Y733400D02*
X744800Y733400D01*
X744800Y694400D01*
X740800Y689400D01*
X726800Y689400D01*
X722800Y695400D01*
X722800Y733400D01*
X723800Y711400D02*
X744800Y711400D01*
D12*
X757398Y678838D02*
X769092Y678838D01*
X757398Y678838D02*
X757398Y684685D01*
X759347Y686634D01*
X763245Y686634D01*
X765194Y684685D01*
X765194Y678838D01*
X769092Y690532D02*
X757398Y690532D01*
X763245Y690532D02*
X763245Y698328D01*
X757398Y698328D02*
X769092Y698328D01*
X769092Y702226D02*
X757398Y702226D01*
X769092Y702226D02*
X769092Y708073D01*
X767143Y710022D01*
X759347Y710022D01*
X757398Y708073D01*
X757398Y702226D01*
X757398Y713920D02*
X757398Y721716D01*
X757398Y713920D02*
X763245Y713920D01*
X761296Y717818D01*
X761296Y719767D01*
X763245Y721716D01*
X767143Y721716D01*
X769092Y719767D01*
X769092Y715869D01*
X767143Y713920D01*
X767143Y725614D02*
X759347Y725614D01*
X757398Y727563D01*
X757398Y731461D01*
X759347Y733410D01*
X767143Y733410D01*
X769092Y731461D01*
X769092Y727563D01*
X767143Y725614D01*
X759347Y733410D01*
D11*
X812800Y733400D02*
X834800Y733400D01*
X834800Y694400D01*
X830800Y689400D01*
X816800Y689400D01*
X812800Y695400D01*
X812800Y733400D01*
X813800Y711400D02*
X834800Y711400D01*
D12*
X847398Y678838D02*
X859092Y678838D01*
X847398Y678838D02*
X847398Y684685D01*
X849347Y686634D01*
X853245Y686634D01*
X855194Y684685D01*
X855194Y678838D01*
X859092Y690532D02*
X847398Y690532D01*
X853245Y690532D02*
X853245Y698328D01*
X847398Y698328D02*
X859092Y698328D01*
X859092Y702226D02*
X847398Y702226D01*
X859092Y702226D02*
X859092Y708073D01*
X857143Y710022D01*
X849347Y710022D01*
X847398Y708073D01*
X847398Y702226D01*
X847398Y713920D02*
X847398Y721716D01*
X847398Y713920D02*
X853245Y713920D01*
X851296Y717818D01*
X851296Y719767D01*
X853245Y721716D01*
X857143Y721716D01*
X859092Y719767D01*
X859092Y715869D01*
X857143Y713920D01*
X849347Y725614D02*
X847398Y727563D01*
X847398Y731461D01*
X849347Y733410D01*
X851296Y733410D01*
X853245Y731461D01*
X855194Y733410D01*
X857143Y733410D01*
X859092Y731461D01*
X859092Y727563D01*
X857143Y725614D01*
X855194Y725614D01*
X853245Y727563D01*
X851296Y725614D01*
X849347Y725614D01*
X853245Y727563D02*
X853245Y731461D01*
D11*
X902800Y733400D02*
X924800Y733400D01*
X924800Y694400D01*
X920800Y689400D01*
X906800Y689400D01*
X902800Y695400D01*
X902800Y733400D01*
X903800Y711400D02*
X924800Y711400D01*
D12*
X937398Y678838D02*
X949092Y678838D01*
X937398Y678838D02*
X937398Y684685D01*
X939347Y686634D01*
X943245Y686634D01*
X945194Y684685D01*
X945194Y678838D01*
X949092Y690532D02*
X937398Y690532D01*
X943245Y690532D02*
X943245Y698328D01*
X937398Y698328D02*
X949092Y698328D01*
X949092Y702226D02*
X937398Y702226D01*
X949092Y702226D02*
X949092Y708073D01*
X947143Y710022D01*
X939347Y710022D01*
X937398Y708073D01*
X937398Y702226D01*
X939347Y717818D02*
X937398Y721716D01*
X939347Y717818D02*
X943245Y713920D01*
X947143Y713920D01*
X949092Y715869D01*
X949092Y719767D01*
X947143Y721716D01*
X945194Y721716D01*
X943245Y719767D01*
X943245Y713920D01*
X939347Y729512D02*
X937398Y733410D01*
X939347Y729512D02*
X943245Y725614D01*
X947143Y725614D01*
X949092Y727563D01*
X949092Y731461D01*
X947143Y733410D01*
X945194Y733410D01*
X943245Y731461D01*
X943245Y725614D01*
D11*
X992800Y733400D02*
X1014800Y733400D01*
X1014800Y694400D01*
X1010800Y689400D01*
X996800Y689400D01*
X992800Y695400D01*
X992800Y733400D01*
X993800Y711400D02*
X1014800Y711400D01*
D12*
X1027398Y678838D02*
X1039092Y678838D01*
X1027398Y678838D02*
X1027398Y684685D01*
X1029347Y686634D01*
X1033245Y686634D01*
X1035194Y684685D01*
X1035194Y678838D01*
X1039092Y690532D02*
X1027398Y690532D01*
X1033245Y690532D02*
X1033245Y698328D01*
X1027398Y698328D02*
X1039092Y698328D01*
X1039092Y702226D02*
X1027398Y702226D01*
X1039092Y702226D02*
X1039092Y708073D01*
X1037143Y710022D01*
X1029347Y710022D01*
X1027398Y708073D01*
X1027398Y702226D01*
X1027398Y713920D02*
X1027398Y721716D01*
X1029347Y721716D01*
X1037143Y713920D01*
X1039092Y713920D01*
X1039092Y731461D02*
X1027398Y731461D01*
X1033245Y725614D01*
X1033245Y733410D01*
D11*
X1082800Y733400D02*
X1104800Y733400D01*
X1104800Y694400D01*
X1100800Y689400D01*
X1086800Y689400D01*
X1082800Y695400D01*
X1082800Y733400D01*
X1083800Y711400D02*
X1104800Y711400D01*
D12*
X1117398Y678838D02*
X1129092Y678838D01*
X1117398Y678838D02*
X1117398Y684685D01*
X1119347Y686634D01*
X1123245Y686634D01*
X1125194Y684685D01*
X1125194Y678838D01*
X1129092Y690532D02*
X1117398Y690532D01*
X1123245Y690532D02*
X1123245Y698328D01*
X1117398Y698328D02*
X1129092Y698328D01*
X1129092Y702226D02*
X1117398Y702226D01*
X1129092Y702226D02*
X1129092Y708073D01*
X1127143Y710022D01*
X1119347Y710022D01*
X1117398Y708073D01*
X1117398Y702226D01*
X1119347Y713920D02*
X1117398Y715869D01*
X1117398Y719767D01*
X1119347Y721716D01*
X1121296Y721716D01*
X1123245Y719767D01*
X1125194Y721716D01*
X1127143Y721716D01*
X1129092Y719767D01*
X1129092Y715869D01*
X1127143Y713920D01*
X1125194Y713920D01*
X1123245Y715869D01*
X1121296Y713920D01*
X1119347Y713920D01*
X1123245Y715869D02*
X1123245Y719767D01*
X1129092Y725614D02*
X1129092Y733410D01*
X1129092Y725614D02*
X1121296Y733410D01*
X1119347Y733410D01*
X1117398Y731461D01*
X1117398Y727563D01*
X1119347Y725614D01*
D11*
X1172800Y733400D02*
X1194800Y733400D01*
X1194800Y694400D01*
X1190800Y689400D01*
X1176800Y689400D01*
X1172800Y695400D01*
X1172800Y733400D01*
X1173800Y711400D02*
X1194800Y711400D01*
D12*
X1207398Y678838D02*
X1219092Y678838D01*
X1207398Y678838D02*
X1207398Y684685D01*
X1209347Y686634D01*
X1213245Y686634D01*
X1215194Y684685D01*
X1215194Y678838D01*
X1219092Y690532D02*
X1207398Y690532D01*
X1213245Y690532D02*
X1213245Y698328D01*
X1207398Y698328D02*
X1219092Y698328D01*
X1219092Y702226D02*
X1207398Y702226D01*
X1219092Y702226D02*
X1219092Y708073D01*
X1217143Y710022D01*
X1209347Y710022D01*
X1207398Y708073D01*
X1207398Y702226D01*
X1217143Y713920D02*
X1219092Y715869D01*
X1219092Y719767D01*
X1217143Y721716D01*
X1209347Y721716D01*
X1207398Y719767D01*
X1207398Y715869D01*
X1209347Y713920D01*
X1211296Y713920D01*
X1213245Y715869D01*
X1213245Y721716D01*
X1217143Y725614D02*
X1209347Y725614D01*
X1207398Y727563D01*
X1207398Y731461D01*
X1209347Y733410D01*
X1217143Y733410D01*
X1219092Y731461D01*
X1219092Y727563D01*
X1217143Y725614D01*
X1209347Y733410D01*
D11*
X204800Y643400D02*
X182800Y643400D01*
X204800Y643400D02*
X204800Y604400D01*
X200800Y599400D01*
X186800Y599400D01*
X182800Y605400D01*
X182800Y643400D01*
X183800Y621400D02*
X204800Y621400D01*
D12*
X217398Y600532D02*
X229092Y600532D01*
X217398Y600532D02*
X217398Y606379D01*
X219347Y608328D01*
X223245Y608328D01*
X225194Y606379D01*
X225194Y600532D01*
X229092Y612226D02*
X217398Y612226D01*
X223245Y612226D02*
X223245Y620022D01*
X217398Y620022D02*
X229092Y620022D01*
X229092Y623920D02*
X217398Y623920D01*
X229092Y623920D02*
X229092Y629767D01*
X227143Y631716D01*
X219347Y631716D01*
X217398Y629767D01*
X217398Y623920D01*
X219347Y635614D02*
X217398Y637563D01*
X217398Y641461D01*
X219347Y643410D01*
X221296Y643410D01*
X223245Y641461D01*
X223245Y639512D01*
X223245Y641461D02*
X225194Y643410D01*
X227143Y643410D01*
X229092Y641461D01*
X229092Y637563D01*
X227143Y635614D01*
D11*
X272800Y643400D02*
X294800Y643400D01*
X294800Y604400D01*
X290800Y599400D01*
X276800Y599400D01*
X272800Y605400D01*
X272800Y643400D01*
X273800Y621400D02*
X294800Y621400D01*
D12*
X307398Y588838D02*
X319092Y588838D01*
X307398Y588838D02*
X307398Y594685D01*
X309347Y596634D01*
X313245Y596634D01*
X315194Y594685D01*
X315194Y588838D01*
X319092Y600532D02*
X307398Y600532D01*
X313245Y600532D02*
X313245Y608328D01*
X307398Y608328D02*
X319092Y608328D01*
X319092Y612226D02*
X307398Y612226D01*
X319092Y612226D02*
X319092Y618073D01*
X317143Y620022D01*
X309347Y620022D01*
X307398Y618073D01*
X307398Y612226D01*
X311296Y623920D02*
X307398Y627818D01*
X319092Y627818D01*
X319092Y623920D02*
X319092Y631716D01*
X311296Y635614D02*
X307398Y639512D01*
X319092Y639512D01*
X319092Y635614D02*
X319092Y643410D01*
D11*
X362800Y643400D02*
X384800Y643400D01*
X384800Y604400D01*
X380800Y599400D01*
X366800Y599400D01*
X362800Y605400D01*
X362800Y643400D01*
X363800Y621400D02*
X384800Y621400D01*
D12*
X397398Y588838D02*
X409092Y588838D01*
X397398Y588838D02*
X397398Y594685D01*
X399347Y596634D01*
X403245Y596634D01*
X405194Y594685D01*
X405194Y588838D01*
X409092Y600532D02*
X397398Y600532D01*
X403245Y600532D02*
X403245Y608328D01*
X397398Y608328D02*
X409092Y608328D01*
X409092Y612226D02*
X397398Y612226D01*
X409092Y612226D02*
X409092Y618073D01*
X407143Y620022D01*
X399347Y620022D01*
X397398Y618073D01*
X397398Y612226D01*
X401296Y623920D02*
X397398Y627818D01*
X409092Y627818D01*
X409092Y623920D02*
X409092Y631716D01*
X407143Y635614D02*
X409092Y637563D01*
X409092Y641461D01*
X407143Y643410D01*
X399347Y643410D01*
X397398Y641461D01*
X397398Y637563D01*
X399347Y635614D01*
X401296Y635614D01*
X403245Y637563D01*
X403245Y643410D01*
D11*
X452800Y643400D02*
X474800Y643400D01*
X474800Y604400D01*
X470800Y599400D01*
X456800Y599400D01*
X452800Y605400D01*
X452800Y643400D01*
X453800Y621400D02*
X474800Y621400D01*
D12*
X487398Y588838D02*
X499092Y588838D01*
X487398Y588838D02*
X487398Y594685D01*
X489347Y596634D01*
X493245Y596634D01*
X495194Y594685D01*
X495194Y588838D01*
X499092Y600532D02*
X487398Y600532D01*
X493245Y600532D02*
X493245Y608328D01*
X487398Y608328D02*
X499092Y608328D01*
X499092Y612226D02*
X487398Y612226D01*
X499092Y612226D02*
X499092Y618073D01*
X497143Y620022D01*
X489347Y620022D01*
X487398Y618073D01*
X487398Y612226D01*
X499092Y623920D02*
X499092Y631716D01*
X499092Y623920D02*
X491296Y631716D01*
X489347Y631716D01*
X487398Y629767D01*
X487398Y625869D01*
X489347Y623920D01*
X487398Y635614D02*
X487398Y643410D01*
X489347Y643410D01*
X497143Y635614D01*
X499092Y635614D01*
D11*
X542800Y643400D02*
X564800Y643400D01*
X564800Y604400D01*
X560800Y599400D01*
X546800Y599400D01*
X542800Y605400D01*
X542800Y643400D01*
X543800Y621400D02*
X564800Y621400D01*
D12*
X577398Y588838D02*
X589092Y588838D01*
X577398Y588838D02*
X577398Y594685D01*
X579347Y596634D01*
X583245Y596634D01*
X585194Y594685D01*
X585194Y588838D01*
X589092Y600532D02*
X577398Y600532D01*
X583245Y600532D02*
X583245Y608328D01*
X577398Y608328D02*
X589092Y608328D01*
X589092Y612226D02*
X577398Y612226D01*
X589092Y612226D02*
X589092Y618073D01*
X587143Y620022D01*
X579347Y620022D01*
X577398Y618073D01*
X577398Y612226D01*
X579347Y623920D02*
X577398Y625869D01*
X577398Y629767D01*
X579347Y631716D01*
X581296Y631716D01*
X583245Y629767D01*
X583245Y627818D01*
X583245Y629767D02*
X585194Y631716D01*
X587143Y631716D01*
X589092Y629767D01*
X589092Y625869D01*
X587143Y623920D01*
X577398Y635614D02*
X577398Y643410D01*
X577398Y635614D02*
X583245Y635614D01*
X581296Y639512D01*
X581296Y641461D01*
X583245Y643410D01*
X587143Y643410D01*
X589092Y641461D01*
X589092Y637563D01*
X587143Y635614D01*
D11*
X632800Y643400D02*
X654800Y643400D01*
X654800Y604400D01*
X650800Y599400D01*
X636800Y599400D01*
X632800Y605400D01*
X632800Y643400D01*
X633800Y621400D02*
X654800Y621400D01*
D12*
X667398Y588838D02*
X679092Y588838D01*
X667398Y588838D02*
X667398Y594685D01*
X669347Y596634D01*
X673245Y596634D01*
X675194Y594685D01*
X675194Y588838D01*
X679092Y600532D02*
X667398Y600532D01*
X673245Y600532D02*
X673245Y608328D01*
X667398Y608328D02*
X679092Y608328D01*
X679092Y612226D02*
X667398Y612226D01*
X679092Y612226D02*
X679092Y618073D01*
X677143Y620022D01*
X669347Y620022D01*
X667398Y618073D01*
X667398Y612226D01*
X667398Y629767D02*
X679092Y629767D01*
X673245Y623920D02*
X667398Y629767D01*
X673245Y631716D02*
X673245Y623920D01*
X669347Y635614D02*
X667398Y637563D01*
X667398Y641461D01*
X669347Y643410D01*
X671296Y643410D01*
X673245Y641461D01*
X673245Y639512D01*
X673245Y641461D02*
X675194Y643410D01*
X677143Y643410D01*
X679092Y641461D01*
X679092Y637563D01*
X677143Y635614D01*
D11*
X722800Y643400D02*
X744800Y643400D01*
X744800Y604400D01*
X740800Y599400D01*
X726800Y599400D01*
X722800Y605400D01*
X722800Y643400D01*
X723800Y621400D02*
X744800Y621400D01*
D12*
X757398Y588838D02*
X769092Y588838D01*
X757398Y588838D02*
X757398Y594685D01*
X759347Y596634D01*
X763245Y596634D01*
X765194Y594685D01*
X765194Y588838D01*
X769092Y600532D02*
X757398Y600532D01*
X763245Y600532D02*
X763245Y608328D01*
X757398Y608328D02*
X769092Y608328D01*
X769092Y612226D02*
X757398Y612226D01*
X769092Y612226D02*
X769092Y618073D01*
X767143Y620022D01*
X759347Y620022D01*
X757398Y618073D01*
X757398Y612226D01*
X757398Y623920D02*
X757398Y631716D01*
X757398Y623920D02*
X763245Y623920D01*
X761296Y627818D01*
X761296Y629767D01*
X763245Y631716D01*
X767143Y631716D01*
X769092Y629767D01*
X769092Y625869D01*
X767143Y623920D01*
X761296Y635614D02*
X757398Y639512D01*
X769092Y639512D01*
X769092Y635614D02*
X769092Y643410D01*
D11*
X812800Y643400D02*
X834800Y643400D01*
X834800Y604400D01*
X830800Y599400D01*
X816800Y599400D01*
X812800Y605400D01*
X812800Y643400D01*
X813800Y621400D02*
X834800Y621400D01*
D12*
X847398Y588838D02*
X859092Y588838D01*
X847398Y588838D02*
X847398Y594685D01*
X849347Y596634D01*
X853245Y596634D01*
X855194Y594685D01*
X855194Y588838D01*
X859092Y600532D02*
X847398Y600532D01*
X853245Y600532D02*
X853245Y608328D01*
X847398Y608328D02*
X859092Y608328D01*
X859092Y612226D02*
X847398Y612226D01*
X859092Y612226D02*
X859092Y618073D01*
X857143Y620022D01*
X849347Y620022D01*
X847398Y618073D01*
X847398Y612226D01*
X847398Y623920D02*
X847398Y631716D01*
X847398Y623920D02*
X853245Y623920D01*
X851296Y627818D01*
X851296Y629767D01*
X853245Y631716D01*
X857143Y631716D01*
X859092Y629767D01*
X859092Y625869D01*
X857143Y623920D01*
X857143Y635614D02*
X859092Y637563D01*
X859092Y641461D01*
X857143Y643410D01*
X849347Y643410D01*
X847398Y641461D01*
X847398Y637563D01*
X849347Y635614D01*
X851296Y635614D01*
X853245Y637563D01*
X853245Y643410D01*
D11*
X902800Y643400D02*
X924800Y643400D01*
X924800Y604400D01*
X920800Y599400D01*
X906800Y599400D01*
X902800Y605400D01*
X902800Y643400D01*
X903800Y621400D02*
X924800Y621400D01*
D12*
X937398Y588838D02*
X949092Y588838D01*
X937398Y588838D02*
X937398Y594685D01*
X939347Y596634D01*
X943245Y596634D01*
X945194Y594685D01*
X945194Y588838D01*
X949092Y600532D02*
X937398Y600532D01*
X943245Y600532D02*
X943245Y608328D01*
X937398Y608328D02*
X949092Y608328D01*
X949092Y612226D02*
X937398Y612226D01*
X949092Y612226D02*
X949092Y618073D01*
X947143Y620022D01*
X939347Y620022D01*
X937398Y618073D01*
X937398Y612226D01*
X939347Y627818D02*
X937398Y631716D01*
X939347Y627818D02*
X943245Y623920D01*
X947143Y623920D01*
X949092Y625869D01*
X949092Y629767D01*
X947143Y631716D01*
X945194Y631716D01*
X943245Y629767D01*
X943245Y623920D01*
X937398Y635614D02*
X937398Y643410D01*
X939347Y643410D01*
X947143Y635614D01*
X949092Y635614D01*
D11*
X992800Y643400D02*
X1014800Y643400D01*
X1014800Y604400D01*
X1010800Y599400D01*
X996800Y599400D01*
X992800Y605400D01*
X992800Y643400D01*
X993800Y621400D02*
X1014800Y621400D01*
D12*
X1027398Y588838D02*
X1039092Y588838D01*
X1027398Y588838D02*
X1027398Y594685D01*
X1029347Y596634D01*
X1033245Y596634D01*
X1035194Y594685D01*
X1035194Y588838D01*
X1039092Y600532D02*
X1027398Y600532D01*
X1033245Y600532D02*
X1033245Y608328D01*
X1027398Y608328D02*
X1039092Y608328D01*
X1039092Y612226D02*
X1027398Y612226D01*
X1039092Y612226D02*
X1039092Y618073D01*
X1037143Y620022D01*
X1029347Y620022D01*
X1027398Y618073D01*
X1027398Y612226D01*
X1027398Y623920D02*
X1027398Y631716D01*
X1029347Y631716D01*
X1037143Y623920D01*
X1039092Y623920D01*
X1027398Y635614D02*
X1027398Y643410D01*
X1027398Y635614D02*
X1033245Y635614D01*
X1031296Y639512D01*
X1031296Y641461D01*
X1033245Y643410D01*
X1037143Y643410D01*
X1039092Y641461D01*
X1039092Y637563D01*
X1037143Y635614D01*
D11*
X1082800Y643400D02*
X1104800Y643400D01*
X1104800Y604400D01*
X1100800Y599400D01*
X1086800Y599400D01*
X1082800Y605400D01*
X1082800Y643400D01*
X1083800Y621400D02*
X1104800Y621400D01*
D12*
X1117398Y588838D02*
X1129092Y588838D01*
X1117398Y588838D02*
X1117398Y594685D01*
X1119347Y596634D01*
X1123245Y596634D01*
X1125194Y594685D01*
X1125194Y588838D01*
X1129092Y600532D02*
X1117398Y600532D01*
X1123245Y600532D02*
X1123245Y608328D01*
X1117398Y608328D02*
X1129092Y608328D01*
X1129092Y612226D02*
X1117398Y612226D01*
X1129092Y612226D02*
X1129092Y618073D01*
X1127143Y620022D01*
X1119347Y620022D01*
X1117398Y618073D01*
X1117398Y612226D01*
X1119347Y623920D02*
X1117398Y625869D01*
X1117398Y629767D01*
X1119347Y631716D01*
X1121296Y631716D01*
X1123245Y629767D01*
X1125194Y631716D01*
X1127143Y631716D01*
X1129092Y629767D01*
X1129092Y625869D01*
X1127143Y623920D01*
X1125194Y623920D01*
X1123245Y625869D01*
X1121296Y623920D01*
X1119347Y623920D01*
X1123245Y625869D02*
X1123245Y629767D01*
X1119347Y635614D02*
X1117398Y637563D01*
X1117398Y641461D01*
X1119347Y643410D01*
X1121296Y643410D01*
X1123245Y641461D01*
X1123245Y639512D01*
X1123245Y641461D02*
X1125194Y643410D01*
X1127143Y643410D01*
X1129092Y641461D01*
X1129092Y637563D01*
X1127143Y635614D01*
D11*
X1172800Y643400D02*
X1194800Y643400D01*
X1194800Y604400D01*
X1190800Y599400D01*
X1176800Y599400D01*
X1172800Y605400D01*
X1172800Y643400D01*
X1173800Y621400D02*
X1194800Y621400D01*
D12*
X1207398Y588838D02*
X1219092Y588838D01*
X1207398Y588838D02*
X1207398Y594685D01*
X1209347Y596634D01*
X1213245Y596634D01*
X1215194Y594685D01*
X1215194Y588838D01*
X1219092Y600532D02*
X1207398Y600532D01*
X1213245Y600532D02*
X1213245Y608328D01*
X1207398Y608328D02*
X1219092Y608328D01*
X1219092Y612226D02*
X1207398Y612226D01*
X1219092Y612226D02*
X1219092Y618073D01*
X1217143Y620022D01*
X1209347Y620022D01*
X1207398Y618073D01*
X1207398Y612226D01*
X1217143Y623920D02*
X1219092Y625869D01*
X1219092Y629767D01*
X1217143Y631716D01*
X1209347Y631716D01*
X1207398Y629767D01*
X1207398Y625869D01*
X1209347Y623920D01*
X1211296Y623920D01*
X1213245Y625869D01*
X1213245Y631716D01*
X1211296Y635614D02*
X1207398Y639512D01*
X1219092Y639512D01*
X1219092Y635614D02*
X1219092Y643410D01*
D11*
X204800Y553400D02*
X182800Y553400D01*
X204800Y553400D02*
X204800Y514400D01*
X200800Y509400D01*
X186800Y509400D01*
X182800Y515400D01*
X182800Y553400D01*
X183800Y531400D02*
X204800Y531400D01*
D12*
X217398Y510532D02*
X229092Y510532D01*
X217398Y510532D02*
X217398Y516379D01*
X219347Y518328D01*
X223245Y518328D01*
X225194Y516379D01*
X225194Y510532D01*
X229092Y522226D02*
X217398Y522226D01*
X223245Y522226D02*
X223245Y530022D01*
X217398Y530022D02*
X229092Y530022D01*
X229092Y533920D02*
X217398Y533920D01*
X229092Y533920D02*
X229092Y539767D01*
X227143Y541716D01*
X219347Y541716D01*
X217398Y539767D01*
X217398Y533920D01*
X217398Y551461D02*
X229092Y551461D01*
X223245Y545614D02*
X217398Y551461D01*
X223245Y553410D02*
X223245Y545614D01*
D11*
X272800Y553400D02*
X294800Y553400D01*
X294800Y514400D01*
X290800Y509400D01*
X276800Y509400D01*
X272800Y515400D01*
X272800Y553400D01*
X273800Y531400D02*
X294800Y531400D01*
D12*
X307398Y498838D02*
X319092Y498838D01*
X307398Y498838D02*
X307398Y504685D01*
X309347Y506634D01*
X313245Y506634D01*
X315194Y504685D01*
X315194Y498838D01*
X319092Y510532D02*
X307398Y510532D01*
X313245Y510532D02*
X313245Y518328D01*
X307398Y518328D02*
X319092Y518328D01*
X319092Y522226D02*
X307398Y522226D01*
X319092Y522226D02*
X319092Y528073D01*
X317143Y530022D01*
X309347Y530022D01*
X307398Y528073D01*
X307398Y522226D01*
X311296Y533920D02*
X307398Y537818D01*
X319092Y537818D01*
X319092Y533920D02*
X319092Y541716D01*
X319092Y545614D02*
X319092Y553410D01*
X319092Y545614D02*
X311296Y553410D01*
X309347Y553410D01*
X307398Y551461D01*
X307398Y547563D01*
X309347Y545614D01*
D11*
X362800Y553400D02*
X384800Y553400D01*
X384800Y514400D01*
X380800Y509400D01*
X366800Y509400D01*
X362800Y515400D01*
X362800Y553400D01*
X363800Y531400D02*
X384800Y531400D01*
D12*
X397398Y498838D02*
X409092Y498838D01*
X397398Y498838D02*
X397398Y504685D01*
X399347Y506634D01*
X403245Y506634D01*
X405194Y504685D01*
X405194Y498838D01*
X409092Y510532D02*
X397398Y510532D01*
X403245Y510532D02*
X403245Y518328D01*
X397398Y518328D02*
X409092Y518328D01*
X409092Y522226D02*
X397398Y522226D01*
X409092Y522226D02*
X409092Y528073D01*
X407143Y530022D01*
X399347Y530022D01*
X397398Y528073D01*
X397398Y522226D01*
X409092Y533920D02*
X409092Y541716D01*
X409092Y533920D02*
X401296Y541716D01*
X399347Y541716D01*
X397398Y539767D01*
X397398Y535869D01*
X399347Y533920D01*
X399347Y545614D02*
X407143Y545614D01*
X399347Y545614D02*
X397398Y547563D01*
X397398Y551461D01*
X399347Y553410D01*
X407143Y553410D01*
X409092Y551461D01*
X409092Y547563D01*
X407143Y545614D01*
X399347Y553410D01*
D11*
X452800Y553400D02*
X474800Y553400D01*
X474800Y514400D01*
X470800Y509400D01*
X456800Y509400D01*
X452800Y515400D01*
X452800Y553400D01*
X453800Y531400D02*
X474800Y531400D01*
D12*
X487398Y498838D02*
X499092Y498838D01*
X487398Y498838D02*
X487398Y504685D01*
X489347Y506634D01*
X493245Y506634D01*
X495194Y504685D01*
X495194Y498838D01*
X499092Y510532D02*
X487398Y510532D01*
X493245Y510532D02*
X493245Y518328D01*
X487398Y518328D02*
X499092Y518328D01*
X499092Y522226D02*
X487398Y522226D01*
X499092Y522226D02*
X499092Y528073D01*
X497143Y530022D01*
X489347Y530022D01*
X487398Y528073D01*
X487398Y522226D01*
X499092Y533920D02*
X499092Y541716D01*
X499092Y533920D02*
X491296Y541716D01*
X489347Y541716D01*
X487398Y539767D01*
X487398Y535869D01*
X489347Y533920D01*
X489347Y545614D02*
X487398Y547563D01*
X487398Y551461D01*
X489347Y553410D01*
X491296Y553410D01*
X493245Y551461D01*
X495194Y553410D01*
X497143Y553410D01*
X499092Y551461D01*
X499092Y547563D01*
X497143Y545614D01*
X495194Y545614D01*
X493245Y547563D01*
X491296Y545614D01*
X489347Y545614D01*
X493245Y547563D02*
X493245Y551461D01*
D11*
X542800Y553400D02*
X564800Y553400D01*
X564800Y514400D01*
X560800Y509400D01*
X546800Y509400D01*
X542800Y515400D01*
X542800Y553400D01*
X543800Y531400D02*
X564800Y531400D01*
D12*
X577398Y498838D02*
X589092Y498838D01*
X577398Y498838D02*
X577398Y504685D01*
X579347Y506634D01*
X583245Y506634D01*
X585194Y504685D01*
X585194Y498838D01*
X589092Y510532D02*
X577398Y510532D01*
X583245Y510532D02*
X583245Y518328D01*
X577398Y518328D02*
X589092Y518328D01*
X589092Y522226D02*
X577398Y522226D01*
X589092Y522226D02*
X589092Y528073D01*
X587143Y530022D01*
X579347Y530022D01*
X577398Y528073D01*
X577398Y522226D01*
X579347Y533920D02*
X577398Y535869D01*
X577398Y539767D01*
X579347Y541716D01*
X581296Y541716D01*
X583245Y539767D01*
X583245Y537818D01*
X583245Y539767D02*
X585194Y541716D01*
X587143Y541716D01*
X589092Y539767D01*
X589092Y535869D01*
X587143Y533920D01*
X579347Y549512D02*
X577398Y553410D01*
X579347Y549512D02*
X583245Y545614D01*
X587143Y545614D01*
X589092Y547563D01*
X589092Y551461D01*
X587143Y553410D01*
X585194Y553410D01*
X583245Y551461D01*
X583245Y545614D01*
D11*
X632800Y553400D02*
X654800Y553400D01*
X654800Y514400D01*
X650800Y509400D01*
X636800Y509400D01*
X632800Y515400D01*
X632800Y553400D01*
X633800Y531400D02*
X654800Y531400D01*
D12*
X667398Y498838D02*
X679092Y498838D01*
X667398Y498838D02*
X667398Y504685D01*
X669347Y506634D01*
X673245Y506634D01*
X675194Y504685D01*
X675194Y498838D01*
X679092Y510532D02*
X667398Y510532D01*
X673245Y510532D02*
X673245Y518328D01*
X667398Y518328D02*
X679092Y518328D01*
X679092Y522226D02*
X667398Y522226D01*
X679092Y522226D02*
X679092Y528073D01*
X677143Y530022D01*
X669347Y530022D01*
X667398Y528073D01*
X667398Y522226D01*
X667398Y539767D02*
X679092Y539767D01*
X673245Y533920D02*
X667398Y539767D01*
X673245Y541716D02*
X673245Y533920D01*
X679092Y551461D02*
X667398Y551461D01*
X673245Y545614D01*
X673245Y553410D01*
D11*
X722800Y553400D02*
X744800Y553400D01*
X744800Y514400D01*
X740800Y509400D01*
X726800Y509400D01*
X722800Y515400D01*
X722800Y553400D01*
X723800Y531400D02*
X744800Y531400D01*
D12*
X757398Y498838D02*
X769092Y498838D01*
X757398Y498838D02*
X757398Y504685D01*
X759347Y506634D01*
X763245Y506634D01*
X765194Y504685D01*
X765194Y498838D01*
X769092Y510532D02*
X757398Y510532D01*
X763245Y510532D02*
X763245Y518328D01*
X757398Y518328D02*
X769092Y518328D01*
X769092Y522226D02*
X757398Y522226D01*
X769092Y522226D02*
X769092Y528073D01*
X767143Y530022D01*
X759347Y530022D01*
X757398Y528073D01*
X757398Y522226D01*
X757398Y533920D02*
X757398Y541716D01*
X757398Y533920D02*
X763245Y533920D01*
X761296Y537818D01*
X761296Y539767D01*
X763245Y541716D01*
X767143Y541716D01*
X769092Y539767D01*
X769092Y535869D01*
X767143Y533920D01*
X769092Y545614D02*
X769092Y553410D01*
X769092Y545614D02*
X761296Y553410D01*
X759347Y553410D01*
X757398Y551461D01*
X757398Y547563D01*
X759347Y545614D01*
D11*
X812800Y553400D02*
X834800Y553400D01*
X834800Y514400D01*
X830800Y509400D01*
X816800Y509400D01*
X812800Y515400D01*
X812800Y553400D01*
X813800Y531400D02*
X834800Y531400D01*
D12*
X847398Y498838D02*
X859092Y498838D01*
X847398Y498838D02*
X847398Y504685D01*
X849347Y506634D01*
X853245Y506634D01*
X855194Y504685D01*
X855194Y498838D01*
X859092Y510532D02*
X847398Y510532D01*
X853245Y510532D02*
X853245Y518328D01*
X847398Y518328D02*
X859092Y518328D01*
X859092Y522226D02*
X847398Y522226D01*
X859092Y522226D02*
X859092Y528073D01*
X857143Y530022D01*
X849347Y530022D01*
X847398Y528073D01*
X847398Y522226D01*
X849347Y537818D02*
X847398Y541716D01*
X849347Y537818D02*
X853245Y533920D01*
X857143Y533920D01*
X859092Y535869D01*
X859092Y539767D01*
X857143Y541716D01*
X855194Y541716D01*
X853245Y539767D01*
X853245Y533920D01*
X857143Y545614D02*
X849347Y545614D01*
X847398Y547563D01*
X847398Y551461D01*
X849347Y553410D01*
X857143Y553410D01*
X859092Y551461D01*
X859092Y547563D01*
X857143Y545614D01*
X849347Y553410D01*
D11*
X902800Y553400D02*
X924800Y553400D01*
X924800Y514400D01*
X920800Y509400D01*
X906800Y509400D01*
X902800Y515400D01*
X902800Y553400D01*
X903800Y531400D02*
X924800Y531400D01*
D12*
X937398Y498838D02*
X949092Y498838D01*
X937398Y498838D02*
X937398Y504685D01*
X939347Y506634D01*
X943245Y506634D01*
X945194Y504685D01*
X945194Y498838D01*
X949092Y510532D02*
X937398Y510532D01*
X943245Y510532D02*
X943245Y518328D01*
X937398Y518328D02*
X949092Y518328D01*
X949092Y522226D02*
X937398Y522226D01*
X949092Y522226D02*
X949092Y528073D01*
X947143Y530022D01*
X939347Y530022D01*
X937398Y528073D01*
X937398Y522226D01*
X939347Y537818D02*
X937398Y541716D01*
X939347Y537818D02*
X943245Y533920D01*
X947143Y533920D01*
X949092Y535869D01*
X949092Y539767D01*
X947143Y541716D01*
X945194Y541716D01*
X943245Y539767D01*
X943245Y533920D01*
X939347Y545614D02*
X937398Y547563D01*
X937398Y551461D01*
X939347Y553410D01*
X941296Y553410D01*
X943245Y551461D01*
X945194Y553410D01*
X947143Y553410D01*
X949092Y551461D01*
X949092Y547563D01*
X947143Y545614D01*
X945194Y545614D01*
X943245Y547563D01*
X941296Y545614D01*
X939347Y545614D01*
X943245Y547563D02*
X943245Y551461D01*
D11*
X992800Y553400D02*
X1014800Y553400D01*
X1014800Y514400D01*
X1010800Y509400D01*
X996800Y509400D01*
X992800Y515400D01*
X992800Y553400D01*
X993800Y531400D02*
X1014800Y531400D01*
D12*
X1027398Y498838D02*
X1039092Y498838D01*
X1027398Y498838D02*
X1027398Y504685D01*
X1029347Y506634D01*
X1033245Y506634D01*
X1035194Y504685D01*
X1035194Y498838D01*
X1039092Y510532D02*
X1027398Y510532D01*
X1033245Y510532D02*
X1033245Y518328D01*
X1027398Y518328D02*
X1039092Y518328D01*
X1039092Y522226D02*
X1027398Y522226D01*
X1039092Y522226D02*
X1039092Y528073D01*
X1037143Y530022D01*
X1029347Y530022D01*
X1027398Y528073D01*
X1027398Y522226D01*
X1027398Y533920D02*
X1027398Y541716D01*
X1029347Y541716D01*
X1037143Y533920D01*
X1039092Y533920D01*
X1029347Y549512D02*
X1027398Y553410D01*
X1029347Y549512D02*
X1033245Y545614D01*
X1037143Y545614D01*
X1039092Y547563D01*
X1039092Y551461D01*
X1037143Y553410D01*
X1035194Y553410D01*
X1033245Y551461D01*
X1033245Y545614D01*
D11*
X1082800Y553400D02*
X1104800Y553400D01*
X1104800Y514400D01*
X1100800Y509400D01*
X1086800Y509400D01*
X1082800Y515400D01*
X1082800Y553400D01*
X1083800Y531400D02*
X1104800Y531400D01*
D12*
X1117398Y498838D02*
X1129092Y498838D01*
X1117398Y498838D02*
X1117398Y504685D01*
X1119347Y506634D01*
X1123245Y506634D01*
X1125194Y504685D01*
X1125194Y498838D01*
X1129092Y510532D02*
X1117398Y510532D01*
X1123245Y510532D02*
X1123245Y518328D01*
X1117398Y518328D02*
X1129092Y518328D01*
X1129092Y522226D02*
X1117398Y522226D01*
X1129092Y522226D02*
X1129092Y528073D01*
X1127143Y530022D01*
X1119347Y530022D01*
X1117398Y528073D01*
X1117398Y522226D01*
X1119347Y533920D02*
X1117398Y535869D01*
X1117398Y539767D01*
X1119347Y541716D01*
X1121296Y541716D01*
X1123245Y539767D01*
X1125194Y541716D01*
X1127143Y541716D01*
X1129092Y539767D01*
X1129092Y535869D01*
X1127143Y533920D01*
X1125194Y533920D01*
X1123245Y535869D01*
X1121296Y533920D01*
X1119347Y533920D01*
X1123245Y535869D02*
X1123245Y539767D01*
X1129092Y551461D02*
X1117398Y551461D01*
X1123245Y545614D01*
X1123245Y553410D01*
D11*
X1172800Y553400D02*
X1194800Y553400D01*
X1194800Y514400D01*
X1190800Y509400D01*
X1176800Y509400D01*
X1172800Y515400D01*
X1172800Y553400D01*
X1173800Y531400D02*
X1194800Y531400D01*
D12*
X1207398Y498838D02*
X1219092Y498838D01*
X1207398Y498838D02*
X1207398Y504685D01*
X1209347Y506634D01*
X1213245Y506634D01*
X1215194Y504685D01*
X1215194Y498838D01*
X1219092Y510532D02*
X1207398Y510532D01*
X1213245Y510532D02*
X1213245Y518328D01*
X1207398Y518328D02*
X1219092Y518328D01*
X1219092Y522226D02*
X1207398Y522226D01*
X1219092Y522226D02*
X1219092Y528073D01*
X1217143Y530022D01*
X1209347Y530022D01*
X1207398Y528073D01*
X1207398Y522226D01*
X1217143Y533920D02*
X1219092Y535869D01*
X1219092Y539767D01*
X1217143Y541716D01*
X1209347Y541716D01*
X1207398Y539767D01*
X1207398Y535869D01*
X1209347Y533920D01*
X1211296Y533920D01*
X1213245Y535869D01*
X1213245Y541716D01*
X1219092Y545614D02*
X1219092Y553410D01*
X1219092Y545614D02*
X1211296Y553410D01*
X1209347Y553410D01*
X1207398Y551461D01*
X1207398Y547563D01*
X1209347Y545614D01*
D11*
X204800Y373400D02*
X182800Y373400D01*
X204800Y373400D02*
X204800Y334400D01*
X200800Y329400D01*
X186800Y329400D01*
X182800Y335400D01*
X182800Y373400D01*
X183800Y351400D02*
X204800Y351400D01*
D12*
X217398Y330532D02*
X229092Y330532D01*
X217398Y330532D02*
X217398Y336379D01*
X219347Y338328D01*
X223245Y338328D01*
X225194Y336379D01*
X225194Y330532D01*
X229092Y342226D02*
X217398Y342226D01*
X223245Y342226D02*
X223245Y350022D01*
X217398Y350022D02*
X229092Y350022D01*
X229092Y353920D02*
X217398Y353920D01*
X229092Y353920D02*
X229092Y359767D01*
X227143Y361716D01*
X219347Y361716D01*
X217398Y359767D01*
X217398Y353920D01*
X219347Y369512D02*
X217398Y373410D01*
X219347Y369512D02*
X223245Y365614D01*
X227143Y365614D01*
X229092Y367563D01*
X229092Y371461D01*
X227143Y373410D01*
X225194Y373410D01*
X223245Y371461D01*
X223245Y365614D01*
D11*
X272800Y373400D02*
X294800Y373400D01*
X294800Y334400D01*
X290800Y329400D01*
X276800Y329400D01*
X272800Y335400D01*
X272800Y373400D01*
X273800Y351400D02*
X294800Y351400D01*
D12*
X307398Y318838D02*
X319092Y318838D01*
X307398Y318838D02*
X307398Y324685D01*
X309347Y326634D01*
X313245Y326634D01*
X315194Y324685D01*
X315194Y318838D01*
X319092Y330532D02*
X307398Y330532D01*
X313245Y330532D02*
X313245Y338328D01*
X307398Y338328D02*
X319092Y338328D01*
X319092Y342226D02*
X307398Y342226D01*
X319092Y342226D02*
X319092Y348073D01*
X317143Y350022D01*
X309347Y350022D01*
X307398Y348073D01*
X307398Y342226D01*
X311296Y353920D02*
X307398Y357818D01*
X319092Y357818D01*
X319092Y353920D02*
X319092Y361716D01*
X319092Y371461D02*
X307398Y371461D01*
X313245Y365614D01*
X313245Y373410D01*
D11*
X362800Y373400D02*
X384800Y373400D01*
X384800Y334400D01*
X380800Y329400D01*
X366800Y329400D01*
X362800Y335400D01*
X362800Y373400D01*
X363800Y351400D02*
X384800Y351400D01*
D12*
X397398Y318838D02*
X409092Y318838D01*
X397398Y318838D02*
X397398Y324685D01*
X399347Y326634D01*
X403245Y326634D01*
X405194Y324685D01*
X405194Y318838D01*
X409092Y330532D02*
X397398Y330532D01*
X403245Y330532D02*
X403245Y338328D01*
X397398Y338328D02*
X409092Y338328D01*
X409092Y342226D02*
X397398Y342226D01*
X409092Y342226D02*
X409092Y348073D01*
X407143Y350022D01*
X399347Y350022D01*
X397398Y348073D01*
X397398Y342226D01*
X409092Y353920D02*
X409092Y361716D01*
X409092Y353920D02*
X401296Y361716D01*
X399347Y361716D01*
X397398Y359767D01*
X397398Y355869D01*
X399347Y353920D01*
X409092Y365614D02*
X409092Y373410D01*
X409092Y365614D02*
X401296Y373410D01*
X399347Y373410D01*
X397398Y371461D01*
X397398Y367563D01*
X399347Y365614D01*
D11*
X452800Y373400D02*
X474800Y373400D01*
X474800Y334400D01*
X470800Y329400D01*
X456800Y329400D01*
X452800Y335400D01*
X452800Y373400D01*
X453800Y351400D02*
X474800Y351400D01*
D12*
X487398Y318838D02*
X499092Y318838D01*
X487398Y318838D02*
X487398Y324685D01*
X489347Y326634D01*
X493245Y326634D01*
X495194Y324685D01*
X495194Y318838D01*
X499092Y330532D02*
X487398Y330532D01*
X493245Y330532D02*
X493245Y338328D01*
X487398Y338328D02*
X499092Y338328D01*
X499092Y342226D02*
X487398Y342226D01*
X499092Y342226D02*
X499092Y348073D01*
X497143Y350022D01*
X489347Y350022D01*
X487398Y348073D01*
X487398Y342226D01*
X489347Y353920D02*
X487398Y355869D01*
X487398Y359767D01*
X489347Y361716D01*
X491296Y361716D01*
X493245Y359767D01*
X493245Y357818D01*
X493245Y359767D02*
X495194Y361716D01*
X497143Y361716D01*
X499092Y359767D01*
X499092Y355869D01*
X497143Y353920D01*
X497143Y365614D02*
X489347Y365614D01*
X487398Y367563D01*
X487398Y371461D01*
X489347Y373410D01*
X497143Y373410D01*
X499092Y371461D01*
X499092Y367563D01*
X497143Y365614D01*
X489347Y373410D01*
D11*
X542800Y373400D02*
X564800Y373400D01*
X564800Y334400D01*
X560800Y329400D01*
X546800Y329400D01*
X542800Y335400D01*
X542800Y373400D01*
X543800Y351400D02*
X564800Y351400D01*
D12*
X577398Y318838D02*
X589092Y318838D01*
X577398Y318838D02*
X577398Y324685D01*
X579347Y326634D01*
X583245Y326634D01*
X585194Y324685D01*
X585194Y318838D01*
X589092Y330532D02*
X577398Y330532D01*
X583245Y330532D02*
X583245Y338328D01*
X577398Y338328D02*
X589092Y338328D01*
X589092Y342226D02*
X577398Y342226D01*
X589092Y342226D02*
X589092Y348073D01*
X587143Y350022D01*
X579347Y350022D01*
X577398Y348073D01*
X577398Y342226D01*
X579347Y353920D02*
X577398Y355869D01*
X577398Y359767D01*
X579347Y361716D01*
X581296Y361716D01*
X583245Y359767D01*
X583245Y357818D01*
X583245Y359767D02*
X585194Y361716D01*
X587143Y361716D01*
X589092Y359767D01*
X589092Y355869D01*
X587143Y353920D01*
X579347Y365614D02*
X577398Y367563D01*
X577398Y371461D01*
X579347Y373410D01*
X581296Y373410D01*
X583245Y371461D01*
X585194Y373410D01*
X587143Y373410D01*
X589092Y371461D01*
X589092Y367563D01*
X587143Y365614D01*
X585194Y365614D01*
X583245Y367563D01*
X581296Y365614D01*
X579347Y365614D01*
X583245Y367563D02*
X583245Y371461D01*
D11*
X632800Y373400D02*
X654800Y373400D01*
X654800Y334400D01*
X650800Y329400D01*
X636800Y329400D01*
X632800Y335400D01*
X632800Y373400D01*
X633800Y351400D02*
X654800Y351400D01*
D12*
X667398Y318838D02*
X679092Y318838D01*
X667398Y318838D02*
X667398Y324685D01*
X669347Y326634D01*
X673245Y326634D01*
X675194Y324685D01*
X675194Y318838D01*
X679092Y330532D02*
X667398Y330532D01*
X673245Y330532D02*
X673245Y338328D01*
X667398Y338328D02*
X679092Y338328D01*
X679092Y342226D02*
X667398Y342226D01*
X679092Y342226D02*
X679092Y348073D01*
X677143Y350022D01*
X669347Y350022D01*
X667398Y348073D01*
X667398Y342226D01*
X667398Y359767D02*
X679092Y359767D01*
X673245Y353920D02*
X667398Y359767D01*
X673245Y361716D02*
X673245Y353920D01*
X669347Y369512D02*
X667398Y373410D01*
X669347Y369512D02*
X673245Y365614D01*
X677143Y365614D01*
X679092Y367563D01*
X679092Y371461D01*
X677143Y373410D01*
X675194Y373410D01*
X673245Y371461D01*
X673245Y365614D01*
D11*
X722800Y373400D02*
X744800Y373400D01*
X744800Y334400D01*
X740800Y329400D01*
X726800Y329400D01*
X722800Y335400D01*
X722800Y373400D01*
X723800Y351400D02*
X744800Y351400D01*
D12*
X757398Y318838D02*
X769092Y318838D01*
X757398Y318838D02*
X757398Y324685D01*
X759347Y326634D01*
X763245Y326634D01*
X765194Y324685D01*
X765194Y318838D01*
X769092Y330532D02*
X757398Y330532D01*
X763245Y330532D02*
X763245Y338328D01*
X757398Y338328D02*
X769092Y338328D01*
X769092Y342226D02*
X757398Y342226D01*
X769092Y342226D02*
X769092Y348073D01*
X767143Y350022D01*
X759347Y350022D01*
X757398Y348073D01*
X757398Y342226D01*
X757398Y353920D02*
X757398Y361716D01*
X757398Y353920D02*
X763245Y353920D01*
X761296Y357818D01*
X761296Y359767D01*
X763245Y361716D01*
X767143Y361716D01*
X769092Y359767D01*
X769092Y355869D01*
X767143Y353920D01*
X769092Y371461D02*
X757398Y371461D01*
X763245Y365614D01*
X763245Y373410D01*
D11*
X812800Y373400D02*
X834800Y373400D01*
X834800Y334400D01*
X830800Y329400D01*
X816800Y329400D01*
X812800Y335400D01*
X812800Y373400D01*
X813800Y351400D02*
X834800Y351400D01*
D12*
X847398Y318838D02*
X859092Y318838D01*
X847398Y318838D02*
X847398Y324685D01*
X849347Y326634D01*
X853245Y326634D01*
X855194Y324685D01*
X855194Y318838D01*
X859092Y330532D02*
X847398Y330532D01*
X853245Y330532D02*
X853245Y338328D01*
X847398Y338328D02*
X859092Y338328D01*
X859092Y342226D02*
X847398Y342226D01*
X859092Y342226D02*
X859092Y348073D01*
X857143Y350022D01*
X849347Y350022D01*
X847398Y348073D01*
X847398Y342226D01*
X849347Y357818D02*
X847398Y361716D01*
X849347Y357818D02*
X853245Y353920D01*
X857143Y353920D01*
X859092Y355869D01*
X859092Y359767D01*
X857143Y361716D01*
X855194Y361716D01*
X853245Y359767D01*
X853245Y353920D01*
X859092Y365614D02*
X859092Y373410D01*
X859092Y365614D02*
X851296Y373410D01*
X849347Y373410D01*
X847398Y371461D01*
X847398Y367563D01*
X849347Y365614D01*
D11*
X902800Y373400D02*
X924800Y373400D01*
X924800Y334400D01*
X920800Y329400D01*
X906800Y329400D01*
X902800Y335400D01*
X902800Y373400D01*
X903800Y351400D02*
X924800Y351400D01*
D12*
X937398Y318838D02*
X949092Y318838D01*
X937398Y318838D02*
X937398Y324685D01*
X939347Y326634D01*
X943245Y326634D01*
X945194Y324685D01*
X945194Y318838D01*
X949092Y330532D02*
X937398Y330532D01*
X943245Y330532D02*
X943245Y338328D01*
X937398Y338328D02*
X949092Y338328D01*
X949092Y342226D02*
X937398Y342226D01*
X949092Y342226D02*
X949092Y348073D01*
X947143Y350022D01*
X939347Y350022D01*
X937398Y348073D01*
X937398Y342226D01*
X937398Y353920D02*
X937398Y361716D01*
X939347Y361716D01*
X947143Y353920D01*
X949092Y353920D01*
X947143Y365614D02*
X939347Y365614D01*
X937398Y367563D01*
X937398Y371461D01*
X939347Y373410D01*
X947143Y373410D01*
X949092Y371461D01*
X949092Y367563D01*
X947143Y365614D01*
X939347Y373410D01*
D11*
X992800Y373400D02*
X1014800Y373400D01*
X1014800Y334400D01*
X1010800Y329400D01*
X996800Y329400D01*
X992800Y335400D01*
X992800Y373400D01*
X993800Y351400D02*
X1014800Y351400D01*
D12*
X1027398Y318838D02*
X1039092Y318838D01*
X1027398Y318838D02*
X1027398Y324685D01*
X1029347Y326634D01*
X1033245Y326634D01*
X1035194Y324685D01*
X1035194Y318838D01*
X1039092Y330532D02*
X1027398Y330532D01*
X1033245Y330532D02*
X1033245Y338328D01*
X1027398Y338328D02*
X1039092Y338328D01*
X1039092Y342226D02*
X1027398Y342226D01*
X1039092Y342226D02*
X1039092Y348073D01*
X1037143Y350022D01*
X1029347Y350022D01*
X1027398Y348073D01*
X1027398Y342226D01*
X1027398Y353920D02*
X1027398Y361716D01*
X1029347Y361716D01*
X1037143Y353920D01*
X1039092Y353920D01*
X1029347Y365614D02*
X1027398Y367563D01*
X1027398Y371461D01*
X1029347Y373410D01*
X1031296Y373410D01*
X1033245Y371461D01*
X1035194Y373410D01*
X1037143Y373410D01*
X1039092Y371461D01*
X1039092Y367563D01*
X1037143Y365614D01*
X1035194Y365614D01*
X1033245Y367563D01*
X1031296Y365614D01*
X1029347Y365614D01*
X1033245Y367563D02*
X1033245Y371461D01*
D11*
X1082800Y373400D02*
X1104800Y373400D01*
X1104800Y334400D01*
X1100800Y329400D01*
X1086800Y329400D01*
X1082800Y335400D01*
X1082800Y373400D01*
X1083800Y351400D02*
X1104800Y351400D01*
D12*
X1117398Y318838D02*
X1129092Y318838D01*
X1117398Y318838D02*
X1117398Y324685D01*
X1119347Y326634D01*
X1123245Y326634D01*
X1125194Y324685D01*
X1125194Y318838D01*
X1129092Y330532D02*
X1117398Y330532D01*
X1123245Y330532D02*
X1123245Y338328D01*
X1117398Y338328D02*
X1129092Y338328D01*
X1129092Y342226D02*
X1117398Y342226D01*
X1129092Y342226D02*
X1129092Y348073D01*
X1127143Y350022D01*
X1119347Y350022D01*
X1117398Y348073D01*
X1117398Y342226D01*
X1119347Y353920D02*
X1117398Y355869D01*
X1117398Y359767D01*
X1119347Y361716D01*
X1121296Y361716D01*
X1123245Y359767D01*
X1125194Y361716D01*
X1127143Y361716D01*
X1129092Y359767D01*
X1129092Y355869D01*
X1127143Y353920D01*
X1125194Y353920D01*
X1123245Y355869D01*
X1121296Y353920D01*
X1119347Y353920D01*
X1123245Y355869D02*
X1123245Y359767D01*
X1119347Y369512D02*
X1117398Y373410D01*
X1119347Y369512D02*
X1123245Y365614D01*
X1127143Y365614D01*
X1129092Y367563D01*
X1129092Y371461D01*
X1127143Y373410D01*
X1125194Y373410D01*
X1123245Y371461D01*
X1123245Y365614D01*
D11*
X1172800Y373400D02*
X1194800Y373400D01*
X1194800Y334400D01*
X1190800Y329400D01*
X1176800Y329400D01*
X1172800Y335400D01*
X1172800Y373400D01*
X1173800Y351400D02*
X1194800Y351400D01*
D12*
X1207398Y318838D02*
X1219092Y318838D01*
X1207398Y318838D02*
X1207398Y324685D01*
X1209347Y326634D01*
X1213245Y326634D01*
X1215194Y324685D01*
X1215194Y318838D01*
X1219092Y330532D02*
X1207398Y330532D01*
X1213245Y330532D02*
X1213245Y338328D01*
X1207398Y338328D02*
X1219092Y338328D01*
X1219092Y342226D02*
X1207398Y342226D01*
X1219092Y342226D02*
X1219092Y348073D01*
X1217143Y350022D01*
X1209347Y350022D01*
X1207398Y348073D01*
X1207398Y342226D01*
X1217143Y353920D02*
X1219092Y355869D01*
X1219092Y359767D01*
X1217143Y361716D01*
X1209347Y361716D01*
X1207398Y359767D01*
X1207398Y355869D01*
X1209347Y353920D01*
X1211296Y353920D01*
X1213245Y355869D01*
X1213245Y361716D01*
X1219092Y371461D02*
X1207398Y371461D01*
X1213245Y365614D01*
X1213245Y373410D01*
D11*
X204800Y283400D02*
X182800Y283400D01*
X204800Y283400D02*
X204800Y244400D01*
X200800Y239400D01*
X186800Y239400D01*
X182800Y245400D01*
X182800Y283400D01*
X183800Y261400D02*
X204800Y261400D01*
D12*
X217398Y240532D02*
X229092Y240532D01*
X217398Y240532D02*
X217398Y246379D01*
X219347Y248328D01*
X223245Y248328D01*
X225194Y246379D01*
X225194Y240532D01*
X229092Y252226D02*
X217398Y252226D01*
X223245Y252226D02*
X223245Y260022D01*
X217398Y260022D02*
X229092Y260022D01*
X229092Y263920D02*
X217398Y263920D01*
X229092Y263920D02*
X229092Y269767D01*
X227143Y271716D01*
X219347Y271716D01*
X217398Y269767D01*
X217398Y263920D01*
X217398Y275614D02*
X217398Y283410D01*
X219347Y283410D01*
X227143Y275614D01*
X229092Y275614D01*
D11*
X272800Y283400D02*
X294800Y283400D01*
X294800Y244400D01*
X290800Y239400D01*
X276800Y239400D01*
X272800Y245400D01*
X272800Y283400D01*
X273800Y261400D02*
X294800Y261400D01*
D12*
X307398Y228838D02*
X319092Y228838D01*
X307398Y228838D02*
X307398Y234685D01*
X309347Y236634D01*
X313245Y236634D01*
X315194Y234685D01*
X315194Y228838D01*
X319092Y240532D02*
X307398Y240532D01*
X313245Y240532D02*
X313245Y248328D01*
X307398Y248328D02*
X319092Y248328D01*
X319092Y252226D02*
X307398Y252226D01*
X319092Y252226D02*
X319092Y258073D01*
X317143Y260022D01*
X309347Y260022D01*
X307398Y258073D01*
X307398Y252226D01*
X311296Y263920D02*
X307398Y267818D01*
X319092Y267818D01*
X319092Y263920D02*
X319092Y271716D01*
X307398Y275614D02*
X307398Y283410D01*
X307398Y275614D02*
X313245Y275614D01*
X311296Y279512D01*
X311296Y281461D01*
X313245Y283410D01*
X317143Y283410D01*
X319092Y281461D01*
X319092Y277563D01*
X317143Y275614D01*
D11*
X362800Y283400D02*
X384800Y283400D01*
X384800Y244400D01*
X380800Y239400D01*
X366800Y239400D01*
X362800Y245400D01*
X362800Y283400D01*
X363800Y261400D02*
X384800Y261400D01*
D12*
X397398Y228838D02*
X409092Y228838D01*
X397398Y228838D02*
X397398Y234685D01*
X399347Y236634D01*
X403245Y236634D01*
X405194Y234685D01*
X405194Y228838D01*
X409092Y240532D02*
X397398Y240532D01*
X403245Y240532D02*
X403245Y248328D01*
X397398Y248328D02*
X409092Y248328D01*
X409092Y252226D02*
X397398Y252226D01*
X409092Y252226D02*
X409092Y258073D01*
X407143Y260022D01*
X399347Y260022D01*
X397398Y258073D01*
X397398Y252226D01*
X409092Y263920D02*
X409092Y271716D01*
X409092Y263920D02*
X401296Y271716D01*
X399347Y271716D01*
X397398Y269767D01*
X397398Y265869D01*
X399347Y263920D01*
X399347Y275614D02*
X397398Y277563D01*
X397398Y281461D01*
X399347Y283410D01*
X401296Y283410D01*
X403245Y281461D01*
X403245Y279512D01*
X403245Y281461D02*
X405194Y283410D01*
X407143Y283410D01*
X409092Y281461D01*
X409092Y277563D01*
X407143Y275614D01*
D11*
X452800Y283400D02*
X474800Y283400D01*
X474800Y244400D01*
X470800Y239400D01*
X456800Y239400D01*
X452800Y245400D01*
X452800Y283400D01*
X453800Y261400D02*
X474800Y261400D01*
D12*
X487398Y228838D02*
X499092Y228838D01*
X487398Y228838D02*
X487398Y234685D01*
X489347Y236634D01*
X493245Y236634D01*
X495194Y234685D01*
X495194Y228838D01*
X499092Y240532D02*
X487398Y240532D01*
X493245Y240532D02*
X493245Y248328D01*
X487398Y248328D02*
X499092Y248328D01*
X499092Y252226D02*
X487398Y252226D01*
X499092Y252226D02*
X499092Y258073D01*
X497143Y260022D01*
X489347Y260022D01*
X487398Y258073D01*
X487398Y252226D01*
X489347Y263920D02*
X487398Y265869D01*
X487398Y269767D01*
X489347Y271716D01*
X491296Y271716D01*
X493245Y269767D01*
X493245Y267818D01*
X493245Y269767D02*
X495194Y271716D01*
X497143Y271716D01*
X499092Y269767D01*
X499092Y265869D01*
X497143Y263920D01*
X491296Y275614D02*
X487398Y279512D01*
X499092Y279512D01*
X499092Y275614D02*
X499092Y283410D01*
D11*
X542800Y283400D02*
X564800Y283400D01*
X564800Y244400D01*
X560800Y239400D01*
X546800Y239400D01*
X542800Y245400D01*
X542800Y283400D01*
X543800Y261400D02*
X564800Y261400D01*
D12*
X577398Y228838D02*
X589092Y228838D01*
X577398Y228838D02*
X577398Y234685D01*
X579347Y236634D01*
X583245Y236634D01*
X585194Y234685D01*
X585194Y228838D01*
X589092Y240532D02*
X577398Y240532D01*
X583245Y240532D02*
X583245Y248328D01*
X577398Y248328D02*
X589092Y248328D01*
X589092Y252226D02*
X577398Y252226D01*
X589092Y252226D02*
X589092Y258073D01*
X587143Y260022D01*
X579347Y260022D01*
X577398Y258073D01*
X577398Y252226D01*
X579347Y263920D02*
X577398Y265869D01*
X577398Y269767D01*
X579347Y271716D01*
X581296Y271716D01*
X583245Y269767D01*
X583245Y267818D01*
X583245Y269767D02*
X585194Y271716D01*
X587143Y271716D01*
X589092Y269767D01*
X589092Y265869D01*
X587143Y263920D01*
X587143Y275614D02*
X589092Y277563D01*
X589092Y281461D01*
X587143Y283410D01*
X579347Y283410D01*
X577398Y281461D01*
X577398Y277563D01*
X579347Y275614D01*
X581296Y275614D01*
X583245Y277563D01*
X583245Y283410D01*
D11*
X632800Y283400D02*
X654800Y283400D01*
X654800Y244400D01*
X650800Y239400D01*
X636800Y239400D01*
X632800Y245400D01*
X632800Y283400D01*
X633800Y261400D02*
X654800Y261400D01*
D12*
X667398Y228838D02*
X679092Y228838D01*
X667398Y228838D02*
X667398Y234685D01*
X669347Y236634D01*
X673245Y236634D01*
X675194Y234685D01*
X675194Y228838D01*
X679092Y240532D02*
X667398Y240532D01*
X673245Y240532D02*
X673245Y248328D01*
X667398Y248328D02*
X679092Y248328D01*
X679092Y252226D02*
X667398Y252226D01*
X679092Y252226D02*
X679092Y258073D01*
X677143Y260022D01*
X669347Y260022D01*
X667398Y258073D01*
X667398Y252226D01*
X667398Y269767D02*
X679092Y269767D01*
X673245Y263920D02*
X667398Y269767D01*
X673245Y271716D02*
X673245Y263920D01*
X667398Y275614D02*
X667398Y283410D01*
X669347Y283410D01*
X677143Y275614D01*
X679092Y275614D01*
D11*
X722800Y283400D02*
X744800Y283400D01*
X744800Y244400D01*
X740800Y239400D01*
X726800Y239400D01*
X722800Y245400D01*
X722800Y283400D01*
X723800Y261400D02*
X744800Y261400D01*
D12*
X757398Y228838D02*
X769092Y228838D01*
X757398Y228838D02*
X757398Y234685D01*
X759347Y236634D01*
X763245Y236634D01*
X765194Y234685D01*
X765194Y228838D01*
X769092Y240532D02*
X757398Y240532D01*
X763245Y240532D02*
X763245Y248328D01*
X757398Y248328D02*
X769092Y248328D01*
X769092Y252226D02*
X757398Y252226D01*
X769092Y252226D02*
X769092Y258073D01*
X767143Y260022D01*
X759347Y260022D01*
X757398Y258073D01*
X757398Y252226D01*
X757398Y263920D02*
X757398Y271716D01*
X757398Y263920D02*
X763245Y263920D01*
X761296Y267818D01*
X761296Y269767D01*
X763245Y271716D01*
X767143Y271716D01*
X769092Y269767D01*
X769092Y265869D01*
X767143Y263920D01*
X757398Y275614D02*
X757398Y283410D01*
X757398Y275614D02*
X763245Y275614D01*
X761296Y279512D01*
X761296Y281461D01*
X763245Y283410D01*
X767143Y283410D01*
X769092Y281461D01*
X769092Y277563D01*
X767143Y275614D01*
D11*
X812800Y283400D02*
X834800Y283400D01*
X834800Y244400D01*
X830800Y239400D01*
X816800Y239400D01*
X812800Y245400D01*
X812800Y283400D01*
X813800Y261400D02*
X834800Y261400D01*
D12*
X847398Y228838D02*
X859092Y228838D01*
X847398Y228838D02*
X847398Y234685D01*
X849347Y236634D01*
X853245Y236634D01*
X855194Y234685D01*
X855194Y228838D01*
X859092Y240532D02*
X847398Y240532D01*
X853245Y240532D02*
X853245Y248328D01*
X847398Y248328D02*
X859092Y248328D01*
X859092Y252226D02*
X847398Y252226D01*
X859092Y252226D02*
X859092Y258073D01*
X857143Y260022D01*
X849347Y260022D01*
X847398Y258073D01*
X847398Y252226D01*
X849347Y267818D02*
X847398Y271716D01*
X849347Y267818D02*
X853245Y263920D01*
X857143Y263920D01*
X859092Y265869D01*
X859092Y269767D01*
X857143Y271716D01*
X855194Y271716D01*
X853245Y269767D01*
X853245Y263920D01*
X849347Y275614D02*
X847398Y277563D01*
X847398Y281461D01*
X849347Y283410D01*
X851296Y283410D01*
X853245Y281461D01*
X853245Y279512D01*
X853245Y281461D02*
X855194Y283410D01*
X857143Y283410D01*
X859092Y281461D01*
X859092Y277563D01*
X857143Y275614D01*
D11*
X902800Y283400D02*
X924800Y283400D01*
X924800Y244400D01*
X920800Y239400D01*
X906800Y239400D01*
X902800Y245400D01*
X902800Y283400D01*
X903800Y261400D02*
X924800Y261400D01*
D12*
X937398Y228838D02*
X949092Y228838D01*
X937398Y228838D02*
X937398Y234685D01*
X939347Y236634D01*
X943245Y236634D01*
X945194Y234685D01*
X945194Y228838D01*
X949092Y240532D02*
X937398Y240532D01*
X943245Y240532D02*
X943245Y248328D01*
X937398Y248328D02*
X949092Y248328D01*
X949092Y252226D02*
X937398Y252226D01*
X949092Y252226D02*
X949092Y258073D01*
X947143Y260022D01*
X939347Y260022D01*
X937398Y258073D01*
X937398Y252226D01*
X937398Y263920D02*
X937398Y271716D01*
X939347Y271716D01*
X947143Y263920D01*
X949092Y263920D01*
X941296Y275614D02*
X937398Y279512D01*
X949092Y279512D01*
X949092Y275614D02*
X949092Y283410D01*
D11*
X992800Y283400D02*
X1014800Y283400D01*
X1014800Y244400D01*
X1010800Y239400D01*
X996800Y239400D01*
X992800Y245400D01*
X992800Y283400D01*
X993800Y261400D02*
X1014800Y261400D01*
D12*
X1027398Y228838D02*
X1039092Y228838D01*
X1027398Y228838D02*
X1027398Y234685D01*
X1029347Y236634D01*
X1033245Y236634D01*
X1035194Y234685D01*
X1035194Y228838D01*
X1039092Y240532D02*
X1027398Y240532D01*
X1033245Y240532D02*
X1033245Y248328D01*
X1027398Y248328D02*
X1039092Y248328D01*
X1039092Y252226D02*
X1027398Y252226D01*
X1039092Y252226D02*
X1039092Y258073D01*
X1037143Y260022D01*
X1029347Y260022D01*
X1027398Y258073D01*
X1027398Y252226D01*
X1027398Y263920D02*
X1027398Y271716D01*
X1029347Y271716D01*
X1037143Y263920D01*
X1039092Y263920D01*
X1037143Y275614D02*
X1039092Y277563D01*
X1039092Y281461D01*
X1037143Y283410D01*
X1029347Y283410D01*
X1027398Y281461D01*
X1027398Y277563D01*
X1029347Y275614D01*
X1031296Y275614D01*
X1033245Y277563D01*
X1033245Y283410D01*
D11*
X1082800Y283400D02*
X1104800Y283400D01*
X1104800Y244400D01*
X1100800Y239400D01*
X1086800Y239400D01*
X1082800Y245400D01*
X1082800Y283400D01*
X1083800Y261400D02*
X1104800Y261400D01*
D12*
X1117398Y228838D02*
X1129092Y228838D01*
X1117398Y228838D02*
X1117398Y234685D01*
X1119347Y236634D01*
X1123245Y236634D01*
X1125194Y234685D01*
X1125194Y228838D01*
X1129092Y240532D02*
X1117398Y240532D01*
X1123245Y240532D02*
X1123245Y248328D01*
X1117398Y248328D02*
X1129092Y248328D01*
X1129092Y252226D02*
X1117398Y252226D01*
X1129092Y252226D02*
X1129092Y258073D01*
X1127143Y260022D01*
X1119347Y260022D01*
X1117398Y258073D01*
X1117398Y252226D01*
X1119347Y263920D02*
X1117398Y265869D01*
X1117398Y269767D01*
X1119347Y271716D01*
X1121296Y271716D01*
X1123245Y269767D01*
X1125194Y271716D01*
X1127143Y271716D01*
X1129092Y269767D01*
X1129092Y265869D01*
X1127143Y263920D01*
X1125194Y263920D01*
X1123245Y265869D01*
X1121296Y263920D01*
X1119347Y263920D01*
X1123245Y265869D02*
X1123245Y269767D01*
X1117398Y275614D02*
X1117398Y283410D01*
X1119347Y283410D01*
X1127143Y275614D01*
X1129092Y275614D01*
D11*
X1172800Y283400D02*
X1194800Y283400D01*
X1194800Y244400D01*
X1190800Y239400D01*
X1176800Y239400D01*
X1172800Y245400D01*
X1172800Y283400D01*
X1173800Y261400D02*
X1194800Y261400D01*
D12*
X1207398Y228838D02*
X1219092Y228838D01*
X1207398Y228838D02*
X1207398Y234685D01*
X1209347Y236634D01*
X1213245Y236634D01*
X1215194Y234685D01*
X1215194Y228838D01*
X1219092Y240532D02*
X1207398Y240532D01*
X1213245Y240532D02*
X1213245Y248328D01*
X1207398Y248328D02*
X1219092Y248328D01*
X1219092Y252226D02*
X1207398Y252226D01*
X1219092Y252226D02*
X1219092Y258073D01*
X1217143Y260022D01*
X1209347Y260022D01*
X1207398Y258073D01*
X1207398Y252226D01*
X1217143Y263920D02*
X1219092Y265869D01*
X1219092Y269767D01*
X1217143Y271716D01*
X1209347Y271716D01*
X1207398Y269767D01*
X1207398Y265869D01*
X1209347Y263920D01*
X1211296Y263920D01*
X1213245Y265869D01*
X1213245Y271716D01*
X1207398Y275614D02*
X1207398Y283410D01*
X1207398Y275614D02*
X1213245Y275614D01*
X1211296Y279512D01*
X1211296Y281461D01*
X1213245Y283410D01*
X1217143Y283410D01*
X1219092Y281461D01*
X1219092Y277563D01*
X1217143Y275614D01*
D11*
X204800Y193400D02*
X182800Y193400D01*
X204800Y193400D02*
X204800Y154400D01*
X200800Y149400D01*
X186800Y149400D01*
X182800Y155400D01*
X182800Y193400D01*
X183800Y171400D02*
X204800Y171400D01*
D12*
X217398Y150532D02*
X229092Y150532D01*
X217398Y150532D02*
X217398Y156379D01*
X219347Y158328D01*
X223245Y158328D01*
X225194Y156379D01*
X225194Y150532D01*
X229092Y162226D02*
X217398Y162226D01*
X223245Y162226D02*
X223245Y170022D01*
X217398Y170022D02*
X229092Y170022D01*
X229092Y173920D02*
X217398Y173920D01*
X229092Y173920D02*
X229092Y179767D01*
X227143Y181716D01*
X219347Y181716D01*
X217398Y179767D01*
X217398Y173920D01*
X219347Y185614D02*
X217398Y187563D01*
X217398Y191461D01*
X219347Y193410D01*
X221296Y193410D01*
X223245Y191461D01*
X225194Y193410D01*
X227143Y193410D01*
X229092Y191461D01*
X229092Y187563D01*
X227143Y185614D01*
X225194Y185614D01*
X223245Y187563D01*
X221296Y185614D01*
X219347Y185614D01*
X223245Y187563D02*
X223245Y191461D01*
D11*
X272800Y193400D02*
X294800Y193400D01*
X294800Y154400D01*
X290800Y149400D01*
X276800Y149400D01*
X272800Y155400D01*
X272800Y193400D01*
X273800Y171400D02*
X294800Y171400D01*
D12*
X307398Y138838D02*
X319092Y138838D01*
X307398Y138838D02*
X307398Y144685D01*
X309347Y146634D01*
X313245Y146634D01*
X315194Y144685D01*
X315194Y138838D01*
X319092Y150532D02*
X307398Y150532D01*
X313245Y150532D02*
X313245Y158328D01*
X307398Y158328D02*
X319092Y158328D01*
X319092Y162226D02*
X307398Y162226D01*
X319092Y162226D02*
X319092Y168073D01*
X317143Y170022D01*
X309347Y170022D01*
X307398Y168073D01*
X307398Y162226D01*
X311296Y173920D02*
X307398Y177818D01*
X319092Y177818D01*
X319092Y173920D02*
X319092Y181716D01*
X309347Y189512D02*
X307398Y193410D01*
X309347Y189512D02*
X313245Y185614D01*
X317143Y185614D01*
X319092Y187563D01*
X319092Y191461D01*
X317143Y193410D01*
X315194Y193410D01*
X313245Y191461D01*
X313245Y185614D01*
D11*
X362800Y193400D02*
X384800Y193400D01*
X384800Y154400D01*
X380800Y149400D01*
X366800Y149400D01*
X362800Y155400D01*
X362800Y193400D01*
X363800Y171400D02*
X384800Y171400D01*
D12*
X397398Y138838D02*
X409092Y138838D01*
X397398Y138838D02*
X397398Y144685D01*
X399347Y146634D01*
X403245Y146634D01*
X405194Y144685D01*
X405194Y138838D01*
X409092Y150532D02*
X397398Y150532D01*
X403245Y150532D02*
X403245Y158328D01*
X397398Y158328D02*
X409092Y158328D01*
X409092Y162226D02*
X397398Y162226D01*
X409092Y162226D02*
X409092Y168073D01*
X407143Y170022D01*
X399347Y170022D01*
X397398Y168073D01*
X397398Y162226D01*
X409092Y173920D02*
X409092Y181716D01*
X409092Y173920D02*
X401296Y181716D01*
X399347Y181716D01*
X397398Y179767D01*
X397398Y175869D01*
X399347Y173920D01*
X397398Y191461D02*
X409092Y191461D01*
X403245Y185614D02*
X397398Y191461D01*
X403245Y193410D02*
X403245Y185614D01*
D11*
X452800Y193400D02*
X474800Y193400D01*
X474800Y154400D01*
X470800Y149400D01*
X456800Y149400D01*
X452800Y155400D01*
X452800Y193400D01*
X453800Y171400D02*
X474800Y171400D01*
D12*
X487398Y138838D02*
X499092Y138838D01*
X487398Y138838D02*
X487398Y144685D01*
X489347Y146634D01*
X493245Y146634D01*
X495194Y144685D01*
X495194Y138838D01*
X499092Y150532D02*
X487398Y150532D01*
X493245Y150532D02*
X493245Y158328D01*
X487398Y158328D02*
X499092Y158328D01*
X499092Y162226D02*
X487398Y162226D01*
X499092Y162226D02*
X499092Y168073D01*
X497143Y170022D01*
X489347Y170022D01*
X487398Y168073D01*
X487398Y162226D01*
X489347Y173920D02*
X487398Y175869D01*
X487398Y179767D01*
X489347Y181716D01*
X491296Y181716D01*
X493245Y179767D01*
X493245Y177818D01*
X493245Y179767D02*
X495194Y181716D01*
X497143Y181716D01*
X499092Y179767D01*
X499092Y175869D01*
X497143Y173920D01*
X499092Y185614D02*
X499092Y193410D01*
X499092Y185614D02*
X491296Y193410D01*
X489347Y193410D01*
X487398Y191461D01*
X487398Y187563D01*
X489347Y185614D01*
D11*
X542800Y193400D02*
X564800Y193400D01*
X564800Y154400D01*
X560800Y149400D01*
X546800Y149400D01*
X542800Y155400D01*
X542800Y193400D01*
X543800Y171400D02*
X564800Y171400D01*
D12*
X577398Y138838D02*
X589092Y138838D01*
X577398Y138838D02*
X577398Y144685D01*
X579347Y146634D01*
X583245Y146634D01*
X585194Y144685D01*
X585194Y138838D01*
X589092Y150532D02*
X577398Y150532D01*
X583245Y150532D02*
X583245Y158328D01*
X577398Y158328D02*
X589092Y158328D01*
X589092Y162226D02*
X577398Y162226D01*
X589092Y162226D02*
X589092Y168073D01*
X587143Y170022D01*
X579347Y170022D01*
X577398Y168073D01*
X577398Y162226D01*
X577398Y179767D02*
X589092Y179767D01*
X583245Y173920D02*
X577398Y179767D01*
X583245Y181716D02*
X583245Y173920D01*
X587143Y185614D02*
X579347Y185614D01*
X577398Y187563D01*
X577398Y191461D01*
X579347Y193410D01*
X587143Y193410D01*
X589092Y191461D01*
X589092Y187563D01*
X587143Y185614D01*
X579347Y193410D01*
D11*
X632800Y193400D02*
X654800Y193400D01*
X654800Y154400D01*
X650800Y149400D01*
X636800Y149400D01*
X632800Y155400D01*
X632800Y193400D01*
X633800Y171400D02*
X654800Y171400D01*
D12*
X667398Y138838D02*
X679092Y138838D01*
X667398Y138838D02*
X667398Y144685D01*
X669347Y146634D01*
X673245Y146634D01*
X675194Y144685D01*
X675194Y138838D01*
X679092Y150532D02*
X667398Y150532D01*
X673245Y150532D02*
X673245Y158328D01*
X667398Y158328D02*
X679092Y158328D01*
X679092Y162226D02*
X667398Y162226D01*
X679092Y162226D02*
X679092Y168073D01*
X677143Y170022D01*
X669347Y170022D01*
X667398Y168073D01*
X667398Y162226D01*
X667398Y179767D02*
X679092Y179767D01*
X673245Y173920D02*
X667398Y179767D01*
X673245Y181716D02*
X673245Y173920D01*
X669347Y185614D02*
X667398Y187563D01*
X667398Y191461D01*
X669347Y193410D01*
X671296Y193410D01*
X673245Y191461D01*
X675194Y193410D01*
X677143Y193410D01*
X679092Y191461D01*
X679092Y187563D01*
X677143Y185614D01*
X675194Y185614D01*
X673245Y187563D01*
X671296Y185614D01*
X669347Y185614D01*
X673245Y187563D02*
X673245Y191461D01*
D11*
X722800Y193400D02*
X744800Y193400D01*
X744800Y154400D01*
X740800Y149400D01*
X726800Y149400D01*
X722800Y155400D01*
X722800Y193400D01*
X723800Y171400D02*
X744800Y171400D01*
D12*
X757398Y138838D02*
X769092Y138838D01*
X757398Y138838D02*
X757398Y144685D01*
X759347Y146634D01*
X763245Y146634D01*
X765194Y144685D01*
X765194Y138838D01*
X769092Y150532D02*
X757398Y150532D01*
X763245Y150532D02*
X763245Y158328D01*
X757398Y158328D02*
X769092Y158328D01*
X769092Y162226D02*
X757398Y162226D01*
X769092Y162226D02*
X769092Y168073D01*
X767143Y170022D01*
X759347Y170022D01*
X757398Y168073D01*
X757398Y162226D01*
X757398Y173920D02*
X757398Y181716D01*
X757398Y173920D02*
X763245Y173920D01*
X761296Y177818D01*
X761296Y179767D01*
X763245Y181716D01*
X767143Y181716D01*
X769092Y179767D01*
X769092Y175869D01*
X767143Y173920D01*
X759347Y189512D02*
X757398Y193410D01*
X759347Y189512D02*
X763245Y185614D01*
X767143Y185614D01*
X769092Y187563D01*
X769092Y191461D01*
X767143Y193410D01*
X765194Y193410D01*
X763245Y191461D01*
X763245Y185614D01*
D11*
X812800Y193400D02*
X834800Y193400D01*
X834800Y154400D01*
X830800Y149400D01*
X816800Y149400D01*
X812800Y155400D01*
X812800Y193400D01*
X813800Y171400D02*
X834800Y171400D01*
D12*
X847398Y138838D02*
X859092Y138838D01*
X847398Y138838D02*
X847398Y144685D01*
X849347Y146634D01*
X853245Y146634D01*
X855194Y144685D01*
X855194Y138838D01*
X859092Y150532D02*
X847398Y150532D01*
X853245Y150532D02*
X853245Y158328D01*
X847398Y158328D02*
X859092Y158328D01*
X859092Y162226D02*
X847398Y162226D01*
X859092Y162226D02*
X859092Y168073D01*
X857143Y170022D01*
X849347Y170022D01*
X847398Y168073D01*
X847398Y162226D01*
X849347Y177818D02*
X847398Y181716D01*
X849347Y177818D02*
X853245Y173920D01*
X857143Y173920D01*
X859092Y175869D01*
X859092Y179767D01*
X857143Y181716D01*
X855194Y181716D01*
X853245Y179767D01*
X853245Y173920D01*
X859092Y191461D02*
X847398Y191461D01*
X853245Y185614D01*
X853245Y193410D01*
D11*
X902800Y193400D02*
X924800Y193400D01*
X924800Y154400D01*
X920800Y149400D01*
X906800Y149400D01*
X902800Y155400D01*
X902800Y193400D01*
X903800Y171400D02*
X924800Y171400D01*
D12*
X937398Y138838D02*
X949092Y138838D01*
X937398Y138838D02*
X937398Y144685D01*
X939347Y146634D01*
X943245Y146634D01*
X945194Y144685D01*
X945194Y138838D01*
X949092Y150532D02*
X937398Y150532D01*
X943245Y150532D02*
X943245Y158328D01*
X937398Y158328D02*
X949092Y158328D01*
X949092Y162226D02*
X937398Y162226D01*
X949092Y162226D02*
X949092Y168073D01*
X947143Y170022D01*
X939347Y170022D01*
X937398Y168073D01*
X937398Y162226D01*
X937398Y173920D02*
X937398Y181716D01*
X939347Y181716D01*
X947143Y173920D01*
X949092Y173920D01*
X949092Y185614D02*
X949092Y193410D01*
X949092Y185614D02*
X941296Y193410D01*
X939347Y193410D01*
X937398Y191461D01*
X937398Y187563D01*
X939347Y185614D01*
D11*
X992800Y193400D02*
X1014800Y193400D01*
X1014800Y154400D01*
X1010800Y149400D01*
X996800Y149400D01*
X992800Y155400D01*
X992800Y193400D01*
X993800Y171400D02*
X1014800Y171400D01*
D12*
X1027398Y138838D02*
X1039092Y138838D01*
X1027398Y138838D02*
X1027398Y144685D01*
X1029347Y146634D01*
X1033245Y146634D01*
X1035194Y144685D01*
X1035194Y138838D01*
X1039092Y150532D02*
X1027398Y150532D01*
X1033245Y150532D02*
X1033245Y158328D01*
X1027398Y158328D02*
X1039092Y158328D01*
X1039092Y162226D02*
X1027398Y162226D01*
X1039092Y162226D02*
X1039092Y168073D01*
X1037143Y170022D01*
X1029347Y170022D01*
X1027398Y168073D01*
X1027398Y162226D01*
X1029347Y173920D02*
X1027398Y175869D01*
X1027398Y179767D01*
X1029347Y181716D01*
X1031296Y181716D01*
X1033245Y179767D01*
X1035194Y181716D01*
X1037143Y181716D01*
X1039092Y179767D01*
X1039092Y175869D01*
X1037143Y173920D01*
X1035194Y173920D01*
X1033245Y175869D01*
X1031296Y173920D01*
X1029347Y173920D01*
X1033245Y175869D02*
X1033245Y179767D01*
X1037143Y185614D02*
X1029347Y185614D01*
X1027398Y187563D01*
X1027398Y191461D01*
X1029347Y193410D01*
X1037143Y193410D01*
X1039092Y191461D01*
X1039092Y187563D01*
X1037143Y185614D01*
X1029347Y193410D01*
D11*
X1082800Y193400D02*
X1104800Y193400D01*
X1104800Y154400D01*
X1100800Y149400D01*
X1086800Y149400D01*
X1082800Y155400D01*
X1082800Y193400D01*
X1083800Y171400D02*
X1104800Y171400D01*
D12*
X1117398Y138838D02*
X1129092Y138838D01*
X1117398Y138838D02*
X1117398Y144685D01*
X1119347Y146634D01*
X1123245Y146634D01*
X1125194Y144685D01*
X1125194Y138838D01*
X1129092Y150532D02*
X1117398Y150532D01*
X1123245Y150532D02*
X1123245Y158328D01*
X1117398Y158328D02*
X1129092Y158328D01*
X1129092Y162226D02*
X1117398Y162226D01*
X1129092Y162226D02*
X1129092Y168073D01*
X1127143Y170022D01*
X1119347Y170022D01*
X1117398Y168073D01*
X1117398Y162226D01*
X1119347Y173920D02*
X1117398Y175869D01*
X1117398Y179767D01*
X1119347Y181716D01*
X1121296Y181716D01*
X1123245Y179767D01*
X1125194Y181716D01*
X1127143Y181716D01*
X1129092Y179767D01*
X1129092Y175869D01*
X1127143Y173920D01*
X1125194Y173920D01*
X1123245Y175869D01*
X1121296Y173920D01*
X1119347Y173920D01*
X1123245Y175869D02*
X1123245Y179767D01*
X1119347Y185614D02*
X1117398Y187563D01*
X1117398Y191461D01*
X1119347Y193410D01*
X1121296Y193410D01*
X1123245Y191461D01*
X1125194Y193410D01*
X1127143Y193410D01*
X1129092Y191461D01*
X1129092Y187563D01*
X1127143Y185614D01*
X1125194Y185614D01*
X1123245Y187563D01*
X1121296Y185614D01*
X1119347Y185614D01*
X1123245Y187563D02*
X1123245Y191461D01*
D11*
X1172800Y193400D02*
X1194800Y193400D01*
X1194800Y154400D01*
X1190800Y149400D01*
X1176800Y149400D01*
X1172800Y155400D01*
X1172800Y193400D01*
X1173800Y171400D02*
X1194800Y171400D01*
D12*
X1207398Y138838D02*
X1219092Y138838D01*
X1207398Y138838D02*
X1207398Y144685D01*
X1209347Y146634D01*
X1213245Y146634D01*
X1215194Y144685D01*
X1215194Y138838D01*
X1219092Y150532D02*
X1207398Y150532D01*
X1213245Y150532D02*
X1213245Y158328D01*
X1207398Y158328D02*
X1219092Y158328D01*
X1219092Y162226D02*
X1207398Y162226D01*
X1219092Y162226D02*
X1219092Y168073D01*
X1217143Y170022D01*
X1209347Y170022D01*
X1207398Y168073D01*
X1207398Y162226D01*
X1217143Y173920D02*
X1219092Y175869D01*
X1219092Y179767D01*
X1217143Y181716D01*
X1209347Y181716D01*
X1207398Y179767D01*
X1207398Y175869D01*
X1209347Y173920D01*
X1211296Y173920D01*
X1213245Y175869D01*
X1213245Y181716D01*
X1209347Y189512D02*
X1207398Y193410D01*
X1209347Y189512D02*
X1213245Y185614D01*
X1217143Y185614D01*
X1219092Y187563D01*
X1219092Y191461D01*
X1217143Y193410D01*
X1215194Y193410D01*
X1213245Y191461D01*
X1213245Y185614D01*
D11*
X204800Y463400D02*
X182800Y463400D01*
X204800Y463400D02*
X204800Y424400D01*
X200800Y419400D01*
X186800Y419400D01*
X182800Y425400D01*
X182800Y463400D01*
X183800Y441400D02*
X204800Y441400D01*
D12*
X217398Y420532D02*
X229092Y420532D01*
X217398Y420532D02*
X217398Y426379D01*
X219347Y428328D01*
X223245Y428328D01*
X225194Y426379D01*
X225194Y420532D01*
X229092Y432226D02*
X217398Y432226D01*
X223245Y432226D02*
X223245Y440022D01*
X217398Y440022D02*
X229092Y440022D01*
X229092Y443920D02*
X217398Y443920D01*
X229092Y443920D02*
X229092Y449767D01*
X227143Y451716D01*
X219347Y451716D01*
X217398Y449767D01*
X217398Y443920D01*
X217398Y455614D02*
X217398Y463410D01*
X217398Y455614D02*
X223245Y455614D01*
X221296Y459512D01*
X221296Y461461D01*
X223245Y463410D01*
X227143Y463410D01*
X229092Y461461D01*
X229092Y457563D01*
X227143Y455614D01*
D11*
X272800Y463400D02*
X294800Y463400D01*
X294800Y424400D01*
X290800Y419400D01*
X276800Y419400D01*
X272800Y425400D01*
X272800Y463400D01*
X273800Y441400D02*
X294800Y441400D01*
D12*
X307398Y408838D02*
X319092Y408838D01*
X307398Y408838D02*
X307398Y414685D01*
X309347Y416634D01*
X313245Y416634D01*
X315194Y414685D01*
X315194Y408838D01*
X319092Y420532D02*
X307398Y420532D01*
X313245Y420532D02*
X313245Y428328D01*
X307398Y428328D02*
X319092Y428328D01*
X319092Y432226D02*
X307398Y432226D01*
X319092Y432226D02*
X319092Y438073D01*
X317143Y440022D01*
X309347Y440022D01*
X307398Y438073D01*
X307398Y432226D01*
X311296Y443920D02*
X307398Y447818D01*
X319092Y447818D01*
X319092Y443920D02*
X319092Y451716D01*
X309347Y455614D02*
X307398Y457563D01*
X307398Y461461D01*
X309347Y463410D01*
X311296Y463410D01*
X313245Y461461D01*
X313245Y459512D01*
X313245Y461461D02*
X315194Y463410D01*
X317143Y463410D01*
X319092Y461461D01*
X319092Y457563D01*
X317143Y455614D01*
D11*
X362800Y463400D02*
X384800Y463400D01*
X384800Y424400D01*
X380800Y419400D01*
X366800Y419400D01*
X362800Y425400D01*
X362800Y463400D01*
X363800Y441400D02*
X384800Y441400D01*
D12*
X397398Y408838D02*
X409092Y408838D01*
X397398Y408838D02*
X397398Y414685D01*
X399347Y416634D01*
X403245Y416634D01*
X405194Y414685D01*
X405194Y408838D01*
X409092Y420532D02*
X397398Y420532D01*
X403245Y420532D02*
X403245Y428328D01*
X397398Y428328D02*
X409092Y428328D01*
X409092Y432226D02*
X397398Y432226D01*
X409092Y432226D02*
X409092Y438073D01*
X407143Y440022D01*
X399347Y440022D01*
X397398Y438073D01*
X397398Y432226D01*
X409092Y443920D02*
X409092Y451716D01*
X409092Y443920D02*
X401296Y451716D01*
X399347Y451716D01*
X397398Y449767D01*
X397398Y445869D01*
X399347Y443920D01*
X401296Y455614D02*
X397398Y459512D01*
X409092Y459512D01*
X409092Y455614D02*
X409092Y463410D01*
D11*
X452800Y463400D02*
X474800Y463400D01*
X474800Y424400D01*
X470800Y419400D01*
X456800Y419400D01*
X452800Y425400D01*
X452800Y463400D01*
X453800Y441400D02*
X474800Y441400D01*
D12*
X487398Y408838D02*
X499092Y408838D01*
X487398Y408838D02*
X487398Y414685D01*
X489347Y416634D01*
X493245Y416634D01*
X495194Y414685D01*
X495194Y408838D01*
X499092Y420532D02*
X487398Y420532D01*
X493245Y420532D02*
X493245Y428328D01*
X487398Y428328D02*
X499092Y428328D01*
X499092Y432226D02*
X487398Y432226D01*
X499092Y432226D02*
X499092Y438073D01*
X497143Y440022D01*
X489347Y440022D01*
X487398Y438073D01*
X487398Y432226D01*
X499092Y443920D02*
X499092Y451716D01*
X499092Y443920D02*
X491296Y451716D01*
X489347Y451716D01*
X487398Y449767D01*
X487398Y445869D01*
X489347Y443920D01*
X497143Y455614D02*
X499092Y457563D01*
X499092Y461461D01*
X497143Y463410D01*
X489347Y463410D01*
X487398Y461461D01*
X487398Y457563D01*
X489347Y455614D01*
X491296Y455614D01*
X493245Y457563D01*
X493245Y463410D01*
D11*
X542800Y463400D02*
X564800Y463400D01*
X564800Y424400D01*
X560800Y419400D01*
X546800Y419400D01*
X542800Y425400D01*
X542800Y463400D01*
X543800Y441400D02*
X564800Y441400D01*
D12*
X577398Y408838D02*
X589092Y408838D01*
X577398Y408838D02*
X577398Y414685D01*
X579347Y416634D01*
X583245Y416634D01*
X585194Y414685D01*
X585194Y408838D01*
X589092Y420532D02*
X577398Y420532D01*
X583245Y420532D02*
X583245Y428328D01*
X577398Y428328D02*
X589092Y428328D01*
X589092Y432226D02*
X577398Y432226D01*
X589092Y432226D02*
X589092Y438073D01*
X587143Y440022D01*
X579347Y440022D01*
X577398Y438073D01*
X577398Y432226D01*
X579347Y443920D02*
X577398Y445869D01*
X577398Y449767D01*
X579347Y451716D01*
X581296Y451716D01*
X583245Y449767D01*
X583245Y447818D01*
X583245Y449767D02*
X585194Y451716D01*
X587143Y451716D01*
X589092Y449767D01*
X589092Y445869D01*
X587143Y443920D01*
X577398Y455614D02*
X577398Y463410D01*
X579347Y463410D01*
X587143Y455614D01*
X589092Y455614D01*
D11*
X632800Y463400D02*
X654800Y463400D01*
X654800Y424400D01*
X650800Y419400D01*
X636800Y419400D01*
X632800Y425400D01*
X632800Y463400D01*
X633800Y441400D02*
X654800Y441400D01*
D12*
X667398Y408838D02*
X679092Y408838D01*
X667398Y408838D02*
X667398Y414685D01*
X669347Y416634D01*
X673245Y416634D01*
X675194Y414685D01*
X675194Y408838D01*
X679092Y420532D02*
X667398Y420532D01*
X673245Y420532D02*
X673245Y428328D01*
X667398Y428328D02*
X679092Y428328D01*
X679092Y432226D02*
X667398Y432226D01*
X679092Y432226D02*
X679092Y438073D01*
X677143Y440022D01*
X669347Y440022D01*
X667398Y438073D01*
X667398Y432226D01*
X667398Y449767D02*
X679092Y449767D01*
X673245Y443920D02*
X667398Y449767D01*
X673245Y451716D02*
X673245Y443920D01*
X667398Y455614D02*
X667398Y463410D01*
X667398Y455614D02*
X673245Y455614D01*
X671296Y459512D01*
X671296Y461461D01*
X673245Y463410D01*
X677143Y463410D01*
X679092Y461461D01*
X679092Y457563D01*
X677143Y455614D01*
D11*
X722800Y463400D02*
X744800Y463400D01*
X744800Y424400D01*
X740800Y419400D01*
X726800Y419400D01*
X722800Y425400D01*
X722800Y463400D01*
X723800Y441400D02*
X744800Y441400D01*
D12*
X757398Y408838D02*
X769092Y408838D01*
X757398Y408838D02*
X757398Y414685D01*
X759347Y416634D01*
X763245Y416634D01*
X765194Y414685D01*
X765194Y408838D01*
X769092Y420532D02*
X757398Y420532D01*
X763245Y420532D02*
X763245Y428328D01*
X757398Y428328D02*
X769092Y428328D01*
X769092Y432226D02*
X757398Y432226D01*
X769092Y432226D02*
X769092Y438073D01*
X767143Y440022D01*
X759347Y440022D01*
X757398Y438073D01*
X757398Y432226D01*
X757398Y443920D02*
X757398Y451716D01*
X757398Y443920D02*
X763245Y443920D01*
X761296Y447818D01*
X761296Y449767D01*
X763245Y451716D01*
X767143Y451716D01*
X769092Y449767D01*
X769092Y445869D01*
X767143Y443920D01*
X759347Y455614D02*
X757398Y457563D01*
X757398Y461461D01*
X759347Y463410D01*
X761296Y463410D01*
X763245Y461461D01*
X763245Y459512D01*
X763245Y461461D02*
X765194Y463410D01*
X767143Y463410D01*
X769092Y461461D01*
X769092Y457563D01*
X767143Y455614D01*
D11*
X812800Y463400D02*
X834800Y463400D01*
X834800Y424400D01*
X830800Y419400D01*
X816800Y419400D01*
X812800Y425400D01*
X812800Y463400D01*
X813800Y441400D02*
X834800Y441400D01*
D12*
X847398Y408838D02*
X859092Y408838D01*
X847398Y408838D02*
X847398Y414685D01*
X849347Y416634D01*
X853245Y416634D01*
X855194Y414685D01*
X855194Y408838D01*
X859092Y420532D02*
X847398Y420532D01*
X853245Y420532D02*
X853245Y428328D01*
X847398Y428328D02*
X859092Y428328D01*
X859092Y432226D02*
X847398Y432226D01*
X859092Y432226D02*
X859092Y438073D01*
X857143Y440022D01*
X849347Y440022D01*
X847398Y438073D01*
X847398Y432226D01*
X849347Y447818D02*
X847398Y451716D01*
X849347Y447818D02*
X853245Y443920D01*
X857143Y443920D01*
X859092Y445869D01*
X859092Y449767D01*
X857143Y451716D01*
X855194Y451716D01*
X853245Y449767D01*
X853245Y443920D01*
X851296Y455614D02*
X847398Y459512D01*
X859092Y459512D01*
X859092Y455614D02*
X859092Y463410D01*
D11*
X902800Y463400D02*
X924800Y463400D01*
X924800Y424400D01*
X920800Y419400D01*
X906800Y419400D01*
X902800Y425400D01*
X902800Y463400D01*
X903800Y441400D02*
X924800Y441400D01*
D12*
X937398Y408838D02*
X949092Y408838D01*
X937398Y408838D02*
X937398Y414685D01*
X939347Y416634D01*
X943245Y416634D01*
X945194Y414685D01*
X945194Y408838D01*
X949092Y420532D02*
X937398Y420532D01*
X943245Y420532D02*
X943245Y428328D01*
X937398Y428328D02*
X949092Y428328D01*
X949092Y432226D02*
X937398Y432226D01*
X949092Y432226D02*
X949092Y438073D01*
X947143Y440022D01*
X939347Y440022D01*
X937398Y438073D01*
X937398Y432226D01*
X939347Y447818D02*
X937398Y451716D01*
X939347Y447818D02*
X943245Y443920D01*
X947143Y443920D01*
X949092Y445869D01*
X949092Y449767D01*
X947143Y451716D01*
X945194Y451716D01*
X943245Y449767D01*
X943245Y443920D01*
X947143Y455614D02*
X949092Y457563D01*
X949092Y461461D01*
X947143Y463410D01*
X939347Y463410D01*
X937398Y461461D01*
X937398Y457563D01*
X939347Y455614D01*
X941296Y455614D01*
X943245Y457563D01*
X943245Y463410D01*
D11*
X992800Y463400D02*
X1014800Y463400D01*
X1014800Y424400D01*
X1010800Y419400D01*
X996800Y419400D01*
X992800Y425400D01*
X992800Y463400D01*
X993800Y441400D02*
X1014800Y441400D01*
D12*
X1027398Y408838D02*
X1039092Y408838D01*
X1027398Y408838D02*
X1027398Y414685D01*
X1029347Y416634D01*
X1033245Y416634D01*
X1035194Y414685D01*
X1035194Y408838D01*
X1039092Y420532D02*
X1027398Y420532D01*
X1033245Y420532D02*
X1033245Y428328D01*
X1027398Y428328D02*
X1039092Y428328D01*
X1039092Y432226D02*
X1027398Y432226D01*
X1039092Y432226D02*
X1039092Y438073D01*
X1037143Y440022D01*
X1029347Y440022D01*
X1027398Y438073D01*
X1027398Y432226D01*
X1027398Y443920D02*
X1027398Y451716D01*
X1029347Y451716D01*
X1037143Y443920D01*
X1039092Y443920D01*
X1027398Y455614D02*
X1027398Y463410D01*
X1029347Y463410D01*
X1037143Y455614D01*
X1039092Y455614D01*
D11*
X1082800Y463400D02*
X1104800Y463400D01*
X1104800Y424400D01*
X1100800Y419400D01*
X1086800Y419400D01*
X1082800Y425400D01*
X1082800Y463400D01*
X1083800Y441400D02*
X1104800Y441400D01*
D12*
X1117398Y408838D02*
X1129092Y408838D01*
X1117398Y408838D02*
X1117398Y414685D01*
X1119347Y416634D01*
X1123245Y416634D01*
X1125194Y414685D01*
X1125194Y408838D01*
X1129092Y420532D02*
X1117398Y420532D01*
X1123245Y420532D02*
X1123245Y428328D01*
X1117398Y428328D02*
X1129092Y428328D01*
X1129092Y432226D02*
X1117398Y432226D01*
X1129092Y432226D02*
X1129092Y438073D01*
X1127143Y440022D01*
X1119347Y440022D01*
X1117398Y438073D01*
X1117398Y432226D01*
X1119347Y443920D02*
X1117398Y445869D01*
X1117398Y449767D01*
X1119347Y451716D01*
X1121296Y451716D01*
X1123245Y449767D01*
X1125194Y451716D01*
X1127143Y451716D01*
X1129092Y449767D01*
X1129092Y445869D01*
X1127143Y443920D01*
X1125194Y443920D01*
X1123245Y445869D01*
X1121296Y443920D01*
X1119347Y443920D01*
X1123245Y445869D02*
X1123245Y449767D01*
X1117398Y455614D02*
X1117398Y463410D01*
X1117398Y455614D02*
X1123245Y455614D01*
X1121296Y459512D01*
X1121296Y461461D01*
X1123245Y463410D01*
X1127143Y463410D01*
X1129092Y461461D01*
X1129092Y457563D01*
X1127143Y455614D01*
D11*
X1172800Y463400D02*
X1194800Y463400D01*
X1194800Y424400D01*
X1190800Y419400D01*
X1176800Y419400D01*
X1172800Y425400D01*
X1172800Y463400D01*
X1173800Y441400D02*
X1194800Y441400D01*
D12*
X1207398Y408838D02*
X1219092Y408838D01*
X1207398Y408838D02*
X1207398Y414685D01*
X1209347Y416634D01*
X1213245Y416634D01*
X1215194Y414685D01*
X1215194Y408838D01*
X1219092Y420532D02*
X1207398Y420532D01*
X1213245Y420532D02*
X1213245Y428328D01*
X1207398Y428328D02*
X1219092Y428328D01*
X1219092Y432226D02*
X1207398Y432226D01*
X1219092Y432226D02*
X1219092Y438073D01*
X1217143Y440022D01*
X1209347Y440022D01*
X1207398Y438073D01*
X1207398Y432226D01*
X1217143Y443920D02*
X1219092Y445869D01*
X1219092Y449767D01*
X1217143Y451716D01*
X1209347Y451716D01*
X1207398Y449767D01*
X1207398Y445869D01*
X1209347Y443920D01*
X1211296Y443920D01*
X1213245Y445869D01*
X1213245Y451716D01*
X1209347Y455614D02*
X1207398Y457563D01*
X1207398Y461461D01*
X1209347Y463410D01*
X1211296Y463410D01*
X1213245Y461461D01*
X1213245Y459512D01*
X1213245Y461461D02*
X1215194Y463410D01*
X1217143Y463410D01*
X1219092Y461461D01*
X1219092Y457563D01*
X1217143Y455614D01*
D13*
X1305000Y703000D02*
X1348000Y703000D01*
X1348000Y797000D01*
X1305000Y797000D01*
D12*
X1286292Y723157D02*
X1284343Y721208D01*
X1286292Y723157D02*
X1286292Y725106D01*
X1284343Y727055D01*
X1274598Y727055D01*
X1274598Y725106D02*
X1274598Y729004D01*
X1278496Y732902D02*
X1274598Y736800D01*
X1286292Y736800D01*
X1286292Y732902D02*
X1286292Y740698D01*
D13*
X1305000Y583000D02*
X1348000Y583000D01*
X1348000Y677000D01*
X1305000Y677000D01*
D12*
X1286292Y603157D02*
X1284343Y601208D01*
X1286292Y603157D02*
X1286292Y605106D01*
X1284343Y607055D01*
X1274598Y607055D01*
X1274598Y605106D02*
X1274598Y609004D01*
X1286292Y612902D02*
X1286292Y620698D01*
X1286292Y612902D02*
X1278496Y620698D01*
X1276547Y620698D01*
X1274598Y618749D01*
X1274598Y614851D01*
X1276547Y612902D01*
M02*
