G04 EAGLE Gerber RS-274X export*
G75*
%MOMM*%
%FSLAX34Y34*%
%LPD*%
%INSoldermask Bottom*%
%IPPOS*%
%AMOC8*
5,1,8,0,0,1.08239X$1,22.5*%
G01*
%ADD10C,3.403200*%
%ADD11R,0.603200X1.403200*%
%ADD12R,2.403200X0.803200*%
%ADD13R,1.303200X1.203200*%
%ADD14C,2.184400*%
%ADD15C,1.219200*%
%ADD16P,1.525737X8X22.500000*%
%ADD17P,1.319650X8X22.500000*%


D10*
X30000Y944800D03*
X1397600Y944800D03*
X1397600Y30000D03*
X30000Y30000D03*
D11*
X203480Y520920D03*
X209980Y520920D03*
X216480Y520920D03*
X222980Y520920D03*
X229480Y520920D03*
X235980Y520920D03*
X242480Y520920D03*
X248980Y520920D03*
X255480Y520920D03*
X261980Y520920D03*
X268480Y520920D03*
X274980Y520920D03*
X274980Y452520D03*
X268480Y452520D03*
X261980Y452520D03*
X255480Y452520D03*
X248980Y452520D03*
X242480Y452520D03*
X235980Y452520D03*
X229480Y452520D03*
X222980Y452520D03*
X216480Y452520D03*
X209980Y452520D03*
X203480Y452520D03*
X743230Y520920D03*
X749730Y520920D03*
X756230Y520920D03*
X762730Y520920D03*
X769230Y520920D03*
X775730Y520920D03*
X782230Y520920D03*
X788730Y520920D03*
X795230Y520920D03*
X801730Y520920D03*
X808230Y520920D03*
X814730Y520920D03*
X814730Y452520D03*
X808230Y452520D03*
X801730Y452520D03*
X795230Y452520D03*
X788730Y452520D03*
X782230Y452520D03*
X775730Y452520D03*
X769230Y452520D03*
X762730Y452520D03*
X756230Y452520D03*
X749730Y452520D03*
X743230Y452520D03*
X923570Y520920D03*
X930070Y520920D03*
X936570Y520920D03*
X943070Y520920D03*
X949570Y520920D03*
X956070Y520920D03*
X962570Y520920D03*
X969070Y520920D03*
X975570Y520920D03*
X982070Y520920D03*
X988570Y520920D03*
X995070Y520920D03*
X995070Y452520D03*
X988570Y452520D03*
X982070Y452520D03*
X975570Y452520D03*
X969070Y452520D03*
X962570Y452520D03*
X956070Y452520D03*
X949570Y452520D03*
X943070Y452520D03*
X936570Y452520D03*
X930070Y452520D03*
X923570Y452520D03*
X383820Y520920D03*
X390320Y520920D03*
X396820Y520920D03*
X403320Y520920D03*
X409820Y520920D03*
X416320Y520920D03*
X422820Y520920D03*
X429320Y520920D03*
X435820Y520920D03*
X442320Y520920D03*
X448820Y520920D03*
X455320Y520920D03*
X455320Y452520D03*
X448820Y452520D03*
X442320Y452520D03*
X435820Y452520D03*
X429320Y452520D03*
X422820Y452520D03*
X416320Y452520D03*
X409820Y452520D03*
X403320Y452520D03*
X396820Y452520D03*
X390320Y452520D03*
X383820Y452520D03*
X1103910Y520920D03*
X1110410Y520920D03*
X1116910Y520920D03*
X1123410Y520920D03*
X1129910Y520920D03*
X1136410Y520920D03*
X1142910Y520920D03*
X1149410Y520920D03*
X1155910Y520920D03*
X1162410Y520920D03*
X1168910Y520920D03*
X1175410Y520920D03*
X1175410Y452520D03*
X1168910Y452520D03*
X1162410Y452520D03*
X1155910Y452520D03*
X1149410Y452520D03*
X1142910Y452520D03*
X1136410Y452520D03*
X1129910Y452520D03*
X1123410Y452520D03*
X1116910Y452520D03*
X1110410Y452520D03*
X1103910Y452520D03*
X564160Y520920D03*
X570660Y520920D03*
X577160Y520920D03*
X583660Y520920D03*
X590160Y520920D03*
X596660Y520920D03*
X603160Y520920D03*
X609660Y520920D03*
X616160Y520920D03*
X622660Y520920D03*
X629160Y520920D03*
X635660Y520920D03*
X635660Y452520D03*
X629160Y452520D03*
X622660Y452520D03*
X616160Y452520D03*
X609660Y452520D03*
X603160Y452520D03*
X596660Y452520D03*
X590160Y452520D03*
X583660Y452520D03*
X577160Y452520D03*
X570660Y452520D03*
X564160Y452520D03*
D12*
X211960Y822000D03*
X263960Y822000D03*
X211960Y809300D03*
X211960Y834700D03*
X211960Y847400D03*
X263960Y809300D03*
X263960Y834700D03*
X263960Y847400D03*
X211960Y872800D03*
X263960Y872800D03*
X211960Y860100D03*
X211960Y885500D03*
X263960Y860100D03*
X263960Y885500D03*
X211960Y632770D03*
X263960Y632770D03*
X211960Y620070D03*
X211960Y645470D03*
X211960Y658170D03*
X263960Y620070D03*
X263960Y645470D03*
X263960Y658170D03*
X211960Y683570D03*
X263960Y683570D03*
X211960Y670870D03*
X211960Y696270D03*
X263960Y670870D03*
X263960Y696270D03*
X213230Y280980D03*
X265230Y280980D03*
X213230Y268280D03*
X213230Y293680D03*
X213230Y306380D03*
X265230Y268280D03*
X265230Y293680D03*
X265230Y306380D03*
X213230Y331780D03*
X265230Y331780D03*
X213230Y319080D03*
X213230Y344480D03*
X265230Y319080D03*
X265230Y344480D03*
X213230Y103180D03*
X265230Y103180D03*
X213230Y90480D03*
X213230Y115880D03*
X213230Y128580D03*
X265230Y90480D03*
X265230Y115880D03*
X265230Y128580D03*
X213230Y153980D03*
X265230Y153980D03*
X213230Y141280D03*
X213230Y166680D03*
X265230Y141280D03*
X265230Y166680D03*
X392300Y822000D03*
X444300Y822000D03*
X392300Y809300D03*
X392300Y834700D03*
X392300Y847400D03*
X444300Y809300D03*
X444300Y834700D03*
X444300Y847400D03*
X392300Y872800D03*
X444300Y872800D03*
X392300Y860100D03*
X392300Y885500D03*
X444300Y860100D03*
X444300Y885500D03*
X392300Y632770D03*
X444300Y632770D03*
X392300Y620070D03*
X392300Y645470D03*
X392300Y658170D03*
X444300Y620070D03*
X444300Y645470D03*
X444300Y658170D03*
X392300Y683570D03*
X444300Y683570D03*
X392300Y670870D03*
X392300Y696270D03*
X444300Y670870D03*
X444300Y696270D03*
X392300Y280980D03*
X444300Y280980D03*
X392300Y268280D03*
X392300Y293680D03*
X392300Y306380D03*
X444300Y268280D03*
X444300Y293680D03*
X444300Y306380D03*
X392300Y331780D03*
X444300Y331780D03*
X392300Y319080D03*
X392300Y344480D03*
X444300Y319080D03*
X444300Y344480D03*
X392300Y103180D03*
X444300Y103180D03*
X392300Y90480D03*
X392300Y115880D03*
X392300Y128580D03*
X444300Y90480D03*
X444300Y115880D03*
X444300Y128580D03*
X392300Y153980D03*
X444300Y153980D03*
X392300Y141280D03*
X392300Y166680D03*
X444300Y141280D03*
X444300Y166680D03*
X572640Y822000D03*
X624640Y822000D03*
X572640Y809300D03*
X572640Y834700D03*
X572640Y847400D03*
X624640Y809300D03*
X624640Y834700D03*
X624640Y847400D03*
X572640Y872800D03*
X624640Y872800D03*
X572640Y860100D03*
X572640Y885500D03*
X624640Y860100D03*
X624640Y885500D03*
X572640Y632770D03*
X624640Y632770D03*
X572640Y620070D03*
X572640Y645470D03*
X572640Y658170D03*
X624640Y620070D03*
X624640Y645470D03*
X624640Y658170D03*
X572640Y683570D03*
X624640Y683570D03*
X572640Y670870D03*
X572640Y696270D03*
X624640Y670870D03*
X624640Y696270D03*
X572640Y280980D03*
X624640Y280980D03*
X572640Y268280D03*
X572640Y293680D03*
X572640Y306380D03*
X624640Y268280D03*
X624640Y293680D03*
X624640Y306380D03*
X572640Y331780D03*
X624640Y331780D03*
X572640Y319080D03*
X572640Y344480D03*
X624640Y319080D03*
X624640Y344480D03*
X572640Y103180D03*
X624640Y103180D03*
X572640Y90480D03*
X572640Y115880D03*
X572640Y128580D03*
X624640Y90480D03*
X624640Y115880D03*
X624640Y128580D03*
X572640Y153980D03*
X624640Y153980D03*
X572640Y141280D03*
X572640Y166680D03*
X624640Y141280D03*
X624640Y166680D03*
X752980Y822000D03*
X804980Y822000D03*
X752980Y809300D03*
X752980Y834700D03*
X752980Y847400D03*
X804980Y809300D03*
X804980Y834700D03*
X804980Y847400D03*
X752980Y872800D03*
X804980Y872800D03*
X752980Y860100D03*
X752980Y885500D03*
X804980Y860100D03*
X804980Y885500D03*
X933320Y280980D03*
X985320Y280980D03*
X933320Y268280D03*
X933320Y293680D03*
X933320Y306380D03*
X985320Y268280D03*
X985320Y293680D03*
X985320Y306380D03*
X933320Y331780D03*
X985320Y331780D03*
X933320Y319080D03*
X933320Y344480D03*
X985320Y319080D03*
X985320Y344480D03*
X752980Y632770D03*
X804980Y632770D03*
X752980Y620070D03*
X752980Y645470D03*
X752980Y658170D03*
X804980Y620070D03*
X804980Y645470D03*
X804980Y658170D03*
X752980Y683570D03*
X804980Y683570D03*
X752980Y670870D03*
X752980Y696270D03*
X804980Y670870D03*
X804980Y696270D03*
X933320Y103180D03*
X985320Y103180D03*
X933320Y90480D03*
X933320Y115880D03*
X933320Y128580D03*
X985320Y90480D03*
X985320Y115880D03*
X985320Y128580D03*
X933320Y153980D03*
X985320Y153980D03*
X933320Y141280D03*
X933320Y166680D03*
X985320Y141280D03*
X985320Y166680D03*
X752980Y280980D03*
X804980Y280980D03*
X752980Y268280D03*
X752980Y293680D03*
X752980Y306380D03*
X804980Y268280D03*
X804980Y293680D03*
X804980Y306380D03*
X752980Y331780D03*
X804980Y331780D03*
X752980Y319080D03*
X752980Y344480D03*
X804980Y319080D03*
X804980Y344480D03*
X1112390Y822000D03*
X1164390Y822000D03*
X1112390Y809300D03*
X1112390Y834700D03*
X1112390Y847400D03*
X1164390Y809300D03*
X1164390Y834700D03*
X1164390Y847400D03*
X1112390Y872800D03*
X1164390Y872800D03*
X1112390Y860100D03*
X1112390Y885500D03*
X1164390Y860100D03*
X1164390Y885500D03*
X752980Y103180D03*
X804980Y103180D03*
X752980Y90480D03*
X752980Y115880D03*
X752980Y128580D03*
X804980Y90480D03*
X804980Y115880D03*
X804980Y128580D03*
X752980Y153980D03*
X804980Y153980D03*
X752980Y141280D03*
X752980Y166680D03*
X804980Y141280D03*
X804980Y166680D03*
X1112390Y632770D03*
X1164390Y632770D03*
X1112390Y620070D03*
X1112390Y645470D03*
X1112390Y658170D03*
X1164390Y620070D03*
X1164390Y645470D03*
X1164390Y658170D03*
X1112390Y683570D03*
X1164390Y683570D03*
X1112390Y670870D03*
X1112390Y696270D03*
X1164390Y670870D03*
X1164390Y696270D03*
X933320Y822000D03*
X985320Y822000D03*
X933320Y809300D03*
X933320Y834700D03*
X933320Y847400D03*
X985320Y809300D03*
X985320Y834700D03*
X985320Y847400D03*
X933320Y872800D03*
X985320Y872800D03*
X933320Y860100D03*
X933320Y885500D03*
X985320Y860100D03*
X985320Y885500D03*
X1112390Y280980D03*
X1164390Y280980D03*
X1112390Y268280D03*
X1112390Y293680D03*
X1112390Y306380D03*
X1164390Y268280D03*
X1164390Y293680D03*
X1164390Y306380D03*
X1112390Y331780D03*
X1164390Y331780D03*
X1112390Y319080D03*
X1112390Y344480D03*
X1164390Y319080D03*
X1164390Y344480D03*
X933320Y632770D03*
X985320Y632770D03*
X933320Y620070D03*
X933320Y645470D03*
X933320Y658170D03*
X985320Y620070D03*
X985320Y645470D03*
X985320Y658170D03*
X933320Y683570D03*
X985320Y683570D03*
X933320Y670870D03*
X933320Y696270D03*
X985320Y670870D03*
X985320Y696270D03*
X1112390Y103180D03*
X1164390Y103180D03*
X1112390Y90480D03*
X1112390Y115880D03*
X1112390Y128580D03*
X1164390Y90480D03*
X1164390Y115880D03*
X1164390Y128580D03*
X1112390Y153980D03*
X1164390Y153980D03*
X1112390Y141280D03*
X1112390Y166680D03*
X1164390Y141280D03*
X1164390Y166680D03*
D13*
X185890Y817800D03*
X185890Y800800D03*
X185890Y875730D03*
X185890Y892730D03*
X290030Y875730D03*
X290030Y892730D03*
X290030Y817800D03*
X290030Y800800D03*
X185890Y631110D03*
X185890Y614110D03*
X185890Y686500D03*
X185890Y703500D03*
X290030Y686500D03*
X290030Y703500D03*
X290030Y629840D03*
X290030Y612840D03*
X187160Y278050D03*
X187160Y261050D03*
X187160Y100250D03*
X187160Y83250D03*
X187160Y334710D03*
X187160Y351710D03*
X187160Y156910D03*
X187160Y173910D03*
X291300Y334710D03*
X291300Y351710D03*
X291300Y156910D03*
X291300Y173910D03*
X291300Y278050D03*
X291300Y261050D03*
X291300Y100250D03*
X291300Y83250D03*
X366230Y819070D03*
X366230Y802070D03*
X366230Y628570D03*
X366230Y611570D03*
X366230Y875730D03*
X366230Y892730D03*
X366230Y687770D03*
X366230Y704770D03*
X470370Y875730D03*
X470370Y892730D03*
X470370Y687770D03*
X470370Y704770D03*
X470370Y819070D03*
X470370Y802070D03*
X470370Y628570D03*
X470370Y611570D03*
X650710Y276780D03*
X650710Y259780D03*
X650710Y334710D03*
X650710Y351710D03*
X546570Y334710D03*
X546570Y351710D03*
X546570Y276780D03*
X546570Y259780D03*
X650710Y817800D03*
X650710Y800800D03*
X650710Y877000D03*
X650710Y894000D03*
X546570Y877000D03*
X546570Y894000D03*
X546570Y817800D03*
X546570Y800800D03*
X470370Y276780D03*
X470370Y259780D03*
X470370Y334710D03*
X470370Y351710D03*
X366230Y335980D03*
X366230Y352980D03*
X366230Y278050D03*
X366230Y261050D03*
X366230Y98980D03*
X366230Y81980D03*
X726910Y817800D03*
X726910Y800800D03*
X366230Y158180D03*
X366230Y175180D03*
X726910Y877000D03*
X726910Y894000D03*
X470370Y156910D03*
X470370Y173910D03*
X831050Y877000D03*
X831050Y894000D03*
X470370Y98980D03*
X470370Y81980D03*
X831050Y817800D03*
X831050Y800800D03*
X546570Y628570D03*
X546570Y611570D03*
X726910Y628570D03*
X726910Y611570D03*
X546570Y686500D03*
X546570Y703500D03*
X726910Y687770D03*
X726910Y704770D03*
X650710Y687770D03*
X650710Y704770D03*
X831050Y687770D03*
X831050Y704770D03*
X650710Y628570D03*
X650710Y611570D03*
X831050Y629840D03*
X831050Y612840D03*
X546570Y98980D03*
X546570Y81980D03*
X726910Y276780D03*
X726910Y259780D03*
X546570Y158180D03*
X546570Y175180D03*
X726910Y334710D03*
X726910Y351710D03*
X650710Y156910D03*
X650710Y173910D03*
X831050Y335980D03*
X831050Y352980D03*
X650710Y98980D03*
X650710Y81980D03*
X831050Y276780D03*
X831050Y259780D03*
X1011390Y628570D03*
X1011390Y611570D03*
X1190460Y817800D03*
X1190460Y800800D03*
X1190460Y877000D03*
X1190460Y894000D03*
X1011390Y686500D03*
X1011390Y703500D03*
X1086320Y875730D03*
X1086320Y892730D03*
X907250Y687770D03*
X907250Y704770D03*
X1086320Y817800D03*
X1086320Y800800D03*
X904710Y628570D03*
X904710Y611570D03*
X1011390Y98980D03*
X1011390Y81980D03*
X1011390Y817800D03*
X1011390Y800800D03*
X1011390Y156910D03*
X1011390Y173910D03*
X1011390Y877000D03*
X1011390Y894000D03*
X907250Y159450D03*
X907250Y176450D03*
X907250Y875730D03*
X907250Y892730D03*
X907250Y98980D03*
X907250Y81980D03*
X907250Y817800D03*
X907250Y800800D03*
X1011390Y276780D03*
X1011390Y259780D03*
X831050Y98980D03*
X831050Y81980D03*
X1011390Y335980D03*
X1011390Y352980D03*
X831050Y158180D03*
X831050Y175180D03*
X907250Y335980D03*
X907250Y352980D03*
X726910Y156910D03*
X726910Y173910D03*
X907250Y276780D03*
X907250Y259780D03*
X726910Y98980D03*
X726910Y81980D03*
X1086320Y628570D03*
X1086320Y611570D03*
X1086320Y687770D03*
X1086320Y704770D03*
X1190460Y687770D03*
X1190460Y704770D03*
X1190460Y628570D03*
X1190460Y611570D03*
X1086320Y276780D03*
X1086320Y259780D03*
X1085050Y335980D03*
X1085050Y352980D03*
X1190460Y334710D03*
X1190460Y351710D03*
X1190460Y276780D03*
X1190460Y259780D03*
X1086320Y98980D03*
X1086320Y81980D03*
X1086320Y158180D03*
X1086320Y175180D03*
X1190460Y158180D03*
X1190460Y175180D03*
X1190460Y98980D03*
X1190460Y81980D03*
X246460Y905820D03*
X229460Y905820D03*
X246460Y716590D03*
X229460Y716590D03*
X247730Y364800D03*
X230730Y364800D03*
X247730Y187000D03*
X230730Y187000D03*
X1148160Y364800D03*
X1131160Y364800D03*
X426800Y905820D03*
X409800Y905820D03*
X426800Y716590D03*
X409800Y716590D03*
X426800Y364800D03*
X409800Y364800D03*
X426800Y187000D03*
X409800Y187000D03*
X607140Y905820D03*
X590140Y905820D03*
X605870Y716590D03*
X588870Y716590D03*
X607140Y364800D03*
X590140Y364800D03*
X607140Y187000D03*
X590140Y187000D03*
X787480Y905820D03*
X770480Y905820D03*
X787480Y716590D03*
X770480Y716590D03*
X787480Y364800D03*
X770480Y364800D03*
X787480Y187000D03*
X770480Y187000D03*
X967820Y905820D03*
X950820Y905820D03*
X967820Y716590D03*
X950820Y716590D03*
X967820Y364800D03*
X950820Y364800D03*
X967820Y187000D03*
X950820Y187000D03*
X1146890Y905820D03*
X1129890Y905820D03*
X1146890Y716590D03*
X1129890Y716590D03*
X1146890Y187000D03*
X1129890Y187000D03*
D14*
X115000Y900000D02*
X115002Y900141D01*
X115008Y900282D01*
X115018Y900422D01*
X115032Y900562D01*
X115050Y900702D01*
X115071Y900841D01*
X115097Y900980D01*
X115126Y901118D01*
X115160Y901254D01*
X115197Y901390D01*
X115238Y901525D01*
X115283Y901659D01*
X115332Y901791D01*
X115384Y901922D01*
X115440Y902051D01*
X115500Y902178D01*
X115563Y902304D01*
X115629Y902428D01*
X115700Y902551D01*
X115773Y902671D01*
X115850Y902789D01*
X115930Y902905D01*
X116014Y903018D01*
X116100Y903129D01*
X116190Y903238D01*
X116283Y903344D01*
X116378Y903447D01*
X116477Y903548D01*
X116578Y903646D01*
X116682Y903741D01*
X116789Y903833D01*
X116898Y903922D01*
X117010Y904007D01*
X117124Y904090D01*
X117240Y904170D01*
X117359Y904246D01*
X117480Y904318D01*
X117602Y904388D01*
X117727Y904453D01*
X117853Y904516D01*
X117981Y904574D01*
X118111Y904629D01*
X118242Y904681D01*
X118375Y904728D01*
X118509Y904772D01*
X118644Y904813D01*
X118780Y904849D01*
X118917Y904881D01*
X119055Y904910D01*
X119193Y904935D01*
X119333Y904955D01*
X119473Y904972D01*
X119613Y904985D01*
X119754Y904994D01*
X119894Y904999D01*
X120035Y905000D01*
X120176Y904997D01*
X120317Y904990D01*
X120457Y904979D01*
X120597Y904964D01*
X120737Y904945D01*
X120876Y904923D01*
X121014Y904896D01*
X121152Y904866D01*
X121288Y904831D01*
X121424Y904793D01*
X121558Y904751D01*
X121692Y904705D01*
X121824Y904656D01*
X121954Y904602D01*
X122083Y904545D01*
X122210Y904485D01*
X122336Y904421D01*
X122459Y904353D01*
X122581Y904282D01*
X122701Y904208D01*
X122818Y904130D01*
X122933Y904049D01*
X123046Y903965D01*
X123157Y903878D01*
X123265Y903787D01*
X123370Y903694D01*
X123473Y903597D01*
X123573Y903498D01*
X123670Y903396D01*
X123764Y903291D01*
X123855Y903184D01*
X123943Y903074D01*
X124028Y902962D01*
X124110Y902847D01*
X124189Y902730D01*
X124264Y902611D01*
X124336Y902490D01*
X124404Y902367D01*
X124469Y902242D01*
X124531Y902115D01*
X124588Y901986D01*
X124643Y901856D01*
X124693Y901725D01*
X124740Y901592D01*
X124783Y901458D01*
X124822Y901322D01*
X124857Y901186D01*
X124889Y901049D01*
X124916Y900911D01*
X124940Y900772D01*
X124960Y900632D01*
X124976Y900492D01*
X124988Y900352D01*
X124996Y900211D01*
X125000Y900070D01*
X125000Y899930D01*
X124996Y899789D01*
X124988Y899648D01*
X124976Y899508D01*
X124960Y899368D01*
X124940Y899228D01*
X124916Y899089D01*
X124889Y898951D01*
X124857Y898814D01*
X124822Y898678D01*
X124783Y898542D01*
X124740Y898408D01*
X124693Y898275D01*
X124643Y898144D01*
X124588Y898014D01*
X124531Y897885D01*
X124469Y897758D01*
X124404Y897633D01*
X124336Y897510D01*
X124264Y897389D01*
X124189Y897270D01*
X124110Y897153D01*
X124028Y897038D01*
X123943Y896926D01*
X123855Y896816D01*
X123764Y896709D01*
X123670Y896604D01*
X123573Y896502D01*
X123473Y896403D01*
X123370Y896306D01*
X123265Y896213D01*
X123157Y896122D01*
X123046Y896035D01*
X122933Y895951D01*
X122818Y895870D01*
X122701Y895792D01*
X122581Y895718D01*
X122459Y895647D01*
X122336Y895579D01*
X122210Y895515D01*
X122083Y895455D01*
X121954Y895398D01*
X121824Y895344D01*
X121692Y895295D01*
X121558Y895249D01*
X121424Y895207D01*
X121288Y895169D01*
X121152Y895134D01*
X121014Y895104D01*
X120876Y895077D01*
X120737Y895055D01*
X120597Y895036D01*
X120457Y895021D01*
X120317Y895010D01*
X120176Y895003D01*
X120035Y895000D01*
X119894Y895001D01*
X119754Y895006D01*
X119613Y895015D01*
X119473Y895028D01*
X119333Y895045D01*
X119193Y895065D01*
X119055Y895090D01*
X118917Y895119D01*
X118780Y895151D01*
X118644Y895187D01*
X118509Y895228D01*
X118375Y895272D01*
X118242Y895319D01*
X118111Y895371D01*
X117981Y895426D01*
X117853Y895484D01*
X117727Y895547D01*
X117602Y895612D01*
X117480Y895682D01*
X117359Y895754D01*
X117240Y895830D01*
X117124Y895910D01*
X117010Y895993D01*
X116898Y896078D01*
X116789Y896167D01*
X116682Y896259D01*
X116578Y896354D01*
X116477Y896452D01*
X116378Y896553D01*
X116283Y896656D01*
X116190Y896762D01*
X116100Y896871D01*
X116014Y896982D01*
X115930Y897095D01*
X115850Y897211D01*
X115773Y897329D01*
X115700Y897449D01*
X115629Y897572D01*
X115563Y897696D01*
X115500Y897822D01*
X115440Y897949D01*
X115384Y898078D01*
X115332Y898209D01*
X115283Y898341D01*
X115238Y898475D01*
X115197Y898610D01*
X115160Y898746D01*
X115126Y898882D01*
X115097Y899020D01*
X115071Y899159D01*
X115050Y899298D01*
X115032Y899438D01*
X115018Y899578D01*
X115008Y899718D01*
X115002Y899859D01*
X115000Y900000D01*
D15*
X120000Y900000D03*
D14*
X115000Y110000D02*
X115002Y110141D01*
X115008Y110282D01*
X115018Y110422D01*
X115032Y110562D01*
X115050Y110702D01*
X115071Y110841D01*
X115097Y110980D01*
X115126Y111118D01*
X115160Y111254D01*
X115197Y111390D01*
X115238Y111525D01*
X115283Y111659D01*
X115332Y111791D01*
X115384Y111922D01*
X115440Y112051D01*
X115500Y112178D01*
X115563Y112304D01*
X115629Y112428D01*
X115700Y112551D01*
X115773Y112671D01*
X115850Y112789D01*
X115930Y112905D01*
X116014Y113018D01*
X116100Y113129D01*
X116190Y113238D01*
X116283Y113344D01*
X116378Y113447D01*
X116477Y113548D01*
X116578Y113646D01*
X116682Y113741D01*
X116789Y113833D01*
X116898Y113922D01*
X117010Y114007D01*
X117124Y114090D01*
X117240Y114170D01*
X117359Y114246D01*
X117480Y114318D01*
X117602Y114388D01*
X117727Y114453D01*
X117853Y114516D01*
X117981Y114574D01*
X118111Y114629D01*
X118242Y114681D01*
X118375Y114728D01*
X118509Y114772D01*
X118644Y114813D01*
X118780Y114849D01*
X118917Y114881D01*
X119055Y114910D01*
X119193Y114935D01*
X119333Y114955D01*
X119473Y114972D01*
X119613Y114985D01*
X119754Y114994D01*
X119894Y114999D01*
X120035Y115000D01*
X120176Y114997D01*
X120317Y114990D01*
X120457Y114979D01*
X120597Y114964D01*
X120737Y114945D01*
X120876Y114923D01*
X121014Y114896D01*
X121152Y114866D01*
X121288Y114831D01*
X121424Y114793D01*
X121558Y114751D01*
X121692Y114705D01*
X121824Y114656D01*
X121954Y114602D01*
X122083Y114545D01*
X122210Y114485D01*
X122336Y114421D01*
X122459Y114353D01*
X122581Y114282D01*
X122701Y114208D01*
X122818Y114130D01*
X122933Y114049D01*
X123046Y113965D01*
X123157Y113878D01*
X123265Y113787D01*
X123370Y113694D01*
X123473Y113597D01*
X123573Y113498D01*
X123670Y113396D01*
X123764Y113291D01*
X123855Y113184D01*
X123943Y113074D01*
X124028Y112962D01*
X124110Y112847D01*
X124189Y112730D01*
X124264Y112611D01*
X124336Y112490D01*
X124404Y112367D01*
X124469Y112242D01*
X124531Y112115D01*
X124588Y111986D01*
X124643Y111856D01*
X124693Y111725D01*
X124740Y111592D01*
X124783Y111458D01*
X124822Y111322D01*
X124857Y111186D01*
X124889Y111049D01*
X124916Y110911D01*
X124940Y110772D01*
X124960Y110632D01*
X124976Y110492D01*
X124988Y110352D01*
X124996Y110211D01*
X125000Y110070D01*
X125000Y109930D01*
X124996Y109789D01*
X124988Y109648D01*
X124976Y109508D01*
X124960Y109368D01*
X124940Y109228D01*
X124916Y109089D01*
X124889Y108951D01*
X124857Y108814D01*
X124822Y108678D01*
X124783Y108542D01*
X124740Y108408D01*
X124693Y108275D01*
X124643Y108144D01*
X124588Y108014D01*
X124531Y107885D01*
X124469Y107758D01*
X124404Y107633D01*
X124336Y107510D01*
X124264Y107389D01*
X124189Y107270D01*
X124110Y107153D01*
X124028Y107038D01*
X123943Y106926D01*
X123855Y106816D01*
X123764Y106709D01*
X123670Y106604D01*
X123573Y106502D01*
X123473Y106403D01*
X123370Y106306D01*
X123265Y106213D01*
X123157Y106122D01*
X123046Y106035D01*
X122933Y105951D01*
X122818Y105870D01*
X122701Y105792D01*
X122581Y105718D01*
X122459Y105647D01*
X122336Y105579D01*
X122210Y105515D01*
X122083Y105455D01*
X121954Y105398D01*
X121824Y105344D01*
X121692Y105295D01*
X121558Y105249D01*
X121424Y105207D01*
X121288Y105169D01*
X121152Y105134D01*
X121014Y105104D01*
X120876Y105077D01*
X120737Y105055D01*
X120597Y105036D01*
X120457Y105021D01*
X120317Y105010D01*
X120176Y105003D01*
X120035Y105000D01*
X119894Y105001D01*
X119754Y105006D01*
X119613Y105015D01*
X119473Y105028D01*
X119333Y105045D01*
X119193Y105065D01*
X119055Y105090D01*
X118917Y105119D01*
X118780Y105151D01*
X118644Y105187D01*
X118509Y105228D01*
X118375Y105272D01*
X118242Y105319D01*
X118111Y105371D01*
X117981Y105426D01*
X117853Y105484D01*
X117727Y105547D01*
X117602Y105612D01*
X117480Y105682D01*
X117359Y105754D01*
X117240Y105830D01*
X117124Y105910D01*
X117010Y105993D01*
X116898Y106078D01*
X116789Y106167D01*
X116682Y106259D01*
X116578Y106354D01*
X116477Y106452D01*
X116378Y106553D01*
X116283Y106656D01*
X116190Y106762D01*
X116100Y106871D01*
X116014Y106982D01*
X115930Y107095D01*
X115850Y107211D01*
X115773Y107329D01*
X115700Y107449D01*
X115629Y107572D01*
X115563Y107696D01*
X115500Y107822D01*
X115440Y107949D01*
X115384Y108078D01*
X115332Y108209D01*
X115283Y108341D01*
X115238Y108475D01*
X115197Y108610D01*
X115160Y108746D01*
X115126Y108882D01*
X115097Y109020D01*
X115071Y109159D01*
X115050Y109298D01*
X115032Y109438D01*
X115018Y109578D01*
X115008Y109718D01*
X115002Y109859D01*
X115000Y110000D01*
D15*
X120000Y110000D03*
D14*
X1315000Y870000D02*
X1315002Y870141D01*
X1315008Y870282D01*
X1315018Y870422D01*
X1315032Y870562D01*
X1315050Y870702D01*
X1315071Y870841D01*
X1315097Y870980D01*
X1315126Y871118D01*
X1315160Y871254D01*
X1315197Y871390D01*
X1315238Y871525D01*
X1315283Y871659D01*
X1315332Y871791D01*
X1315384Y871922D01*
X1315440Y872051D01*
X1315500Y872178D01*
X1315563Y872304D01*
X1315629Y872428D01*
X1315700Y872551D01*
X1315773Y872671D01*
X1315850Y872789D01*
X1315930Y872905D01*
X1316014Y873018D01*
X1316100Y873129D01*
X1316190Y873238D01*
X1316283Y873344D01*
X1316378Y873447D01*
X1316477Y873548D01*
X1316578Y873646D01*
X1316682Y873741D01*
X1316789Y873833D01*
X1316898Y873922D01*
X1317010Y874007D01*
X1317124Y874090D01*
X1317240Y874170D01*
X1317359Y874246D01*
X1317480Y874318D01*
X1317602Y874388D01*
X1317727Y874453D01*
X1317853Y874516D01*
X1317981Y874574D01*
X1318111Y874629D01*
X1318242Y874681D01*
X1318375Y874728D01*
X1318509Y874772D01*
X1318644Y874813D01*
X1318780Y874849D01*
X1318917Y874881D01*
X1319055Y874910D01*
X1319193Y874935D01*
X1319333Y874955D01*
X1319473Y874972D01*
X1319613Y874985D01*
X1319754Y874994D01*
X1319894Y874999D01*
X1320035Y875000D01*
X1320176Y874997D01*
X1320317Y874990D01*
X1320457Y874979D01*
X1320597Y874964D01*
X1320737Y874945D01*
X1320876Y874923D01*
X1321014Y874896D01*
X1321152Y874866D01*
X1321288Y874831D01*
X1321424Y874793D01*
X1321558Y874751D01*
X1321692Y874705D01*
X1321824Y874656D01*
X1321954Y874602D01*
X1322083Y874545D01*
X1322210Y874485D01*
X1322336Y874421D01*
X1322459Y874353D01*
X1322581Y874282D01*
X1322701Y874208D01*
X1322818Y874130D01*
X1322933Y874049D01*
X1323046Y873965D01*
X1323157Y873878D01*
X1323265Y873787D01*
X1323370Y873694D01*
X1323473Y873597D01*
X1323573Y873498D01*
X1323670Y873396D01*
X1323764Y873291D01*
X1323855Y873184D01*
X1323943Y873074D01*
X1324028Y872962D01*
X1324110Y872847D01*
X1324189Y872730D01*
X1324264Y872611D01*
X1324336Y872490D01*
X1324404Y872367D01*
X1324469Y872242D01*
X1324531Y872115D01*
X1324588Y871986D01*
X1324643Y871856D01*
X1324693Y871725D01*
X1324740Y871592D01*
X1324783Y871458D01*
X1324822Y871322D01*
X1324857Y871186D01*
X1324889Y871049D01*
X1324916Y870911D01*
X1324940Y870772D01*
X1324960Y870632D01*
X1324976Y870492D01*
X1324988Y870352D01*
X1324996Y870211D01*
X1325000Y870070D01*
X1325000Y869930D01*
X1324996Y869789D01*
X1324988Y869648D01*
X1324976Y869508D01*
X1324960Y869368D01*
X1324940Y869228D01*
X1324916Y869089D01*
X1324889Y868951D01*
X1324857Y868814D01*
X1324822Y868678D01*
X1324783Y868542D01*
X1324740Y868408D01*
X1324693Y868275D01*
X1324643Y868144D01*
X1324588Y868014D01*
X1324531Y867885D01*
X1324469Y867758D01*
X1324404Y867633D01*
X1324336Y867510D01*
X1324264Y867389D01*
X1324189Y867270D01*
X1324110Y867153D01*
X1324028Y867038D01*
X1323943Y866926D01*
X1323855Y866816D01*
X1323764Y866709D01*
X1323670Y866604D01*
X1323573Y866502D01*
X1323473Y866403D01*
X1323370Y866306D01*
X1323265Y866213D01*
X1323157Y866122D01*
X1323046Y866035D01*
X1322933Y865951D01*
X1322818Y865870D01*
X1322701Y865792D01*
X1322581Y865718D01*
X1322459Y865647D01*
X1322336Y865579D01*
X1322210Y865515D01*
X1322083Y865455D01*
X1321954Y865398D01*
X1321824Y865344D01*
X1321692Y865295D01*
X1321558Y865249D01*
X1321424Y865207D01*
X1321288Y865169D01*
X1321152Y865134D01*
X1321014Y865104D01*
X1320876Y865077D01*
X1320737Y865055D01*
X1320597Y865036D01*
X1320457Y865021D01*
X1320317Y865010D01*
X1320176Y865003D01*
X1320035Y865000D01*
X1319894Y865001D01*
X1319754Y865006D01*
X1319613Y865015D01*
X1319473Y865028D01*
X1319333Y865045D01*
X1319193Y865065D01*
X1319055Y865090D01*
X1318917Y865119D01*
X1318780Y865151D01*
X1318644Y865187D01*
X1318509Y865228D01*
X1318375Y865272D01*
X1318242Y865319D01*
X1318111Y865371D01*
X1317981Y865426D01*
X1317853Y865484D01*
X1317727Y865547D01*
X1317602Y865612D01*
X1317480Y865682D01*
X1317359Y865754D01*
X1317240Y865830D01*
X1317124Y865910D01*
X1317010Y865993D01*
X1316898Y866078D01*
X1316789Y866167D01*
X1316682Y866259D01*
X1316578Y866354D01*
X1316477Y866452D01*
X1316378Y866553D01*
X1316283Y866656D01*
X1316190Y866762D01*
X1316100Y866871D01*
X1316014Y866982D01*
X1315930Y867095D01*
X1315850Y867211D01*
X1315773Y867329D01*
X1315700Y867449D01*
X1315629Y867572D01*
X1315563Y867696D01*
X1315500Y867822D01*
X1315440Y867949D01*
X1315384Y868078D01*
X1315332Y868209D01*
X1315283Y868341D01*
X1315238Y868475D01*
X1315197Y868610D01*
X1315160Y868746D01*
X1315126Y868882D01*
X1315097Y869020D01*
X1315071Y869159D01*
X1315050Y869298D01*
X1315032Y869438D01*
X1315018Y869578D01*
X1315008Y869718D01*
X1315002Y869859D01*
X1315000Y870000D01*
D15*
X1320000Y870000D03*
D16*
X1286750Y875020D03*
D17*
X262090Y466146D03*
X442430Y466146D03*
X622770Y466146D03*
X801840Y466146D03*
X982180Y466146D03*
X1162520Y466146D03*
D16*
X368770Y307650D03*
X287490Y302570D03*
X212560Y235260D03*
X331940Y301300D03*
X381470Y225100D03*
X477990Y223830D03*
X296380Y218750D03*
X559270Y405440D03*
X721830Y401630D03*
X850100Y477830D03*
X864070Y454970D03*
X918680Y402900D03*
X1041870Y406710D03*
X1036790Y466400D03*
X978370Y222560D03*
X1219670Y388930D03*
X1196810Y222560D03*
X1058380Y555300D03*
X853910Y517200D03*
X899630Y569270D03*
X653250Y571810D03*
X465290Y585780D03*
X183350Y578160D03*
X650710Y755960D03*
X951700Y759770D03*
X1090130Y303840D03*
X1186650Y301300D03*
X1109180Y228910D03*
X1139660Y382580D03*
X911060Y292410D03*
X955510Y341940D03*
X1007580Y308920D03*
X935190Y199700D03*
X1112990Y199700D03*
X852640Y420680D03*
X880580Y404170D03*
X726910Y308920D03*
X831050Y306380D03*
X775170Y340670D03*
X852640Y568000D03*
X837400Y655630D03*
X545300Y305110D03*
X565620Y228910D03*
X594830Y344480D03*
X646900Y303840D03*
X466560Y302570D03*
X395440Y374960D03*
X184620Y307650D03*
X215100Y364800D03*
X201130Y206050D03*
X414490Y164140D03*
X331940Y209860D03*
X317970Y115880D03*
X571970Y200970D03*
X598640Y110800D03*
X780250Y110800D03*
X752310Y198430D03*
X819620Y216210D03*
X1077430Y651820D03*
X1194270Y651820D03*
X1204430Y583240D03*
X1209160Y512770D03*
X909790Y755960D03*
X1008850Y754690D03*
X1027900Y507040D03*
X1067270Y823270D03*
X1022820Y837240D03*
X1017740Y654360D03*
X903440Y835970D03*
X894550Y650550D03*
X742150Y748340D03*
X772630Y745800D03*
X842480Y841050D03*
X674840Y838510D03*
X540220Y833430D03*
X480530Y835970D03*
X361150Y838510D03*
X420840Y847400D03*
X658330Y654360D03*
X536410Y651820D03*
X477990Y654360D03*
X358610Y651820D03*
X334480Y890580D03*
X315430Y517200D03*
X296300Y766960D03*
X175730Y649280D03*
X187160Y752150D03*
X481800Y504500D03*
X324320Y570540D03*
X298920Y837240D03*
X503390Y106990D03*
X86868Y85344D03*
X1335948Y58730D03*
X1283424Y416522D03*
X80742Y899856D03*
X178096Y833740D03*
X1306750Y945020D03*
X1354270Y641820D03*
X818480Y750050D03*
X275300Y740960D03*
X1209270Y822270D03*
X1218908Y460050D03*
X911060Y672902D03*
X1268428Y649882D03*
D17*
X962114Y438206D03*
X962114Y640898D03*
X1271684Y677592D03*
X775932Y507294D03*
X799046Y728274D03*
X782282Y664266D03*
X849846Y884738D03*
X242326Y630006D03*
X259042Y734624D03*
X1240000Y430000D03*
X346926Y442524D03*
X444716Y438714D03*
X625056Y438714D03*
X1164806Y438714D03*
X1059650Y438714D03*
X804126Y438714D03*
X1270000Y440000D03*
X1280000Y540000D03*
X662852Y532948D03*
X792188Y507294D03*
X1290000Y570000D03*
X772884Y653598D03*
X771614Y684332D03*
X883374Y633278D03*
X886264Y681094D03*
X929094Y574096D03*
X938746Y786694D03*
X919442Y593448D03*
X874484Y698048D03*
X556730Y594670D03*
X525234Y872292D03*
X1085558Y594924D03*
X1064222Y870260D03*
X765010Y421442D03*
X746468Y79812D03*
X972274Y474274D03*
X982180Y379278D03*
X956526Y399598D03*
X966686Y296474D03*
X805904Y379722D03*
X805904Y79812D03*
X853656Y392232D03*
X848576Y164902D03*
X668744Y349814D03*
X663918Y176586D03*
X621246Y381310D03*
X622516Y79812D03*
X1159472Y411536D03*
X1159472Y198684D03*
X936714Y609402D03*
X966686Y821238D03*
X1142962Y665536D03*
X1142962Y865434D03*
X1136612Y507294D03*
X1158964Y786694D03*
X604228Y506278D03*
X636994Y506278D03*
X1130008Y611688D03*
X1131024Y684332D03*
X590004Y612450D03*
X574510Y706938D03*
X753834Y609402D03*
X771614Y880928D03*
X926300Y384612D03*
X933920Y257612D03*
X945350Y377500D03*
X960844Y111308D03*
X1125690Y397820D03*
X1131532Y96830D03*
X583908Y377500D03*
X583908Y79812D03*
X783552Y391470D03*
X786346Y285552D03*
X593052Y404170D03*
X596862Y305618D03*
X1024598Y209860D03*
X1033488Y104450D03*
X1024598Y197160D03*
X1024598Y176840D03*
X203416Y566984D03*
X384010Y595178D03*
X564350Y506278D03*
X768058Y489006D03*
X973290Y413568D03*
X1005294Y395788D03*
X1123658Y494086D03*
X890976Y549364D03*
X918426Y492054D03*
X995642Y493324D03*
X230848Y615498D03*
X230594Y684332D03*
X236944Y378516D03*
X238214Y304602D03*
X399250Y594670D03*
X399250Y761040D03*
X399250Y548442D03*
X336004Y862132D03*
X424650Y651058D03*
X498310Y860100D03*
X424650Y666298D03*
X441160Y794568D03*
X172682Y804474D03*
X172174Y857052D03*
X172174Y623626D03*
X176746Y673918D03*
X179794Y291648D03*
X179032Y322128D03*
X171762Y111070D03*
X186652Y144328D03*
X303238Y802696D03*
X297142Y858830D03*
X303746Y622356D03*
X295872Y670870D03*
X299682Y290124D03*
X283934Y322128D03*
X300952Y115880D03*
X483578Y803204D03*
X492468Y721924D03*
X473672Y674680D03*
X479768Y288600D03*
X470878Y322128D03*
X716242Y322128D03*
X823938Y323398D03*
X531854Y809046D03*
X553936Y864418D03*
X532854Y621086D03*
X545554Y674172D03*
X663918Y803458D03*
X654012Y853750D03*
X664426Y621086D03*
X652742Y674680D03*
X659854Y288600D03*
X1013422Y293680D03*
X1077938Y288854D03*
X1199858Y288600D03*
X1189952Y114610D03*
X355848Y111054D03*
X367246Y323398D03*
X365722Y290886D03*
X410934Y689158D03*
X349974Y626166D03*
X353784Y749102D03*
X357594Y774756D03*
X463512Y122230D03*
X486626Y618546D03*
X713702Y803458D03*
X844258Y803712D03*
X894042Y803204D03*
X1024598Y804220D03*
X1073112Y803966D03*
X1203668Y802950D03*
X771614Y868228D03*
X843242Y861370D03*
X899884Y859592D03*
X1015962Y862640D03*
X1076414Y857052D03*
X1195032Y838510D03*
X711924Y622356D03*
X846036Y624134D03*
X890994Y621086D03*
X1025106Y621086D03*
X1071334Y622356D03*
X1204176Y621086D03*
X716242Y676712D03*
X840702Y673410D03*
X951954Y678998D03*
X1022312Y673410D03*
X1081494Y670362D03*
X1189952Y672140D03*
X537934Y288854D03*
X717004Y294188D03*
X839686Y288854D03*
X892772Y301808D03*
X538696Y322128D03*
X643598Y322128D03*
X906742Y320858D03*
X1015454Y322128D03*
X1080986Y321366D03*
X1189698Y322128D03*
X534632Y111054D03*
X646392Y122230D03*
X713448Y111308D03*
X839686Y111054D03*
X894550Y111816D03*
X1017232Y115880D03*
X1072858Y111816D03*
X283934Y144328D03*
X367246Y145598D03*
X463258Y144328D03*
X553936Y145598D03*
X643598Y144328D03*
X734022Y144328D03*
X830288Y144328D03*
X907504Y143614D03*
X1012914Y141788D03*
X1093686Y145598D03*
X1203668Y158806D03*
X245326Y603306D03*
X312128Y870260D03*
X223990Y377500D03*
X209258Y79812D03*
X313398Y197160D03*
X304508Y176840D03*
X257090Y385786D03*
X257090Y77812D03*
X399250Y561142D03*
X353022Y693730D03*
X416522Y377500D03*
X416522Y305618D03*
X346926Y429824D03*
X346926Y101656D03*
X406362Y385374D03*
X406362Y199700D03*
X492468Y197160D03*
X483578Y176840D03*
X438668Y383278D03*
X438668Y77812D03*
X713702Y354640D03*
X706702Y280360D03*
X972274Y608386D03*
X980656Y895946D03*
M02*
