G04 EAGLE Gerber RS-274X export*
G75*
%MOMM*%
%FSLAX34Y34*%
%LPD*%
%INSolderpaste Bottom*%
%IPPOS*%
%AMOC8*
5,1,8,0,0,1.08239X$1,22.5*%
G01*
%ADD10R,0.400000X1.200000*%
%ADD11R,2.200000X0.600000*%
%ADD12R,1.100000X1.000000*%
%ADD13C,1.016000*%


D10*
X203480Y520920D03*
X209980Y520920D03*
X216480Y520920D03*
X222980Y520920D03*
X229480Y520920D03*
X235980Y520920D03*
X242480Y520920D03*
X248980Y520920D03*
X255480Y520920D03*
X261980Y520920D03*
X268480Y520920D03*
X274980Y520920D03*
X274980Y452520D03*
X268480Y452520D03*
X261980Y452520D03*
X255480Y452520D03*
X248980Y452520D03*
X242480Y452520D03*
X235980Y452520D03*
X229480Y452520D03*
X222980Y452520D03*
X216480Y452520D03*
X209980Y452520D03*
X203480Y452520D03*
X743230Y520920D03*
X749730Y520920D03*
X756230Y520920D03*
X762730Y520920D03*
X769230Y520920D03*
X775730Y520920D03*
X782230Y520920D03*
X788730Y520920D03*
X795230Y520920D03*
X801730Y520920D03*
X808230Y520920D03*
X814730Y520920D03*
X814730Y452520D03*
X808230Y452520D03*
X801730Y452520D03*
X795230Y452520D03*
X788730Y452520D03*
X782230Y452520D03*
X775730Y452520D03*
X769230Y452520D03*
X762730Y452520D03*
X756230Y452520D03*
X749730Y452520D03*
X743230Y452520D03*
X923570Y520920D03*
X930070Y520920D03*
X936570Y520920D03*
X943070Y520920D03*
X949570Y520920D03*
X956070Y520920D03*
X962570Y520920D03*
X969070Y520920D03*
X975570Y520920D03*
X982070Y520920D03*
X988570Y520920D03*
X995070Y520920D03*
X995070Y452520D03*
X988570Y452520D03*
X982070Y452520D03*
X975570Y452520D03*
X969070Y452520D03*
X962570Y452520D03*
X956070Y452520D03*
X949570Y452520D03*
X943070Y452520D03*
X936570Y452520D03*
X930070Y452520D03*
X923570Y452520D03*
X383820Y520920D03*
X390320Y520920D03*
X396820Y520920D03*
X403320Y520920D03*
X409820Y520920D03*
X416320Y520920D03*
X422820Y520920D03*
X429320Y520920D03*
X435820Y520920D03*
X442320Y520920D03*
X448820Y520920D03*
X455320Y520920D03*
X455320Y452520D03*
X448820Y452520D03*
X442320Y452520D03*
X435820Y452520D03*
X429320Y452520D03*
X422820Y452520D03*
X416320Y452520D03*
X409820Y452520D03*
X403320Y452520D03*
X396820Y452520D03*
X390320Y452520D03*
X383820Y452520D03*
X1103910Y520920D03*
X1110410Y520920D03*
X1116910Y520920D03*
X1123410Y520920D03*
X1129910Y520920D03*
X1136410Y520920D03*
X1142910Y520920D03*
X1149410Y520920D03*
X1155910Y520920D03*
X1162410Y520920D03*
X1168910Y520920D03*
X1175410Y520920D03*
X1175410Y452520D03*
X1168910Y452520D03*
X1162410Y452520D03*
X1155910Y452520D03*
X1149410Y452520D03*
X1142910Y452520D03*
X1136410Y452520D03*
X1129910Y452520D03*
X1123410Y452520D03*
X1116910Y452520D03*
X1110410Y452520D03*
X1103910Y452520D03*
X564160Y520920D03*
X570660Y520920D03*
X577160Y520920D03*
X583660Y520920D03*
X590160Y520920D03*
X596660Y520920D03*
X603160Y520920D03*
X609660Y520920D03*
X616160Y520920D03*
X622660Y520920D03*
X629160Y520920D03*
X635660Y520920D03*
X635660Y452520D03*
X629160Y452520D03*
X622660Y452520D03*
X616160Y452520D03*
X609660Y452520D03*
X603160Y452520D03*
X596660Y452520D03*
X590160Y452520D03*
X583660Y452520D03*
X577160Y452520D03*
X570660Y452520D03*
X564160Y452520D03*
D11*
X211960Y822000D03*
X263960Y822000D03*
X211960Y809300D03*
X211960Y834700D03*
X211960Y847400D03*
X263960Y809300D03*
X263960Y834700D03*
X263960Y847400D03*
X211960Y872800D03*
X263960Y872800D03*
X211960Y860100D03*
X211960Y885500D03*
X263960Y860100D03*
X263960Y885500D03*
X211960Y632770D03*
X263960Y632770D03*
X211960Y620070D03*
X211960Y645470D03*
X211960Y658170D03*
X263960Y620070D03*
X263960Y645470D03*
X263960Y658170D03*
X211960Y683570D03*
X263960Y683570D03*
X211960Y670870D03*
X211960Y696270D03*
X263960Y670870D03*
X263960Y696270D03*
X213230Y280980D03*
X265230Y280980D03*
X213230Y268280D03*
X213230Y293680D03*
X213230Y306380D03*
X265230Y268280D03*
X265230Y293680D03*
X265230Y306380D03*
X213230Y331780D03*
X265230Y331780D03*
X213230Y319080D03*
X213230Y344480D03*
X265230Y319080D03*
X265230Y344480D03*
X213230Y103180D03*
X265230Y103180D03*
X213230Y90480D03*
X213230Y115880D03*
X213230Y128580D03*
X265230Y90480D03*
X265230Y115880D03*
X265230Y128580D03*
X213230Y153980D03*
X265230Y153980D03*
X213230Y141280D03*
X213230Y166680D03*
X265230Y141280D03*
X265230Y166680D03*
X392300Y822000D03*
X444300Y822000D03*
X392300Y809300D03*
X392300Y834700D03*
X392300Y847400D03*
X444300Y809300D03*
X444300Y834700D03*
X444300Y847400D03*
X392300Y872800D03*
X444300Y872800D03*
X392300Y860100D03*
X392300Y885500D03*
X444300Y860100D03*
X444300Y885500D03*
X392300Y632770D03*
X444300Y632770D03*
X392300Y620070D03*
X392300Y645470D03*
X392300Y658170D03*
X444300Y620070D03*
X444300Y645470D03*
X444300Y658170D03*
X392300Y683570D03*
X444300Y683570D03*
X392300Y670870D03*
X392300Y696270D03*
X444300Y670870D03*
X444300Y696270D03*
X392300Y280980D03*
X444300Y280980D03*
X392300Y268280D03*
X392300Y293680D03*
X392300Y306380D03*
X444300Y268280D03*
X444300Y293680D03*
X444300Y306380D03*
X392300Y331780D03*
X444300Y331780D03*
X392300Y319080D03*
X392300Y344480D03*
X444300Y319080D03*
X444300Y344480D03*
X392300Y103180D03*
X444300Y103180D03*
X392300Y90480D03*
X392300Y115880D03*
X392300Y128580D03*
X444300Y90480D03*
X444300Y115880D03*
X444300Y128580D03*
X392300Y153980D03*
X444300Y153980D03*
X392300Y141280D03*
X392300Y166680D03*
X444300Y141280D03*
X444300Y166680D03*
X572640Y822000D03*
X624640Y822000D03*
X572640Y809300D03*
X572640Y834700D03*
X572640Y847400D03*
X624640Y809300D03*
X624640Y834700D03*
X624640Y847400D03*
X572640Y872800D03*
X624640Y872800D03*
X572640Y860100D03*
X572640Y885500D03*
X624640Y860100D03*
X624640Y885500D03*
X572640Y632770D03*
X624640Y632770D03*
X572640Y620070D03*
X572640Y645470D03*
X572640Y658170D03*
X624640Y620070D03*
X624640Y645470D03*
X624640Y658170D03*
X572640Y683570D03*
X624640Y683570D03*
X572640Y670870D03*
X572640Y696270D03*
X624640Y670870D03*
X624640Y696270D03*
X572640Y280980D03*
X624640Y280980D03*
X572640Y268280D03*
X572640Y293680D03*
X572640Y306380D03*
X624640Y268280D03*
X624640Y293680D03*
X624640Y306380D03*
X572640Y331780D03*
X624640Y331780D03*
X572640Y319080D03*
X572640Y344480D03*
X624640Y319080D03*
X624640Y344480D03*
X572640Y103180D03*
X624640Y103180D03*
X572640Y90480D03*
X572640Y115880D03*
X572640Y128580D03*
X624640Y90480D03*
X624640Y115880D03*
X624640Y128580D03*
X572640Y153980D03*
X624640Y153980D03*
X572640Y141280D03*
X572640Y166680D03*
X624640Y141280D03*
X624640Y166680D03*
X752980Y822000D03*
X804980Y822000D03*
X752980Y809300D03*
X752980Y834700D03*
X752980Y847400D03*
X804980Y809300D03*
X804980Y834700D03*
X804980Y847400D03*
X752980Y872800D03*
X804980Y872800D03*
X752980Y860100D03*
X752980Y885500D03*
X804980Y860100D03*
X804980Y885500D03*
X933320Y280980D03*
X985320Y280980D03*
X933320Y268280D03*
X933320Y293680D03*
X933320Y306380D03*
X985320Y268280D03*
X985320Y293680D03*
X985320Y306380D03*
X933320Y331780D03*
X985320Y331780D03*
X933320Y319080D03*
X933320Y344480D03*
X985320Y319080D03*
X985320Y344480D03*
X752980Y632770D03*
X804980Y632770D03*
X752980Y620070D03*
X752980Y645470D03*
X752980Y658170D03*
X804980Y620070D03*
X804980Y645470D03*
X804980Y658170D03*
X752980Y683570D03*
X804980Y683570D03*
X752980Y670870D03*
X752980Y696270D03*
X804980Y670870D03*
X804980Y696270D03*
X933320Y103180D03*
X985320Y103180D03*
X933320Y90480D03*
X933320Y115880D03*
X933320Y128580D03*
X985320Y90480D03*
X985320Y115880D03*
X985320Y128580D03*
X933320Y153980D03*
X985320Y153980D03*
X933320Y141280D03*
X933320Y166680D03*
X985320Y141280D03*
X985320Y166680D03*
X752980Y280980D03*
X804980Y280980D03*
X752980Y268280D03*
X752980Y293680D03*
X752980Y306380D03*
X804980Y268280D03*
X804980Y293680D03*
X804980Y306380D03*
X752980Y331780D03*
X804980Y331780D03*
X752980Y319080D03*
X752980Y344480D03*
X804980Y319080D03*
X804980Y344480D03*
X1112390Y822000D03*
X1164390Y822000D03*
X1112390Y809300D03*
X1112390Y834700D03*
X1112390Y847400D03*
X1164390Y809300D03*
X1164390Y834700D03*
X1164390Y847400D03*
X1112390Y872800D03*
X1164390Y872800D03*
X1112390Y860100D03*
X1112390Y885500D03*
X1164390Y860100D03*
X1164390Y885500D03*
X752980Y103180D03*
X804980Y103180D03*
X752980Y90480D03*
X752980Y115880D03*
X752980Y128580D03*
X804980Y90480D03*
X804980Y115880D03*
X804980Y128580D03*
X752980Y153980D03*
X804980Y153980D03*
X752980Y141280D03*
X752980Y166680D03*
X804980Y141280D03*
X804980Y166680D03*
X1112390Y632770D03*
X1164390Y632770D03*
X1112390Y620070D03*
X1112390Y645470D03*
X1112390Y658170D03*
X1164390Y620070D03*
X1164390Y645470D03*
X1164390Y658170D03*
X1112390Y683570D03*
X1164390Y683570D03*
X1112390Y670870D03*
X1112390Y696270D03*
X1164390Y670870D03*
X1164390Y696270D03*
X933320Y822000D03*
X985320Y822000D03*
X933320Y809300D03*
X933320Y834700D03*
X933320Y847400D03*
X985320Y809300D03*
X985320Y834700D03*
X985320Y847400D03*
X933320Y872800D03*
X985320Y872800D03*
X933320Y860100D03*
X933320Y885500D03*
X985320Y860100D03*
X985320Y885500D03*
X1112390Y280980D03*
X1164390Y280980D03*
X1112390Y268280D03*
X1112390Y293680D03*
X1112390Y306380D03*
X1164390Y268280D03*
X1164390Y293680D03*
X1164390Y306380D03*
X1112390Y331780D03*
X1164390Y331780D03*
X1112390Y319080D03*
X1112390Y344480D03*
X1164390Y319080D03*
X1164390Y344480D03*
X933320Y632770D03*
X985320Y632770D03*
X933320Y620070D03*
X933320Y645470D03*
X933320Y658170D03*
X985320Y620070D03*
X985320Y645470D03*
X985320Y658170D03*
X933320Y683570D03*
X985320Y683570D03*
X933320Y670870D03*
X933320Y696270D03*
X985320Y670870D03*
X985320Y696270D03*
X1112390Y103180D03*
X1164390Y103180D03*
X1112390Y90480D03*
X1112390Y115880D03*
X1112390Y128580D03*
X1164390Y90480D03*
X1164390Y115880D03*
X1164390Y128580D03*
X1112390Y153980D03*
X1164390Y153980D03*
X1112390Y141280D03*
X1112390Y166680D03*
X1164390Y141280D03*
X1164390Y166680D03*
D12*
X185890Y817800D03*
X185890Y800800D03*
X185890Y875730D03*
X185890Y892730D03*
X290030Y875730D03*
X290030Y892730D03*
X290030Y817800D03*
X290030Y800800D03*
X185890Y631110D03*
X185890Y614110D03*
X185890Y686500D03*
X185890Y703500D03*
X290030Y686500D03*
X290030Y703500D03*
X290030Y629840D03*
X290030Y612840D03*
X187160Y278050D03*
X187160Y261050D03*
X187160Y100250D03*
X187160Y83250D03*
X187160Y334710D03*
X187160Y351710D03*
X187160Y156910D03*
X187160Y173910D03*
X291300Y334710D03*
X291300Y351710D03*
X291300Y156910D03*
X291300Y173910D03*
X291300Y278050D03*
X291300Y261050D03*
X291300Y100250D03*
X291300Y83250D03*
X366230Y819070D03*
X366230Y802070D03*
X366230Y628570D03*
X366230Y611570D03*
X366230Y875730D03*
X366230Y892730D03*
X366230Y687770D03*
X366230Y704770D03*
X470370Y875730D03*
X470370Y892730D03*
X470370Y687770D03*
X470370Y704770D03*
X470370Y819070D03*
X470370Y802070D03*
X470370Y628570D03*
X470370Y611570D03*
X650710Y276780D03*
X650710Y259780D03*
X650710Y334710D03*
X650710Y351710D03*
X546570Y334710D03*
X546570Y351710D03*
X546570Y276780D03*
X546570Y259780D03*
X650710Y817800D03*
X650710Y800800D03*
X650710Y877000D03*
X650710Y894000D03*
X546570Y877000D03*
X546570Y894000D03*
X546570Y817800D03*
X546570Y800800D03*
X470370Y276780D03*
X470370Y259780D03*
X470370Y334710D03*
X470370Y351710D03*
X366230Y335980D03*
X366230Y352980D03*
X366230Y278050D03*
X366230Y261050D03*
X366230Y98980D03*
X366230Y81980D03*
X726910Y817800D03*
X726910Y800800D03*
X366230Y158180D03*
X366230Y175180D03*
X726910Y877000D03*
X726910Y894000D03*
X470370Y156910D03*
X470370Y173910D03*
X831050Y877000D03*
X831050Y894000D03*
X470370Y98980D03*
X470370Y81980D03*
X831050Y817800D03*
X831050Y800800D03*
X546570Y628570D03*
X546570Y611570D03*
X726910Y628570D03*
X726910Y611570D03*
X546570Y686500D03*
X546570Y703500D03*
X726910Y687770D03*
X726910Y704770D03*
X650710Y687770D03*
X650710Y704770D03*
X831050Y687770D03*
X831050Y704770D03*
X650710Y628570D03*
X650710Y611570D03*
X831050Y629840D03*
X831050Y612840D03*
X546570Y98980D03*
X546570Y81980D03*
X726910Y276780D03*
X726910Y259780D03*
X546570Y158180D03*
X546570Y175180D03*
X726910Y334710D03*
X726910Y351710D03*
X650710Y156910D03*
X650710Y173910D03*
X831050Y335980D03*
X831050Y352980D03*
X650710Y98980D03*
X650710Y81980D03*
X831050Y276780D03*
X831050Y259780D03*
X1011390Y628570D03*
X1011390Y611570D03*
X1190460Y817800D03*
X1190460Y800800D03*
X1190460Y877000D03*
X1190460Y894000D03*
X1011390Y686500D03*
X1011390Y703500D03*
X1086320Y875730D03*
X1086320Y892730D03*
X907250Y687770D03*
X907250Y704770D03*
X1086320Y817800D03*
X1086320Y800800D03*
X904710Y628570D03*
X904710Y611570D03*
X1011390Y98980D03*
X1011390Y81980D03*
X1011390Y817800D03*
X1011390Y800800D03*
X1011390Y156910D03*
X1011390Y173910D03*
X1011390Y877000D03*
X1011390Y894000D03*
X907250Y159450D03*
X907250Y176450D03*
X907250Y875730D03*
X907250Y892730D03*
X907250Y98980D03*
X907250Y81980D03*
X907250Y817800D03*
X907250Y800800D03*
X1011390Y276780D03*
X1011390Y259780D03*
X831050Y98980D03*
X831050Y81980D03*
X1011390Y335980D03*
X1011390Y352980D03*
X831050Y158180D03*
X831050Y175180D03*
X907250Y335980D03*
X907250Y352980D03*
X726910Y156910D03*
X726910Y173910D03*
X907250Y276780D03*
X907250Y259780D03*
X726910Y98980D03*
X726910Y81980D03*
X1086320Y628570D03*
X1086320Y611570D03*
X1086320Y687770D03*
X1086320Y704770D03*
X1190460Y687770D03*
X1190460Y704770D03*
X1190460Y628570D03*
X1190460Y611570D03*
X1086320Y276780D03*
X1086320Y259780D03*
X1085050Y335980D03*
X1085050Y352980D03*
X1190460Y334710D03*
X1190460Y351710D03*
X1190460Y276780D03*
X1190460Y259780D03*
X1086320Y98980D03*
X1086320Y81980D03*
X1086320Y158180D03*
X1086320Y175180D03*
X1190460Y158180D03*
X1190460Y175180D03*
X1190460Y98980D03*
X1190460Y81980D03*
X246460Y905820D03*
X229460Y905820D03*
X246460Y716590D03*
X229460Y716590D03*
X247730Y364800D03*
X230730Y364800D03*
X247730Y187000D03*
X230730Y187000D03*
X1148160Y364800D03*
X1131160Y364800D03*
X426800Y905820D03*
X409800Y905820D03*
X426800Y716590D03*
X409800Y716590D03*
X426800Y364800D03*
X409800Y364800D03*
X426800Y187000D03*
X409800Y187000D03*
X607140Y905820D03*
X590140Y905820D03*
X605870Y716590D03*
X588870Y716590D03*
X607140Y364800D03*
X590140Y364800D03*
X607140Y187000D03*
X590140Y187000D03*
X787480Y905820D03*
X770480Y905820D03*
X787480Y716590D03*
X770480Y716590D03*
X787480Y364800D03*
X770480Y364800D03*
X787480Y187000D03*
X770480Y187000D03*
X967820Y905820D03*
X950820Y905820D03*
X967820Y716590D03*
X950820Y716590D03*
X967820Y364800D03*
X950820Y364800D03*
X967820Y187000D03*
X950820Y187000D03*
X1146890Y905820D03*
X1129890Y905820D03*
X1146890Y716590D03*
X1129890Y716590D03*
X1146890Y187000D03*
X1129890Y187000D03*
D13*
X120000Y900000D03*
X120000Y110000D03*
X1320000Y870000D03*
M02*
