M48
;GenerationSoftware,Autodesk,EAGLE,9.6.2*%
;CreationDate,2020-10-01T10:16:07Z*%
FMAT,2
ICI,OFF
METRIC,TZ,000.000
T3C0.610
T2C0.800
T1C3.200
%
G90
M71
T1
X139760Y3000
X3000Y3000
X3000Y94480
X139760Y94480
T2
X121891Y46005
X91106Y67290
X126843Y64988
X36877Y30765
X28749Y30257
X21256Y23526
X33194Y30130
X38147Y22510
X47799Y22383
X29638Y21875
X55927Y40544
X72183Y40163
X85010Y47783
X86407Y45497
X91868Y40290
X104187Y40671
X103679Y46640
X97837Y22256
X121967Y38893
X119681Y22256
X105838Y55530
X85391Y51720
X89963Y56927
X65325Y57181
X46529Y58578
X18335Y57816
X65071Y75596
X95170Y75977
X109013Y30384
X118665Y30130
X110918Y22891
X113966Y38258
X91106Y29241
X95551Y34194
X100758Y30892
X93519Y19970
X111299Y19970
X85264Y42068
X88058Y40417
X72691Y30892
X83105Y30638
X77517Y34067
X85264Y56800
X83740Y65563
X54530Y30511
X56562Y22891
X59483Y34448
X64690Y30384
X46656Y30257
X39544Y37496
X18462Y30765
X21510Y36480
X20113Y20605
X41449Y16414
X33194Y20986
X31797Y11588
X57197Y20097
X59864Y11080
X78025Y11080
X75231Y19843
X81962Y21621
X107743Y65182
X119427Y65182
X120443Y58324
X120916Y51277
X90979Y75596
X100885Y75469
X102790Y50704
X106727Y82327
X102282Y83724
X101774Y65436
X90344Y83597
X89455Y65055
X74215Y74834
X77263Y74580
X84248Y84105
X67484Y83851
X54022Y83343
X128675Y87502
X36115Y83851
X42084Y84740
X65833Y65436
X53641Y65182
X47799Y65436
X35861Y65182
X33448Y89058
X31543Y51720
X29630Y76696
X17573Y64928
X18716Y75215
X48180Y50450
X48053Y83597
X29892Y83724
X50339Y10699
X8687Y8534
X133595Y5873
X128342Y41652
X8074Y89986
X17810Y83374
X130675Y94502
X135427Y64182
X81848Y75005
X27530Y74096
X120927Y82227
X32432Y57054
T3
X98218Y46615
X116252Y46615
X96211Y43821
X96211Y64090
X127168Y67759
X77593Y50729
X79905Y72827
X78228Y66427
X84985Y88474
X24233Y63001
X25904Y73462
X124000Y43000
X34693Y44252
X44472Y43871
X62506Y43871
X116481Y43871
X105965Y43871
X80413Y43871
X127000Y44000
X128000Y54000
X66285Y53295
X79219Y50729
X129000Y57000
X77288Y65360
X77161Y68433
X88337Y63328
X88626Y68109
X92909Y57410
X93875Y78669
X91944Y59345
X87448Y69805
X55673Y59467
X52523Y87229
X108556Y59492
X106422Y87026
X76501Y42144
X74647Y7981
X97227Y47427
X98218Y37928
X95653Y39960
X96669Y29647
X80590Y37972
X80590Y7981
X85366Y39223
X84858Y16490
X66874Y34981
X66392Y17659
X62125Y38131
X62252Y7981
X115947Y41154
X115947Y19868
X93671Y60940
X96669Y82124
X114296Y66554
X114296Y86543
X113661Y50729
X115896Y78669
X60423Y50628
X63699Y50628
X113001Y61169
X113102Y68433
X59000Y61245
X57451Y70694
X75383Y60940
X77161Y88093
X92630Y38461
X93392Y25761
X94535Y37750
X96084Y11131
X112569Y39782
X113153Y9683
X58391Y37750
X58391Y7981
X78355Y39147
X78635Y28555
X59305Y40417
X59686Y30562
X102460Y20986
X103349Y10445
X102460Y19716
X102460Y17684
X20342Y56698
X38401Y59518
X56435Y50628
X76806Y48901
X97329Y41357
X100529Y39579
X112366Y49409
X89098Y54936
X91843Y49205
X99564Y49332
X23085Y61550
X23059Y68433
X23694Y37852
X23821Y30460
X39925Y59467
X39925Y76104
X39925Y54844
X33600Y86213
X42465Y65106
X49831Y86010
X42465Y66630
X44116Y79457
X17268Y80447
X17217Y85705
X17217Y62363
X17675Y67392
X17979Y29165
X17903Y32213
X17176Y11107
X18665Y14433
X30324Y80270
X29714Y85883
X30375Y62236
X29587Y67087
X29968Y29012
X28393Y32213
X30095Y11588
X48358Y80320
X49247Y72192
X47367Y67468
X47977Y28860
X47088Y32213
X71624Y32213
X82394Y32340
X53185Y80905
X55394Y86442
X53285Y62109
X54555Y67417
X66392Y80346
X65401Y85375
X66443Y62109
X65274Y67468
X65985Y28860
X101342Y29368
X107794Y28885
X119986Y28860
X118995Y11461
X35585Y11105
X36725Y32340
X36572Y29089
X41093Y68916
X26209Y46615
X35378Y74910
X35759Y77476
X46351Y12223
X48663Y61855
X71370Y80346
X84426Y80371
X89404Y80320
X102460Y80422
X107311Y80397
X120367Y80295
X77161Y86823
X84324Y86137
X89988Y85959
X101596Y86264
X107641Y85705
X119503Y83851
X71192Y62236
X84604Y62413
X89099Y62109
X102511Y62109
X107133Y62236
X120418Y62109
X71624Y67671
X84070Y67341
X95195Y67900
X102231Y67341
X108149Y67036
X118995Y67214
X53793Y28885
X71700Y29419
X83969Y28885
X89277Y30181
X53870Y32213
X64360Y32213
X90674Y32086
X101545Y32213
X108099Y32137
X118970Y32213
X53463Y11105
X64639Y12223
X71345Y11131
X34997Y62617
X89455Y11182
X101723Y11588
X107286Y11182
X28393Y14433
X36725Y14560
X46326Y14433
X55394Y14560
X64360Y14433
X73402Y14433
X83029Y14433
X90750Y14361
X101291Y14179
X109369Y14560
X120367Y15881
X24533Y60331
X31213Y87026
X22399Y37750
X20926Y7981
X31340Y19716
X30451Y17684
X25709Y38579
X25709Y7781
X39925Y56114
X35302Y69373
X41652Y37750
X41652Y30562
X34693Y42982
X34693Y10166
X40636Y38537
X40636Y19970
X49247Y19716
X48358Y17684
X43867Y38328
X43867Y7781
X71370Y35464
X70670Y28036
X97227Y60839
X98066Y89595
X44243Y46615
X62277Y46615
X80184Y46615
X83969Y11105
M30